<svg width="75" height="65" viewBox="0 0 75 65" xmlns="http://www.w3.org/2000/svg" xmlns:xlink="http://www.w3.org/1999/xlink"><title>laptop</title><desc>Created using Figma</desc><use xlink:href="#a" transform="translate(8.928 5.691)" fill="#333"/><use xlink:href="#b" transform="translate(8.928 51.097)" fill="#333"/><use xlink:href="#c" transform="translate(.882 .646)" fill="#333"/><use xlink:href="#d" transform="translate(20.308 15.095)" fill="#333"/><use xlink:href="#e" transform="translate(52.49 25.872)" fill="#333"/><use xlink:href="#f" transform="translate(51.341 19.565)" fill="#333"/><use xlink:href="#g" transform="translate(51.341 30.916)" fill="#333"/><defs><path id="a" d="M56.246 0H1.076C.48 0 0 .528 0 1.18c0 .652.481 1.18 1.075 1.18h55.171c.594 0 1.076-.528 1.076-1.18 0-.652-.482-1.18-1.076-1.18z"/><path id="b" d="M56.246 0H1.076C.48 0 0 .528 0 1.18c0 .652.481 1.18 1.075 1.18h55.171c.594 0 1.076-.528 1.076-1.18 0-.652-.482-1.18-1.076-1.18z"/><path id="c" d="M71.188 55.496h-1.223V4.964c0-2.737-2.03-4.964-4.524-4.964H7.971C5.478 0 3.449 2.227 3.449 4.964v50.532H2.225C.998 55.496 0 56.593 0 57.938v2.522c0 2.042 1.514 3.703 3.374 3.703H70.04c1.86 0 3.374-1.661 3.374-3.703v-2.522c0-1.346-.998-2.442-2.225-2.442zM5.6 4.964c0-1.436 1.064-2.604 2.373-2.604h57.47c1.308 0 2.372 1.168 2.372 2.604v50.532H5.6V4.965zM71.263 60.46c0 .74-.55 1.343-1.224 1.343H3.374c-.674 0-1.223-.602-1.223-1.343v-2.522c0-.045.033-.082.074-.082h29.962c-.002.027-.004.054-.004.082 0 .652.481 1.18 1.075 1.18h6.897c.594 0 1.075-.528 1.075-1.18 0-.028-.002-.054-.003-.082h29.962c.04 0 .074.037.074.082v2.522z"/><path id="d" d="M28.051 8.05l-2.912-.8V2.442c0-.804-.361-1.556-.966-2.012a2.058 2.058 0 0 0-2.058-.266L8.921 5.73H3.374C1.514 5.731 0 7.392 0 9.434v5.045c0 1.563.887 2.901 2.137 3.444L5.54 29.125c.303.999 1.151 1.67 2.11 1.67h3.325c.713 0 1.387-.38 1.804-1.014a2.647 2.647 0 0 0 .306-2.2l-2.662-8.766 11.692 4.935a2.053 2.053 0 0 0 2.058-.266c.605-.456.966-1.208.966-2.013v-4.81l2.912-.798c.992-.272 1.685-1.246 1.685-2.369V10.42c0-1.123-.693-2.097-1.685-2.37zm-25.9 6.43V9.433c0-.74.548-1.342 1.223-1.342h4.672v7.73H3.374c-.675 0-1.223-.602-1.223-1.343zm8.894 13.847c.004.013.012.04-.01.074-.022.034-.048.034-.06.034H7.65a.075.075 0 0 1-.07-.056L4.483 18.182h3.48l3.082 10.145zm11.943-6.855c0 .014 0 .042-.032.067-.032.024-.057.014-.069.009l-12.69-5.357V7.722l12.69-5.356c.012-.006.036-.016.069.008.032.025.032.054.032.068v19.03zm4.597-7.978a.08.08 0 0 1-.056.08l-2.39.655V9.684l2.39.656a.08.08 0 0 1 .056.079v3.075z"/><path id="e" d="M6.822 0H1.075C.481 0 0 .528 0 1.18c0 .652.481 1.18 1.075 1.18h5.747c.594 0 1.076-.528 1.076-1.18C7.898.528 7.416 0 6.822 0z"/><path id="f" d="M4.336.652C4.071.07 3.425-.166 2.893.125L.595 1.386c-.531.292-.747 1-.481 1.583.188.414.568.653.962.653.162 0 .326-.04.48-.125l2.3-1.261c.53-.292.746-1 .48-1.584z"/><path id="g" d="M3.855 1.386L1.557.125C1.025-.167.379.07.114.653c-.266.583-.05 1.292.48 1.583l2.3 1.261a.993.993 0 0 0 .48.125c.394 0 .774-.24.962-.653.266-.582.05-1.291-.48-1.583z"/></defs></svg>