<svg width="65" height="70" viewBox="0 0 65 70" xmlns="http://www.w3.org/2000/svg" xmlns:xlink="http://www.w3.org/1999/xlink"><title>picture</title><desc>Created using Figma</desc><use xlink:href="#a" transform="translate(22.82 34.449)" fill="#333"/><use xlink:href="#b" transform="translate(.649 .041)" fill="#333"/><defs><path id="a" d="M4.077 0C1.784 0 0 1.846 0 4.028 0 6.21 1.784 8.057 4.077 8.057c2.294 0 4.078-1.847 4.078-4.029C8.155 1.762 6.286 0 4.077 0zm0 6.378c-1.359 0-2.463-1.09-2.463-2.434 0-1.342 1.104-2.433 2.463-2.433 1.36 0 2.464 1.09 2.464 2.433 0 1.343-1.104 2.434-2.464 2.434z"/><path id="b" d="M63.794 18.128c0-.084-.085-.084-.085-.168h-.085c-.085-.084-.17-.084-.17-.168-.085 0-.085-.084-.17-.084L34.743 2.853V2.77C34.743 1.26 33.468 0 31.939 0s-2.803 1.259-2.803 2.77v.083L.595 17.624c-.085 0-.085.084-.17.084-.085.084-.17.084-.17.168l-.17.168c0 .084-.085.084-.085.167V68.733c0 .084 0 .168.085.252 0 .084.085.168.085.252 0 .084 0 .084.085.168s.17.168.34.252l.085.084c.17.083.34.083.51.083h61.5c.17 0 .34 0 .51-.084l.084-.083c.085-.084.255-.168.34-.252 0-.084.085-.084.085-.168.085-.084.085-.168.085-.252.085 0 .085-.084.085-.168V18.715v-.168-.168-.084c0-.084-.085-.168-.085-.168zM30.326 4.95c.424.336 1.019.504 1.613.504.595 0 1.19-.168 1.614-.504l24.21 12.589H6.116l24.21-12.589zM59.292 19.89l-5.437 4.448H10.024L4.587 19.89h54.705zM41.368 40.2c-.254-.252-.594-.42-.934-.42-.34 0-.68.168-.934.42L29.476 52.116l-8.664-7.89c-.51-.419-1.274-.419-1.7.085l-8.239 8.812V26.772h42.303v26.352h-.085L41.368 40.199zm11.638 16.532v3.945H10.788v-4.029l9.26-9.819 8.664 7.89c.254.251.594.335.934.335.34 0 .68-.168.85-.42l10.023-11.749 12.402 13.763.085.084zm-50.628-35.5L8.325 26.1v35.164l-5.947 4.868v-44.9zm2.21 46.243l5.436-4.448h43.831l5.437 4.448H4.587zm56.828-1.427l-5.947-4.784V26.1l5.947-4.867v44.815z"/></defs></svg>