<svg width="84" height="66" viewBox="0 0 84 66" xmlns="http://www.w3.org/2000/svg" xmlns:xlink="http://www.w3.org/1999/xlink"><title>car</title><desc>Created using Figma</desc><use xlink:href="#a" transform="translate(45.45 43.609)" fill="#333"/><use xlink:href="#b" transform="translate(12.388 53.104)" fill="#333"/><use xlink:href="#c" transform="translate(66.719 53.104)" fill="#333"/><use xlink:href="#d" transform="translate(.115 29.236)" fill="#333"/><use xlink:href="#e" transform="translate(33.89 6.495)" fill="#333"/><use xlink:href="#f" transform="translate(28.937 .589)" fill="#333"/><defs><path id="a" d="M6.047 0H1.27C.57 0 0 .573 0 1.28c0 .708.569 1.282 1.27 1.282h4.777c.701 0 1.27-.574 1.27-1.281C7.317.573 6.748 0 6.047 0z"/><path id="b" d="M4.076 0C1.828 0 0 1.844 0 4.11s1.828 4.11 4.076 4.11c2.247 0 4.075-1.844 4.075-4.11S6.323 0 4.076 0zm0 5.658A1.544 1.544 0 0 1 2.54 4.11c0-.854.689-1.549 1.536-1.549.847 0 1.535.695 1.535 1.549s-.689 1.548-1.535 1.548z"/><path id="c" d="M4.076 0C1.828 0 0 1.844 0 4.11s1.828 4.11 4.076 4.11c2.247 0 4.075-1.844 4.075-4.11S6.323 0 4.076 0zm0 5.658A1.544 1.544 0 0 1 2.54 4.11c0-.854.689-1.549 1.536-1.549.846 0 1.535.695 1.535 1.549s-.689 1.548-1.535 1.548z"/><path id="d" d="M82.851 20.128c-.323-2.563-1.447-5.02-3.197-6.91a12.329 12.329 0 0 0-6.263-3.638l-5.048-4.863A16.746 16.746 0 0 0 56.673 0h-9.79a35.214 35.214 0 0 0-15.712 3.725 1.286 1.286 0 0 0-.571 1.718 1.265 1.265 0 0 0 1.703.576 32.677 32.677 0 0 1 14.58-3.457h6.477l1.023 7.634-31.373 1.227 4.763-2.817a1.287 1.287 0 0 0 .453-1.753 1.264 1.264 0 0 0-1.738-.457l-8.858 5.24-4.472.2a12.13 12.13 0 0 0-4.054.894c-.034.011-.068.022-.101.036a12.281 12.281 0 0 0-6.071 5.497 12.834 12.834 0 0 0-.735 1.62c-.415 1.11-.72 2.274-1.068 3.408l-.865 2.82-.093.304a3.767 3.767 0 0 0 .563 3.358 3.7 3.7 0 0 0 3.015 1.535h4.864c1.286 3.027 4.27 5.152 7.735 5.152 3.467 0 6.45-2.126 7.735-5.152H62.944c1.286 3.027 4.269 5.152 7.735 5.152s6.449-2.126 7.735-5.152h3.263c.702 0 1.27-.573 1.27-1.28v-8.372c0-.511-.032-1.022-.096-1.528zm-5.991-6.05l.054.046a9.89 9.89 0 0 1 3.24 5.311 4.017 4.017 0 0 1-3.294-3.96V14.08zM56.674 2.563c3.71 0 7.232 1.423 9.914 4.008l3.142 3.025-12.797.501-1.01-7.534h.75zM4.784 20.265c.054-.127.11-.253.171-.377l.005-.009a9.823 9.823 0 0 1 3.348-3.843v.354c0 2.078-1.57 3.792-3.577 4l.052-.125zm16.338 11.154a5.935 5.935 0 0 1-2.356 1.954 5.818 5.818 0 0 1-5.958-.676 5.956 5.956 0 0 1-2.33-4.72c0-3.264 2.633-5.92 5.87-5.92 3.238 0 5.872 2.656 5.872 5.925-.001 1.226-.39 2.441-1.098 3.437zm3.603-2.672c.023-.256.035-.513.035-.769 0-4.677-3.773-8.482-8.411-8.482s-8.412 3.805-8.412 8.482v.008c0 .246.012.51.035.76H3.749c-.387 0-.74-.18-.97-.494a1.213 1.213 0 0 1-.181-1.08l1.292-4.215c.144.01.288.015.432.015 3.599 0 6.527-2.953 6.527-6.582v-1.472l-.003-.097a9.603 9.603 0 0 1 2.425-.426l4.78-.214 7.411-.29c-.477 3.032-1.138 9.68 1.095 14.856h-1.832zm20.623 0H29.389c-2.713-4.846-1.777-12.323-1.33-14.958l26.604-1.04c.15 2.651.152 9.2-3.049 13.043-1.542 1.852-3.592 2.818-6.266 2.955zm31.19-.384c-.203 3.052-2.795 5.536-5.859 5.536-3.169 0-5.87-2.726-5.87-5.92 0-3.265 2.633-5.921 5.87-5.921s5.871 2.656 5.871 5.92c0 .13-.004.258-.012.385zm3.87.384h-1.352c.427-4.73-3.25-9-7.944-9.24a8.378 8.378 0 0 0-.433-.011c-4.638 0-8.41 3.805-8.41 8.482 0 .253.011.514.034.769H52.27c.46-.394.893-.83 1.295-1.314 3.778-4.544 3.817-11.755 3.642-14.784l15.457-.605a9.6 9.6 0 0 1 1.803.569c-.097.454-.148.92-.148 1.392v1.471c0 3.48 2.693 6.337 6.088 6.565v6.706z"/><path id="e" d="M14.487.375c-.496-.5-1.3-.5-1.796 0l-9.13 9.208-1.106-2.887a1.268 1.268 0 0 0-1.642-.733c-.655.255-.98.997-.727 1.657l1.809 4.721a1.274 1.274 0 0 0 1.184.82c.333 0 .658-.133.898-.376l10.51-10.599c.496-.5.496-1.31 0-1.81z"/><path id="f" d="M12.382 0C5.555 0 0 5.601 0 12.486c0 6.885 5.555 12.486 12.382 12.486s12.382-5.6 12.382-12.486C24.764 5.601 19.21 0 12.382 0zm0 22.41c-5.427 0-9.842-4.452-9.842-9.924 0-5.472 4.415-9.925 9.842-9.925 5.426 0 9.842 4.453 9.842 9.925 0 5.473-4.415 9.924-9.842 9.924z"/></defs></svg>