<svg width="75" height="78" viewBox="0 0 75 78" xmlns="http://www.w3.org/2000/svg" xmlns:xlink="http://www.w3.org/1999/xlink"><title>engineer</title><desc>Created using Figma</desc><use xlink:href="#a" transform="translate(.882 .984)" fill="#333"/><defs><path id="a" d="M69.743 63.437c-7.303-4.032-12.904-6.293-17.89-7.16l.515-.738c.245-.255.367-.637.245-1.02l-1.147-4.774C54.5 45.28 56.283 39.7 56.283 34.393v-5.095H59.954c.734 0 1.224-.51 1.224-1.274s-.49-1.274-1.224-1.274h-1.223v-1.273c0-10.063-6.363-18.598-15.907-21.4V3.82c0-2.038-1.59-3.821-3.67-3.821h-4.895c-1.957 0-3.67 1.656-3.67 3.821v.255c-9.544 2.803-15.906 11.337-15.906 21.4v1.274h-1.224c-.734 0-1.223.51-1.223 1.274s.489 1.274 1.223 1.274H17.13v5.095c0 5.308 1.784 10.888 4.817 15.352L20.8 54.52c0 .255 0 .764.245 1.019l.516.738c-4.986.867-10.588 3.128-17.89 7.16C1.346 64.582 0 67.002 0 69.678v5.478c0 .764.49 1.273 1.223 1.273H72.19c.734 0 1.223-.509 1.223-1.273v-5.478c0-2.547-1.468-4.968-3.67-6.241zm-33.77-1.18l.74-1.735 1.83 4.19 1.195 2.8H33.77l2.203-5.255zM32.84 70.06h7.724l.699 3.822h-9.157l.734-3.822zm16.714-17.833l.49 2.293-1.25 1.786c-.08.068-.154.15-.219.252l-5.09 7.336-1.614 2.309-3.299-7.727c3.943-.5 7.463-2.562 10.306-5.523l.094-.097.023-.025c.188-.196.375-.398.559-.604zM47.96 9.317c.136.094.27.19.404.287 1.56 1.21 2.999 2.627 4.127 4.153l-5.629 1.147 1.098-5.587zM26.55 14.904l-5.628-1.147c1.127-1.526 2.567-2.943 4.127-4.153a19.1 19.1 0 0 1 .403-.287l1.098 5.587zM17.13 25.477c0-3.39.82-6.588 2.303-9.383l8.464 1.74h.245c.367 0 .612-.128.979-.255.367-.255.49-.764.367-1.147l-1.68-8.51a19.824 19.824 0 0 1 2.781-1.137v3.406c0 .764.49 1.273 1.224 1.273s1.223-.509 1.223-1.273V3.82c0-.637.49-1.273 1.224-1.273h4.894c.612 0 1.223.51 1.223 1.273v6.37c0 .764.49 1.273 1.224 1.273s1.223-.51 1.223-1.274V6.786c1 .323 1.959.718 2.87 1.18l-1.646 8.34c0 .382.122.892.367 1.146.245.255.49.383.856.383h.245l8.41-1.843c1.518 2.819 2.357 6.054 2.357 9.486v1.273H17.13v-1.273zm2.447 3.821h34.26v5.095c0 5.555-1.83 10.49-4.579 14.242l-.071.025-.367.382a21.12 21.12 0 0 1-1.944 2.337c-2.881 2.794-6.318 4.486-9.629 4.654a1.333 1.333 0 0 0-.54-.112c-.188 0-.358.038-.51.114-2.027-.097-4.101-.766-6.068-1.91-1.992-1.192-3.866-2.91-5.536-5.083l-.367-.382-.071-.025c-2.748-3.752-4.578-8.687-4.578-14.242v-5.095zM34.84 58.476l-3.299 7.727-1.615-2.309-5.089-7.336a2.223 2.223 0 0 0-.127-.12L23.37 54.52l.49-2.293c.165.186.333.367.503.545 2.873 3.059 6.455 5.193 10.478 5.704zM2.447 69.678c0-1.656.857-3.184 2.325-3.949 7.8-4.313 13.413-6.478 18.415-7.125l7.301 10.452-.927 4.826H2.447v-4.204zm68.52 4.204H43.851l-.927-4.826 7.38-10.565c4.985.783 10.7 2.946 18.336 7.111 1.469.892 2.325 2.42 2.325 4.076v4.204z"/></defs></svg>