<svg width="86" height="85" viewBox="0 0 86 85" xmlns="http://www.w3.org/2000/svg" xmlns:xlink="http://www.w3.org/1999/xlink"><title>mortarboard</title><desc>Created using Figma</desc><use xlink:href="#a" transform="translate(56.73 75.133)" fill="#333"/><use xlink:href="#b" transform="translate(.162 22.648)" fill="#333"/><use xlink:href="#c" transform="translate(14.304 37.644)" fill="#333"/><use xlink:href="#d" transform="translate(62.388 76.634)" fill="#333"/><use xlink:href="#e" transform="translate(.162 .154)" fill="#333"/><use xlink:href="#f" transform="translate(66.63 75.133)" fill="#333"/><defs><path id="a" d="M3.171.046c-.758-.204-1.526.288-1.714 1.09L.043 7.135c-.19.805.272 1.618 1.03 1.819.114.031.23.045.343.045.634 0 1.21-.455 1.37-1.135l1.415-5.999C4.39 1.061 3.929.247 3.17.046z"/><path id="b" d="M42.427 22.494c.184 0 .368-.037.54-.114l15.557-6.826c.721-.316 1.063-1.194.765-1.959-.298-.766-1.129-1.126-1.848-.812l-15.014 6.589L2.829 1.997V1.5c0-.828-.634-1.5-1.415-1.5C.634 0 0 .672 0 1.5V3c0 .606.345 1.154.874 1.385L41.887 22.38c.172.077.356.114.54.114z"/><path id="c" d="M45.108 22.861c-.345-.742-1.19-1.048-1.893-.68-2.686 1.408-7.172 3.045-13.516 3.269V11.997c0-.828-.634-1.5-1.414-1.5-.781 0-1.415.672-1.415 1.5v13.44C9.31 24.842 3.643 13.561 2.828 11.684V1.5c0-.828-.633-1.5-1.414-1.5C.634 0 0 .672 0 1.5v10.497c0 .19.034.38.1.558.247.649 6.266 15.937 28.185 15.937 7.66 0 13.03-1.97 16.183-3.623.7-.367.988-1.265.64-2.008z"/><path id="d" d="M1.414 0C.632 0 0 .672 0 1.5v4.498c0 .828.632 1.5 1.414 1.5.782 0 1.414-.672 1.414-1.5V1.5c0-.828-.632-1.5-1.414-1.5z"/><path id="e" d="M83.44 22.494c-.782 0-1.414.672-1.414 1.5v.494l-16.971 7.407v-2.71L83.98 20.88c.529-.23.874-.778.874-1.386 0-.607-.345-1.153-.872-1.385L42.967.114a1.341 1.341 0 0 0-1.08 0L.874 18.109c-.529.232-.874.778-.874 1.386 0 .607.345 1.154.874 1.385l41.013 17.996a1.331 1.331 0 0 0 1.08 0l14.83-6.507c.723-.315 1.065-1.192.767-1.959-.299-.765-1.126-1.126-1.847-.811l-14.29 6.268L5.112 19.495 42.427 3.122l37.315 16.373-16.237 7.124-15.553-6.157c.083-.312.132-.633.132-.967 0-2.523-2.485-4.5-5.657-4.5s-5.657 1.977-5.657 4.5c0 2.522 2.485 4.498 5.657 4.498 1.416 0 2.679-.409 3.66-1.069l16.14 6.39V66.26c-1.642.622-2.83 2.27-2.83 4.223 0 2.48 1.904 4.499 4.244 4.499 2.339 0 4.242-2.019 4.242-4.5 0-1.952-1.186-3.6-2.828-4.222v-8.512c4.06-3.25 5.515-7.577 5.579-7.77a1.6 1.6 0 0 0 .078-.49V38.99c0-.828-.633-1.5-1.415-1.5s-1.414.672-1.414 1.5v10.22c-.244.636-1.094 2.596-2.828 4.53V35.14l18.924-8.259c.53-.23.875-.78.875-1.387v-1.5c0-.827-.632-1.499-1.414-1.499zm-41.013-1.5c-1.727 0-2.828-.888-2.828-1.5 0-.611 1.101-1.499 2.828-1.499 1.727 0 2.829.888 2.829 1.5s-1.102 1.5-2.829 1.5zm21.214 50.987c-.781 0-1.415-.673-1.415-1.5 0-.826.634-1.499 1.415-1.499.78 0 1.414.673 1.414 1.5 0 .826-.634 1.5-1.414 1.5z"/><path id="f" d="M2.786 1.136C2.596.334 1.827-.157 1.072.046.314.246-.147 1.06.042 1.865l1.415 5.998c.161.68.737 1.135 1.37 1.135.113 0 .23-.013.344-.045.758-.2 1.22-1.013 1.03-1.819L2.785 1.136z"/></defs></svg>