<svg width="51" height="70" viewBox="0 0 51 70" xmlns="http://www.w3.org/2000/svg" xmlns:xlink="http://www.w3.org/1999/xlink"><title>light-bulb</title><desc>Created using Figma</desc><use xlink:href="#a" fill="#333"/><use xlink:href="#b" transform="translate(29.997 6.983)" fill="#333"/><use xlink:href="#c" transform="translate(23.555 5.879)" fill="#333"/><defs><path id="a" d="M43.065 6.827C38.251 2.379 31.857-.049 25.077.001 11.218.095-.031 10.669 0 23.57c.015 5.992 2.452 11.695 6.862 16.057 4.74 4.688 7.35 10.71 7.35 16.968l.008 4.046c0 1.821 1.592 3.303 3.549 3.303h1.18v2.576c0 1.822 1.592 3.303 3.55 3.303h5.534c1.957 0 3.55-1.481 3.55-3.303v-2.576h1.18c1.957 0 3.549-1.482 3.549-3.303l.008-4.055c0-6.305 2.572-12.29 7.243-16.855 4.493-4.39 6.968-10.15 6.968-16.215 0-6.314-2.651-12.241-7.466-16.69zM28.424 66.521c0 .2-.176.364-.391.364h-5.535c-.215 0-.39-.163-.39-.364v-2.576h6.316v2.576zm4.339-5.515H17.769c-.216 0-.391-.163-.391-.364v-2.576h15.775v2.576c0 .2-.175.364-.39.364zM23.306 44.69l-4.7-16.473c.549.24 1.269.452 2.303.452 1.514 0 2.356-.454 2.97-.786.465-.252.722-.39 1.386-.39.665 0 .92.139 1.386.39.615.332 1.457.786 2.97.786 1.035 0 1.756-.212 2.304-.452l-4.7 16.473h-3.92zm3.539 2.94v7.496h-3.159V47.63h3.159zm14.431-9.926c-4.87 4.758-7.703 10.894-8.073 17.421h-3.2V46.41l5.624-19.714a1.371 1.371 0 0 0-.125-1.051c-.18-.628-.793-1.09-1.524-1.09-1.514 0-2.356.454-2.97.786-.466.252-.722.39-1.387.39-.664 0-.92-.139-1.386-.39-.615-.332-1.456-.786-2.97-.786-1.514 0-2.356.454-2.97.786-.466.252-.722.39-1.387.39-.664 0-.92-.139-1.385-.39-.615-.332-1.457-.786-2.97-.786-.731 0-1.344.462-1.524 1.09-.174.313-.23.683-.125 1.05l5.624 19.715v8.716h-3.2c-.377-6.472-3.242-12.643-8.166-17.512-3.86-3.817-5.991-8.807-6.004-14.05C3.13 12.275 12.974 3.024 25.1 2.94c5.944-.039 11.528 2.081 15.74 5.973 4.213 3.893 6.533 9.08 6.533 14.604 0 5.307-2.165 10.346-6.097 14.188z"/><path id="b" d="M10.83 6.479C8.667 3.586 5.667 1.38 2.155.101 1.343-.194.427.18.109.935c-.318.756.083 1.608.895 1.904C7.02 5.029 11.06 10.533 11.06 16.534c0 .811.707 1.47 1.58 1.47.872 0 1.579-.658 1.579-1.47 0-3.615-1.172-7.092-3.388-10.055z"/><path id="c" d="M1.71 0h-.136C.702.003-.003.664 0 1.475c.003.81.71 1.465 1.579 1.465h.136c.873-.003 1.577-.664 1.574-1.475C3.286.655 2.58 0 1.71 0z"/></defs></svg>