<svg width="162" height="29" viewBox="0 0 162 29" xmlns="http://www.w3.org/2000/svg" xmlns:xlink="http://www.w3.org/1999/xlink"><title>Group 9</title><desc>Created using Figma</desc><use xlink:href="#a" transform="translate(26 2)"/><use xlink:href="#b" transform="translate(7.04)" fill="#2F79A8"/><use xlink:href="#c" transform="matrix(1 0 0 -1 0 29)" fill="#44A0AB"/><defs><path id="a" d="M1.48 19V4.8h2.76V19H1.48zm15.203 0h-2.68v-5.88c0-.84-.147-1.453-.44-1.84-.294-.387-.7-.58-1.22-.58-.267 0-.54.053-.82.16a3.03 3.03 0 0 0-.8.46 3.56 3.56 0 0 0-.66.68c-.2.267-.347.56-.44.88V19h-2.68V8.52h2.42v1.94c.386-.667.946-1.187 1.68-1.56.733-.373 1.56-.56 2.48-.56.653 0 1.186.12 1.6.36a2.6 2.6 0 0 1 .96.94c.226.387.38.827.46 1.32.093.493.14.993.14 1.5V19zm8.512-.54c-.36.16-.8.32-1.32.48-.52.16-1.066.24-1.64.24-.373 0-.726-.047-1.06-.14a2.505 2.505 0 0 1-.86-.44 2.38 2.38 0 0 1-.58-.8c-.146-.333-.22-.733-.22-1.2v-6.02h-1.38V8.52h1.38v-3.4h2.68v3.4h2.2v2.06h-2.2v5.12c0 .373.094.64.28.8.2.147.44.22.72.22.28 0 .554-.047.82-.14.267-.093.48-.173.64-.24l.54 2.12zm6.002.74c-.84 0-1.6-.14-2.28-.42a5.354 5.354 0 0 1-1.74-1.18 5.328 5.328 0 0 1-1.12-1.72 5.649 5.649 0 0 1-.38-2.06c0-.747.127-1.447.38-2.1a5.022 5.022 0 0 1 1.1-1.74 5.203 5.203 0 0 1 1.74-1.2c.694-.293 1.467-.44 2.32-.44.854 0 1.614.147 2.28.44a5.13 5.13 0 0 1 1.72 1.18c.48.493.84 1.067 1.08 1.72.254.653.38 1.333.38 2.04 0 .173-.007.34-.02.5 0 .16-.013.293-.04.4h-8.1c.04.413.14.78.3 1.1a2.7 2.7 0 0 0 1.48 1.34c.32.12.654.18 1 .18.534 0 1.034-.127 1.5-.38.48-.267.807-.613.98-1.04l2.3.64c-.386.8-1.006 1.46-1.86 1.98-.84.507-1.846.76-3.02.76zm2.72-6.32c-.067-.787-.36-1.413-.88-1.88-.506-.48-1.127-.72-1.86-.72-.36 0-.7.067-1.02.2-.306.12-.58.293-.82.52-.24.227-.44.5-.6.82-.146.32-.233.673-.26 1.06h5.44zm10.633-2.04c-.813.013-1.54.173-2.18.48-.64.293-1.1.74-1.38 1.34V19h-2.68V8.52h2.46v2.24c.186-.36.406-.68.66-.96.253-.293.526-.547.82-.76.293-.213.587-.373.88-.48.306-.12.6-.18.88-.18h.32c.08 0 .153.007.22.02v2.44zm7.774 7.62c-.36.16-.8.32-1.32.48-.52.16-1.066.24-1.64.24-.373 0-.726-.047-1.06-.14a2.505 2.505 0 0 1-.86-.44 2.38 2.38 0 0 1-.58-.8c-.146-.333-.22-.733-.22-1.2v-6.02h-1.38V8.52h1.38v-3.4h2.68v3.4h2.2v2.06h-2.2v5.12c0 .373.094.64.28.8.2.147.44.22.72.22.28 0 .554-.047.82-.14.267-.093.48-.173.64-.24l.54 2.12zm7.636-7.62c-.813.013-1.54.173-2.18.48-.64.293-1.1.74-1.38 1.34V19h-2.68V8.52h2.46v2.24c.187-.36.407-.68.66-.96.253-.293.527-.547.82-.76a3.59 3.59 0 0 1 .88-.48c.307-.12.6-.18.88-.18h.32c.08 0 .153.007.22.02v2.44zm4.218 8.36c-.507 0-.98-.08-1.42-.24a3.643 3.643 0 0 1-1.14-.7 3.514 3.514 0 0 1-.76-1.06c-.174-.4-.26-.84-.26-1.32 0-.493.106-.947.32-1.36.226-.427.533-.787.92-1.08.4-.293.873-.52 1.42-.68a5.931 5.931 0 0 1 1.8-.26c.466 0 .92.04 1.36.12.453.08.853.193 1.2.34v-.6c0-.693-.2-1.227-.6-1.6-.387-.373-.967-.56-1.74-.56-.56 0-1.107.1-1.64.3-.534.2-1.08.493-1.64.88l-.82-1.7c1.346-.893 2.8-1.34 4.36-1.34 1.506 0 2.673.373 3.5 1.12.84.733 1.26 1.8 1.26 3.2v3.26c0 .28.046.48.14.6.106.12.273.187.5.2V19a5.97 5.97 0 0 1-1.18.14c-.507 0-.9-.113-1.18-.34a1.481 1.481 0 0 1-.5-.9l-.06-.58a4.64 4.64 0 0 1-1.7 1.4c-.667.32-1.38.48-2.14.48zm.76-1.96c.453 0 .88-.08 1.28-.24.413-.16.733-.373.96-.64.293-.227.44-.48.44-.76v-1.2a5.927 5.927 0 0 0-1.04-.28 5.153 5.153 0 0 0-1.08-.12c-.694 0-1.26.16-1.7.48-.44.307-.66.7-.66 1.18 0 .453.173.833.52 1.14.346.293.773.44 1.28.44zm12.204 1.96c-.72 0-1.387-.14-2-.42a4.717 4.717 0 0 1-1.58-1.16 5.598 5.598 0 0 1-1.04-1.72 6.27 6.27 0 0 1-.36-2.14c0-.76.113-1.467.34-2.12.24-.653.567-1.227.98-1.72.413-.493.907-.88 1.48-1.16.573-.28 1.2-.42 1.88-.42.773 0 1.467.187 2.08.56.627.373 1.113.86 1.46 1.46V4.4h2.68v11.52c0 .28.047.48.14.6.093.12.253.187.48.2V19c-.467.093-.847.14-1.14.14-.48 0-.873-.12-1.18-.36a1.321 1.321 0 0 1-.52-.94l-.06-.66a3.851 3.851 0 0 1-1.58 1.52c-.653.333-1.34.5-2.06.5zm.7-2.28c.253 0 .513-.04.78-.12a2.985 2.985 0 0 0 1.34-.94c.187-.213.327-.447.42-.7v-2.5a2.66 2.66 0 0 0-.46-.8 2.73 2.73 0 0 0-.66-.64 3.01 3.01 0 0 0-.78-.44 2.139 2.139 0 0 0-.8-.16c-.4 0-.773.087-1.12.26-.333.173-.62.413-.86.72-.24.293-.427.633-.56 1.02-.133.387-.2.787-.2 1.2 0 .44.073.847.22 1.22.147.373.347.7.6.98s.553.5.9.66c.36.16.753.24 1.18.24zm12.71 2.28c-.84 0-1.6-.14-2.28-.42a5.354 5.354 0 0 1-1.74-1.18 5.326 5.326 0 0 1-1.12-1.72 5.646 5.646 0 0 1-.38-2.06c0-.747.127-1.447.38-2.1a5.022 5.022 0 0 1 1.1-1.74 5.203 5.203 0 0 1 1.74-1.2c.694-.293 1.467-.44 2.32-.44.854 0 1.614.147 2.28.44a5.13 5.13 0 0 1 1.72 1.18c.48.493.84 1.067 1.08 1.72.254.653.38 1.333.38 2.04 0 .173-.006.34-.02.5 0 .16-.013.293-.04.4h-8.1c.04.413.14.78.3 1.1a2.7 2.7 0 0 0 1.48 1.34c.32.12.654.18 1 .18.534 0 1.034-.127 1.5-.38.48-.267.807-.613.98-1.04l2.3.64c-.386.8-1.006 1.46-1.86 1.98-.84.507-1.846.76-3.02.76zm2.72-6.32c-.066-.787-.36-1.413-.88-1.88-.506-.48-1.126-.72-1.86-.72-.36 0-.7.067-1.02.2-.306.12-.58.293-.82.52-.24.227-.44.5-.6.82-.146.32-.233.673-.26 1.06h5.44zM102.73 19V4.8h2.76V19h-2.76zm8.483-9.1V19h-2.76V4.8h2.14l7.4 9.32v-9.3h2.76V19h-2.24l-7.3-9.1zm11.634 1.9c0-.867.153-1.72.46-2.56.32-.853.78-1.613 1.38-2.28a6.933 6.933 0 0 1 2.2-1.62c.866-.413 1.853-.62 2.96-.62 1.306 0 2.433.287 3.38.86.96.573 1.673 1.32 2.14 2.24l-2.12 1.46a3.495 3.495 0 0 0-.68-1c-.267-.28-.554-.5-.86-.66a3.595 3.595 0 0 0-.96-.34c-.334-.08-.66-.12-.98-.12-.694 0-1.3.14-1.82.42a4.06 4.06 0 0 0-1.28 1.1c-.334.44-.587.947-.76 1.52a5.634 5.634 0 0 0 .04 3.5c.2.573.48 1.08.84 1.52.373.44.813.793 1.32 1.06.52.267 1.086.4 1.7.4.32 0 .653-.04 1-.12.346-.08.673-.207.98-.38.32-.173.613-.393.88-.66.266-.28.48-.613.64-1l2.26 1.3a4.321 4.321 0 0 1-.98 1.42c-.414.4-.887.74-1.42 1.02-.52.28-1.08.493-1.68.64-.6.147-1.187.22-1.76.22-1.014 0-1.94-.213-2.78-.64a7.445 7.445 0 0 1-2.18-1.66 8.19 8.19 0 0 1-1.42-2.34 7.496 7.496 0 0 1-.5-2.68z"/><path id="b" d="M6.4 21.435l-4.48-3.152V5.043L0 3.783 5.12 0l3.84 8.826-2.56-1.26v13.869z"/><path id="c" d="M5.76 21.435l-4.48-3.152V5.043L0 3.783 4.48 0l3.84 8.826-2.56-1.26v13.869z"/></defs></svg>