<svg width="71" height="60" viewBox="0 0 71 60" xmlns="http://www.w3.org/2000/svg" xmlns:xlink="http://www.w3.org/1999/xlink"><title>money</title><desc>Created using Figma</desc><use xlink:href="#a" transform="translate(48.243 19.192)" fill="#333"/><use xlink:href="#b" transform="translate(16.607 19.192)" fill="#333"/><use xlink:href="#c" transform="translate(.789 .42)" fill="#333"/><use xlink:href="#d" transform="translate(.789 45.786)" fill="#333"/><use xlink:href="#e" transform="translate(.789 53.608)" fill="#333"/><use xlink:href="#f" transform="translate(7.116 6.677)" fill="#333"/><use xlink:href="#g" transform="translate(26.098 12.935)" fill="#333"/><defs><path id="a" d="M3.164 6.257c1.747 0 3.163-1.4 3.163-3.128C6.327 1.4 4.911 0 3.164 0 1.416 0 0 1.4 0 3.129c0 1.728 1.416 3.128 3.164 3.128z"/><path id="b" d="M3.164 6.257c1.747 0 3.163-1.4 3.163-3.128C6.327 1.4 4.911 0 3.164 0 1.416 0 0 1.4 0 3.129c0 1.728 1.416 3.128 3.164 3.128z"/><path id="c" d="M64.854 0H4.745C2.056 0 0 2.034 0 4.693v34.416c0 2.659 2.056 4.693 4.745 4.693H64.854c2.69 0 4.746-2.034 4.746-4.693V4.693C69.6 2.033 67.543 0 64.854 0zm1.582 39.109c0 .938-.633 1.564-1.582 1.564H4.745c-.949 0-1.581-.626-1.581-1.564V4.693c0-.939.632-1.564 1.581-1.564H64.854c.95 0 1.582.626 1.582 1.564v34.416z"/><path id="d" d="M68.018 0c-.95 0-1.582.626-1.582 1.564 0 .939-.633 1.565-1.582 1.565H4.745c-.949 0-1.581-.626-1.581-1.565C3.164.626 2.53 0 1.582 0 .632 0 0 .626 0 1.564c0 2.66 2.056 4.693 4.745 4.693H64.854c2.69 0 4.746-2.033 4.746-4.693C69.6.626 68.967 0 68.018 0z"/><path id="e" d="M68.018 0c-.95 0-1.582.626-1.582 1.564 0 .939-.633 1.565-1.582 1.565H4.745c-.949 0-1.581-.626-1.581-1.565C3.164.626 2.53 0 1.582 0 .632 0 0 .626 0 1.564c0 2.66 2.056 4.693 4.745 4.693H64.854c2.69 0 4.746-2.033 4.746-4.693C69.6.626 68.967 0 68.018 0z"/><path id="f" d="M55.363 3.129c-.95 0-1.582-.626-1.582-1.565C53.781.626 53.148 0 52.2 0H4.745c-.949 0-1.581.626-1.581 1.564 0 .939-.633 1.565-1.582 1.565C.632 3.129 0 3.754 0 4.693v21.9c0 .94.633 1.565 1.582 1.565.949 0 1.582.626 1.582 1.564 0 .939.632 1.565 1.581 1.565H52.2c.95 0 1.582-.626 1.582-1.565 0-.938.633-1.564 1.582-1.564.949 0 1.582-.626 1.582-1.564V4.693c0-.939-.633-1.564-1.582-1.564zm-1.74 22.213c-1.265.47-2.215 1.408-2.689 2.816H6.011c-.475-1.408-1.582-2.346-2.847-2.816V5.944C4.587 5.475 5.536 4.38 6.01 3.13h44.765c.474 1.408 1.582 2.346 2.847 2.815v19.398z"/><path id="g" d="M9.49 0C4.27 0 0 4.224 0 9.386c0 5.162 4.27 9.386 9.49 9.386 5.22 0 9.492-4.224 9.492-9.386C18.982 4.224 14.71 0 9.49 0zm0 15.643c-3.48 0-6.326-2.815-6.326-6.257 0-3.441 2.847-6.257 6.327-6.257s6.327 2.816 6.327 6.257c0 3.442-2.847 6.258-6.327 6.258z"/></defs></svg>