<svg width="65" height="66" viewBox="0 0 65 66" xmlns="http://www.w3.org/2000/svg" xmlns:xlink="http://www.w3.org/1999/xlink"><title>Group</title><desc>Created using Figma</desc><use xlink:href="#a" transform="translate(8.055 27.661)" fill="#333"/><use xlink:href="#b" transform="translate(36.786 18.871)" fill="#333"/><use xlink:href="#c" transform="translate(13.378 36.342)" fill="#333"/><use xlink:href="#d" transform="translate(13.378 41.767)" fill="#333"/><use xlink:href="#e" transform="translate(13.378 47.193)" fill="#333"/><use xlink:href="#f" transform="translate(.603 .533)" fill="#333"/><use xlink:href="#g" transform="translate(36.801 41.767)" fill="#333"/><use xlink:href="#h" transform="translate(34.671 47.193)" fill="#333"/><defs><path id="a" d="M12.03.977C11.499.326 10.648 0 9.796 0H3.194C1.384 0 0 1.41 0 3.255v22.788c0 1.844 1.384 3.255 3.194 3.255H13.84c1.81 0 3.194-1.41 3.194-3.255V7.379c0-.868-.319-1.628-.958-2.279L12.031.977zm2.875 25.066c0 .65-.426 1.085-1.064 1.085H3.194c-.639 0-1.065-.434-1.065-1.085V3.255c0-.65.426-1.085 1.065-1.085h6.6c.32 0 .533.109.746.326l4.046 4.123c.213.217.32.434.32.76v18.664z"/><path id="b" d="M5.019 18.447c.532.108.958.108 1.384.108 1.49 0 2.874-.542 3.939-1.519 1.49-1.302 2.342-3.147 2.342-5.1 0-.976-.32-1.953-.852-2.821l-.532-.868c-.745-1.194-1.49-2.387-2.13-3.69L7.255.651C7.041.217 6.722 0 6.296 0c-.426 0-.745.326-.958.651l-1.49 3.147C3.101 5.426 2.25 7.162 1.078 8.68.44 9.549.121 10.526.015 11.61c-.213 3.255 1.916 6.185 5.004 6.836zm-2.768-6.62c0-.65.213-1.193.638-1.735C4.061 8.356 5.02 6.51 5.87 4.775l.533-1.194.958 1.953C8 6.944 8.85 8.14 9.597 9.441l.639.976c.425.543.532 1.085.532 1.736 0 1.303-.639 2.496-1.597 3.364-1.065.868-2.342 1.194-3.62.868-2.023-.434-3.407-2.387-3.3-4.557z"/><path id="c" d="M4.259 0H1.065C.425 0 0 .434 0 1.085S.426 2.17 1.065 2.17h3.194c.638 0 1.064-.434 1.064-1.085S4.897 0 4.26 0z"/><path id="d" d="M4.259 0H1.065C.425 0 0 .434 0 1.085S.426 2.17 1.065 2.17h3.194c.638 0 1.064-.434 1.064-1.085S4.897 0 4.26 0z"/><path id="e" d="M4.259 0H1.065C.425 0 0 .434 0 1.085S.426 2.17 1.065 2.17h3.194c.638 0 1.064-.434 1.064-1.085S4.897 0 4.26 0z"/><path id="f" d="M62.282 16.494l-8.198-8.356c-.958-1.085-2.342-1.627-3.726-1.627H37.263V3.255C37.263 1.411 35.879 0 34.069 0H29.81C28 0 26.616 1.41 26.616 3.255v3.256c-2.98 0-5.323 2.387-5.323 5.425v6.834a5.206 5.206 0 0 0-1.81-.323h-8.837v-3.255c0-1.845-1.384-3.256-3.193-3.256h-2.13c-1.81 0-3.194 1.41-3.194 3.256v3.472C.852 19.098 0 20.291 0 21.702v40.15c0 1.844 1.384 3.255 3.194 3.255H58.556c2.98 0 5.323-2.388 5.323-5.426v-39.39c0-1.41-.639-2.82-1.597-3.797zM29.81 26.26v-9.983c0-.651.426-1.085 1.065-1.085h16.928c.852 0 1.597.325 2.236.976l4.365 4.45c.638.542.958 1.41.958 2.278V55.34c0 .65-.426 1.085-1.065 1.085H33.004c-.639 0-1.064-.434-1.064-1.085V30.166c0-.868-.32-1.628-.959-2.279l-.639-.65-.212-.218c-.213-.217-.32-.434-.32-.76zM2.13 61.85V21.702c0-.65.425-1.085 1.064-1.085s1.065-.434 1.065-1.085v-4.34c0-.651.425-1.085 1.064-1.085h2.13c.638 0 1.064.434 1.064 1.085v4.34c0 .651.426 1.085 1.065 1.085h9.901c.852 0 1.597.326 2.236.977l7.133 7.27c.639.542.958 1.41.958 2.279V61.85c0 .651-.426 1.085-1.065 1.085H3.194c-.639 0-1.065-.434-1.065-1.085zm59.62-2.17c0 1.845-1.384 3.255-3.194 3.255H31.768a3.46 3.46 0 0 0 .171-1.085v-3.43c.331.113.689.175 1.065.175h21.293c1.81 0 3.194-1.41 3.194-3.255V22.896c0-1.41-.639-2.822-1.597-3.798l-4.365-4.449c-.958-1.085-2.342-1.628-3.726-1.628H30.875c-1.81 0-3.194 1.41-3.194 3.256v8.246l-4.259-4.34v-8.247c0-1.845 1.384-3.255 3.194-3.255h1.065c.639 0 1.064-.434 1.064-1.085v-4.34c0-.652.426-1.086 1.065-1.086h4.259c.638 0 1.064.434 1.064 1.085v4.34c0 .652.426 1.086 1.065 1.086h14.16c.851 0 1.703.325 2.235.976l8.198 8.356c.639.542.958 1.41.958 2.278v39.39z"/><path id="g" d="M11.711 0H1.065C.425 0 0 .434 0 1.085S.426 2.17 1.065 2.17H11.71c.639 0 1.065-.434 1.065-1.085S12.35 0 11.71 0z"/><path id="h" d="M1.065 2.17H15.97c.639 0 1.064-.434 1.064-1.085S16.61 0 15.97 0H1.065C.425 0 0 .434 0 1.085S.426 2.17 1.065 2.17z"/></defs></svg>