<svg width="78" height="65" viewBox="0 0 78 65" xmlns="http://www.w3.org/2000/svg" xmlns:xlink="http://www.w3.org/1999/xlink"><title>apartment</title><desc>Created using Figma</desc><use xlink:href="#a" transform="translate(.975 .533)" fill="#333"/><use xlink:href="#b" transform="translate(41.654 28.337)" fill="#333"/><use xlink:href="#c" transform="translate(41.654 47.586)" fill="#333"/><use xlink:href="#d" transform="translate(41.654 34.753)" fill="#333"/><use xlink:href="#e" transform="translate(41.654 41.169)" fill="#333"/><use xlink:href="#f" transform="translate(41.654 21.921)" fill="#333"/><use xlink:href="#g" transform="translate(49.282 28.337)" fill="#333"/><use xlink:href="#h" transform="translate(49.282 21.921)" fill="#333"/><use xlink:href="#i" transform="translate(49.282 34.753)" fill="#333"/><use xlink:href="#j" transform="translate(49.282 41.169)" fill="#333"/><use xlink:href="#k" transform="translate(49.282 47.586)" fill="#333"/><use xlink:href="#l" transform="translate(56.909 34.753)" fill="#333"/><use xlink:href="#m" transform="translate(56.909 28.337)" fill="#333"/><use xlink:href="#n" transform="translate(56.909 47.586)" fill="#333"/><use xlink:href="#o" transform="translate(56.909 41.169)" fill="#333"/><use xlink:href="#p" transform="translate(56.909 21.921)" fill="#333"/><use xlink:href="#q" transform="translate(13.688 36.892)" fill="#333"/><use xlink:href="#r" transform="translate(13.688 43.308)" fill="#333"/><use xlink:href="#s" transform="translate(13.688 49.725)" fill="#333"/><use xlink:href="#t" transform="translate(13.688 4.81)" fill="#333"/><use xlink:href="#u" transform="translate(13.688 11.227)" fill="#333"/><use xlink:href="#v" transform="translate(13.688 17.643)" fill="#333"/><use xlink:href="#w" transform="translate(13.688 24.059)" fill="#333"/><use xlink:href="#x" transform="translate(13.688 30.476)" fill="#333"/><use xlink:href="#y" transform="translate(21.315 11.227)" fill="#333"/><use xlink:href="#z" transform="translate(21.315 4.81)" fill="#333"/><use xlink:href="#A" transform="translate(21.315 24.059)" fill="#333"/><use xlink:href="#B" transform="translate(21.315 17.643)" fill="#333"/><use xlink:href="#C" transform="translate(21.315 30.476)" fill="#333"/><use xlink:href="#D" transform="translate(21.315 36.892)" fill="#333"/><use xlink:href="#E" transform="translate(21.315 43.308)" fill="#333"/><use xlink:href="#F" transform="translate(28.942 17.643)" fill="#333"/><use xlink:href="#G" transform="translate(28.942 11.227)" fill="#333"/><use xlink:href="#H" transform="translate(28.942 4.81)" fill="#333"/><use xlink:href="#I" transform="translate(28.942 43.308)" fill="#333"/><use xlink:href="#J" transform="translate(28.942 36.892)" fill="#333"/><use xlink:href="#K" transform="translate(28.942 30.476)" fill="#333"/><use xlink:href="#L" transform="translate(28.942 24.059)" fill="#333"/><use xlink:href="#M" transform="translate(36.57 11.227)" fill="#333"/><use xlink:href="#N" transform="translate(36.57 4.81)" fill="#333"/><defs><path id="a" d="M75.002 62.024H69.84c.054-.351.079-.71.079-1.07 0-3.018-2.065-5.587-5.085-6.777V18.18c0-.641-.509-1.069-1.272-1.069H44.493V1.07c0-.642-.508-1.07-1.271-1.07H8.899c-.763 0-1.272.428-1.272 1.07v60.954H1.271c-.763 0-1.271.428-1.271 1.07 0 .641.508 1.069 1.271 1.069h73.731c.763 0 1.272-.428 1.272-1.07 0-.641-.509-1.069-1.272-1.069zm-12.712-8.48a10.897 10.897 0 0 0-1.271-.075c-.96 0-1.901.137-2.79.395-.222-.249-.58-.395-1.024-.395-.763 0-1.271.428-1.271 1.07v.327a8.611 8.611 0 0 0-1.526 1.17 8.22 8.22 0 0 0-3.944-2.3c-.22-.17-.524-.267-.886-.267-.142 0-.275.015-.397.043a8.937 8.937 0 0 0-.874-.043c-.797 0-1.694.087-2.421.335-.09.026-.18.052-.268.08a8.574 8.574 0 0 0-2.989-1.271l-.034-.007a9.112 9.112 0 0 0-.518-.096l-.101-.016a8.548 8.548 0 0 0-.586-.066l-.168-.01c-.06-.004-.12-.008-.18-.01a8.943 8.943 0 0 0-.642-.004l-.18.008-.073.003c-1.158.065-2.296.34-3.282.827V19.249H62.29v34.296zM10.17 2.14h31.78V17.11h-6.356c-.763 0-1.27.428-1.27 1.07v33.257a9.299 9.299 0 0 0-2.432-1.464l-.087-.036a10.093 10.093 0 0 0-2.926-.704l-.043-.004a9.991 9.991 0 0 0-.87-.037 9.754 9.754 0 0 0-5.084 1.403v-.334c0-.642-.508-1.07-1.271-1.07-.763 0-1.271.428-1.271 1.07V52.4c0 .16.031.307.091.438a6.974 6.974 0 0 0-1.235 2.877 9.672 9.672 0 0 0-3.941 1.246v-.283c0-.642-.509-1.07-1.271-1.07-.763 0-1.271.428-1.271 1.07v2.138c0 .125.02.242.056.349a6.754 6.754 0 0 0-1.236 2.86H10.17V2.139zm9.591 55.63l.076-.005a7.834 7.834 0 0 1 .503-.017c.762 0 1.27-.428 1.27-1.07 0-2.994 2.797-5.347 6.357-5.347 3.178 0 5.848 1.925 6.229 4.599a1.184 1.184 0 0 0 .623.715l.06.03a1.45 1.45 0 0 0 .334.11c.076.021.162.03.253.027.417.005.806-.187 1.018-.454l.128-.107c1.017-1.07 2.415-1.711 4.067-1.711.859 0 1.717.202 2.487.58-1.516 1.2-2.376 2.763-2.476 4.436a5.408 5.408 0 0 0 .428 2.47H14.11c.595-2.303 2.86-4.043 5.65-4.256zm24.357 4.255c-.485-.69-.77-1.508-.77-2.245 0-1.183.555-2.248 1.508-3.027.182-.142.376-.273.58-.392a1.48 1.48 0 0 0 .582-.11c2.797-1.284 6.102-.107 7.12 2.245.126.321.508.642 1.143.642.121 0 .255-.032.389-.09.319-.044.57-.24.755-.552.493-.88 1.256-1.583 2.184-2.076.2-.047.373-.13.51-.243a7.461 7.461 0 0 1 2.9-.568c3.56 0 6.356 2.353 6.356 5.347 0 .32 0 .748-.127 1.07h-23.13z"/><path id="b" d="M1.271 0C.508 0 0 .428 0 1.07v2.138c0 .642.508 1.07 1.271 1.07.763 0 1.271-.428 1.271-1.07V1.07C2.542.428 2.034 0 1.272 0z"/><path id="c" d="M1.271 0C.508 0 0 .428 0 1.07v2.138c0 .642.508 1.07 1.271 1.07.763 0 1.271-.428 1.271-1.07V1.07C2.542.428 2.034 0 1.272 0z"/><path id="d" d="M1.271 0C.508 0 0 .428 0 1.07v2.138c0 .642.508 1.07 1.271 1.07.763 0 1.271-.428 1.271-1.07V1.07C2.542.428 2.034 0 1.272 0z"/><path id="e" d="M1.271 0C.508 0 0 .428 0 1.07v2.138c0 .642.508 1.07 1.271 1.07.763 0 1.271-.428 1.271-1.07V1.07C2.542.428 2.034 0 1.272 0z"/><path id="f" d="M1.271 0C.508 0 0 .428 0 1.07v2.138c0 .642.508 1.07 1.271 1.07.763 0 1.271-.428 1.271-1.07V1.07C2.542.428 2.034 0 1.272 0z"/><path id="g" d="M1.271 4.278c.763 0 1.271-.428 1.271-1.07V1.07C2.542.428 2.034 0 1.272 0 .507 0 0 .428 0 1.07v2.138c0 .642.508 1.07 1.271 1.07z"/><path id="h" d="M1.271 4.277c.763 0 1.271-.427 1.271-1.069V1.07C2.542.428 2.034 0 1.272 0 .507 0 0 .428 0 1.07v2.138c0 .642.508 1.07 1.271 1.07z"/><path id="i" d="M1.271 4.277c.763 0 1.271-.427 1.271-1.069V1.07C2.542.428 2.034 0 1.272 0 .507 0 0 .428 0 1.07v2.138c0 .642.508 1.07 1.271 1.07z"/><path id="j" d="M1.271 4.277c.763 0 1.271-.427 1.271-1.069V1.07C2.542.428 2.034 0 1.272 0 .507 0 0 .428 0 1.07v2.138c0 .642.508 1.07 1.271 1.07z"/><path id="k" d="M1.271 4.277c.763 0 1.271-.427 1.271-1.069V1.07C2.542.428 2.034 0 1.272 0 .507 0 0 .428 0 1.07v2.138c0 .642.508 1.07 1.271 1.07z"/><path id="l" d="M1.271 4.277c.763 0 1.271-.427 1.271-1.069V1.07C2.542.428 2.034 0 1.272 0 .507 0 0 .428 0 1.07v2.138c0 .642.508 1.07 1.271 1.07z"/><path id="m" d="M1.271 4.278c.763 0 1.271-.428 1.271-1.07V1.07C2.542.428 2.034 0 1.272 0 .507 0 0 .428 0 1.07v2.138c0 .642.508 1.07 1.271 1.07z"/><path id="n" d="M1.271 4.277c.763 0 1.271-.427 1.271-1.069V1.07C2.542.428 2.034 0 1.272 0 .507 0 0 .428 0 1.07v2.138c0 .642.508 1.07 1.271 1.07z"/><path id="o" d="M1.271 4.277c.763 0 1.271-.427 1.271-1.069V1.07C2.542.428 2.034 0 1.272 0 .507 0 0 .428 0 1.07v2.138c0 .642.508 1.07 1.271 1.07z"/><path id="p" d="M1.271 4.277c.763 0 1.271-.427 1.271-1.069V1.07C2.542.428 2.034 0 1.272 0 .507 0 0 .428 0 1.07v2.138c0 .642.508 1.07 1.271 1.07z"/><path id="q" d="M1.271 4.277c.763 0 1.271-.427 1.271-1.069V1.07C2.542.428 2.034 0 1.272 0 .507 0 0 .428 0 1.07v2.138c0 .642.508 1.07 1.271 1.07z"/><path id="r" d="M1.271 4.277c.763 0 1.271-.427 1.271-1.069V1.07C2.542.428 2.034 0 1.272 0 .507 0 0 .428 0 1.07v2.138c0 .642.508 1.07 1.271 1.07z"/><path id="s" d="M1.271 4.278c.763 0 1.271-.428 1.271-1.07V1.07C2.542.428 2.034 0 1.272 0 .507 0 0 .428 0 1.07v2.138c0 .642.508 1.07 1.271 1.07z"/><path id="t" d="M1.271 4.277c.763 0 1.271-.427 1.271-1.069V1.07C2.542.428 2.034 0 1.272 0 .507 0 0 .428 0 1.07v2.138c0 .642.508 1.07 1.271 1.07z"/><path id="u" d="M1.271 4.277c.763 0 1.271-.427 1.271-1.069V1.07C2.542.428 2.034 0 1.272 0 .507 0 0 .428 0 1.07v2.138c0 .642.508 1.07 1.271 1.07z"/><path id="v" d="M1.271 4.277c.763 0 1.271-.427 1.271-1.069V1.07C2.542.428 2.034 0 1.272 0 .507 0 0 .428 0 1.07v2.138c0 .642.508 1.07 1.271 1.07z"/><path id="w" d="M1.271 4.277c.763 0 1.271-.427 1.271-1.069V1.07C2.542.428 2.034 0 1.272 0 .507 0 0 .428 0 1.07v2.138c0 .642.508 1.07 1.271 1.07z"/><path id="x" d="M1.271 4.277c.763 0 1.271-.427 1.271-1.069V1.07C2.542.428 2.034 0 1.272 0 .507 0 0 .428 0 1.07v2.138c0 .642.508 1.07 1.271 1.07z"/><path id="y" d="M1.271 4.277c.763 0 1.271-.427 1.271-1.069V1.07C2.542.428 2.034 0 1.272 0 .507 0 0 .428 0 1.07v2.138c0 .642.508 1.07 1.271 1.07z"/><path id="z" d="M1.271 4.277c.763 0 1.271-.427 1.271-1.069V1.07C2.542.428 2.034 0 1.272 0 .507 0 0 .428 0 1.07v2.138c0 .642.508 1.07 1.271 1.07z"/><path id="A" d="M1.271 4.277c.763 0 1.271-.427 1.271-1.069V1.07C2.542.428 2.034 0 1.272 0 .507 0 0 .428 0 1.07v2.138c0 .642.508 1.07 1.271 1.07z"/><path id="B" d="M1.271 4.277c.763 0 1.271-.427 1.271-1.069V1.07C2.542.428 2.034 0 1.272 0 .507 0 0 .428 0 1.07v2.138c0 .642.508 1.07 1.271 1.07z"/><path id="C" d="M1.271 4.277c.763 0 1.271-.427 1.271-1.069V1.07C2.542.428 2.034 0 1.272 0 .507 0 0 .428 0 1.07v2.138c0 .642.508 1.07 1.271 1.07z"/><path id="D" d="M1.271 4.277c.763 0 1.271-.427 1.271-1.069V1.07C2.542.428 2.034 0 1.272 0 .507 0 0 .428 0 1.07v2.138c0 .642.508 1.07 1.271 1.07z"/><path id="E" d="M1.271 4.277c.763 0 1.271-.427 1.271-1.069V1.07C2.542.428 2.034 0 1.272 0 .507 0 0 .428 0 1.07v2.138c0 .642.508 1.07 1.271 1.07z"/><path id="F" d="M1.271 4.277c.763 0 1.271-.427 1.271-1.069V1.07C2.542.428 2.034 0 1.272 0 .507 0 0 .428 0 1.07v2.138c0 .642.508 1.07 1.271 1.07z"/><path id="G" d="M1.271 4.277c.763 0 1.271-.427 1.271-1.069V1.07C2.542.428 2.034 0 1.272 0 .507 0 0 .428 0 1.07v2.138c0 .642.508 1.07 1.271 1.07z"/><path id="H" d="M1.271 4.277c.763 0 1.271-.427 1.271-1.069V1.07C2.542.428 2.034 0 1.272 0 .507 0 0 .428 0 1.07v2.138c0 .642.508 1.07 1.271 1.07z"/><path id="I" d="M1.271 4.277c.763 0 1.271-.427 1.271-1.069V1.07C2.542.428 2.034 0 1.272 0 .507 0 0 .428 0 1.07v2.138c0 .642.508 1.07 1.271 1.07z"/><path id="J" d="M1.271 4.277c.763 0 1.271-.427 1.271-1.069V1.07C2.542.428 2.034 0 1.272 0 .507 0 0 .428 0 1.07v2.138c0 .642.508 1.07 1.271 1.07z"/><path id="K" d="M1.271 4.277c.763 0 1.271-.427 1.271-1.069V1.07C2.542.428 2.034 0 1.272 0 .507 0 0 .428 0 1.07v2.138c0 .642.508 1.07 1.271 1.07z"/><path id="L" d="M1.271 4.277c.763 0 1.271-.427 1.271-1.069V1.07C2.542.428 2.034 0 1.272 0 .507 0 0 .428 0 1.07v2.138c0 .642.508 1.07 1.271 1.07z"/><path id="M" d="M1.271 4.277c.763 0 1.271-.427 1.271-1.069V1.07C2.542.428 2.034 0 1.272 0 .507 0 0 .428 0 1.07v2.138c0 .642.508 1.07 1.271 1.07z"/><path id="N" d="M1.271 4.277c.763 0 1.271-.427 1.271-1.069V1.07C2.542.428 2.034 0 1.272 0 .507 0 0 .428 0 1.07v2.138c0 .642.508 1.07 1.271 1.07z"/></defs></svg>