<svg width="69" height="69" viewBox="0 0 69 69" xmlns="http://www.w3.org/2000/svg" xmlns:xlink="http://www.w3.org/1999/xlink"><title>travel</title><desc>Created using Figma</desc><use xlink:href="#a" transform="translate(6.384 5.345)" fill="#333"/><use xlink:href="#b" transform="translate(6.383 36.879)" fill="#333"/><use xlink:href="#c" transform="translate(.742 .646)" fill="#333"/><use xlink:href="#d" transform="translate(5.255 23.292)" fill="#333"/><use xlink:href="#e" transform="translate(5.255 18.762)" fill="#333"/><use xlink:href="#f" transform="translate(48.127 11.969)" fill="#333"/><use xlink:href="#g" transform="translate(41.358 7.439)" fill="#333"/><use xlink:href="#h" transform="translate(42.486 42.54)" fill="#333"/><use xlink:href="#i" transform="translate(42.622 48.202)" fill="#333"/><use xlink:href="#j" transform="translate(42.486 53.863)" fill="#333"/><use xlink:href="#k" transform="translate(46.999 59.525)" fill="#333"/><use xlink:href="#k" transform="translate(51.512 59.525)" fill="#333"/><use xlink:href="#l" transform="translate(56.025 59.525)" fill="#333"/><use xlink:href="#m" transform="translate(45.871 36.879)" fill="#333"/><defs><path id="a" d="M26.852 2.537L24.74 1.38a2.255 2.255 0 0 0-2.056-.057L17.856 3.64 11.992.158a1.119 1.119 0 0 0-.83-.128L6.649 1.088a1.129 1.129 0 0 0-.828.79c-.113.393-.005.818.282 1.109l4.216 4.27L7.12 8.792 1.522 6.695A1.119 1.119 0 0 0 .29 7c-.31.345-.377.847-.17 1.262l3.383 6.794c.192.384.582.626 1.01.626h3.385c.193 0 .382-.05.55-.144l4.222-2.37-.257 3.564a1.136 1.136 0 0 0 1.126 1.215c.172 0 .345-.04.504-.12l4.513-2.264c.286-.144.5-.404.584-.716l1.404-5.172 6.236-3.124a2.262 2.262 0 0 0 1.248-1.986 2.258 2.258 0 0 0-1.175-2.028zm-17.725.295l2.107-.494 4.173 2.476-2.93 1.407-3.35-3.39zm9.955 5.045a1.13 1.13 0 0 0-.585.716l-1.403 5.172-2.29 1.15.266-3.678a1.133 1.133 0 0 0-1.125-1.216c-.19 0-.38.047-.55.143l-5.793 3.253H5.21L3.418 9.822l3.364 1.26c.285.108.605.091.881-.039l5.061-2.429h.001l5.563-2.669 5.369-2.577 2.113 1.159-6.688 3.35z"/><path id="b" d="M24.21 5.255c-.009-.01-.009-.024-.017-.033-.019-.024-.04-.044-.06-.068-.293-.37-.6-.727-.93-1.064-.017-.017-.032-.036-.048-.053-.34-.345-.698-.67-1.073-.978-.128-.105-.265-.198-.397-.297a13.41 13.41 0 0 0-.727-.527c-.188-.124-.382-.237-.576-.35-.21-.125-.42-.247-.637-.36a13.152 13.152 0 0 0-1.302-.589A13.405 13.405 0 0 0 17.796.7c-.247-.083-.5-.153-.753-.221-.204-.055-.406-.113-.614-.159a13.316 13.316 0 0 0-.912-.157c-.17-.025-.338-.06-.51-.078A13.413 13.413 0 0 0 13.54 0c-.497 0-.985.03-1.468.084-.172.018-.34.053-.51.078-.307.045-.612.092-.912.157-.207.046-.41.104-.614.159-.253.068-.505.138-.753.22a12.58 12.58 0 0 0-.647.238 13.36 13.36 0 0 0-1.302.59c-.216.112-.427.234-.637.358-.193.114-.387.227-.575.351-.25.165-.49.345-.728.527-.132.1-.269.192-.397.297-.375.307-.732.633-1.073.978-.017.017-.032.036-.048.053-.329.337-.637.694-.93 1.064-.02.024-.041.044-.06.068-.008.01-.01.023-.016.033A13.527 13.527 0 0 0 0 13.588c0 3.232 1.135 6.201 3.02 8.536.006.009.007.021.014.03.013.017.03.03.043.048.288.353.595.692.918 1.013.156.157.324.296.485.443.182.164.36.33.55.486.194.158.397.303.599.45.173.125.346.25.525.368.213.14.428.269.647.395a13.283 13.283 0 0 0 1.228.631c.214.096.431.183.65.268.214.082.425.165.642.236.25.083.506.15.762.219.197.052.391.11.592.152.304.066.615.113.925.157.162.024.32.056.484.075.48.05.964.08 1.455.08.49 0 .974-.03 1.453-.082.162-.017.321-.05.484-.074.311-.046.621-.09.925-.157.2-.043.395-.1.592-.152.256-.068.512-.136.762-.219.216-.071.428-.154.642-.237.219-.085.436-.17.65-.267a13.19 13.19 0 0 0 1.229-.632c.218-.127.433-.256.646-.394.179-.117.352-.243.525-.369.202-.147.404-.29.6-.45.189-.153.367-.32.549-.485.162-.147.33-.287.485-.443.323-.322.63-.66.918-1.013.014-.017.03-.03.043-.048.007-.009.008-.021.015-.03a13.54 13.54 0 0 0 3.02-8.536c0-3.14-1.077-6.029-2.868-8.332zM6.403 4.827c.115-.096.239-.18.359-.27.164-.126.327-.255.497-.37.222-.15.454-.286.686-.42.05-.03.1-.062.15-.09a14.046 14.046 0 0 0-1.156 2.36c-.47-.146-.924-.302-1.344-.476.258-.26.528-.503.808-.734zM4.118 7.375c.658.312 1.38.586 2.15.825a22.386 22.386 0 0 0-.599 4.426H2.305c.162-1.928.805-3.72 1.813-5.251zm.153 12.653a11.262 11.262 0 0 1-1.933-5.138h3.34a21.85 21.85 0 0 0 .673 4.39c-.73.217-1.426.465-2.08.748zm3.699 3.395a12.234 12.234 0 0 1-.654-.399c-.09-.06-.178-.126-.266-.19-.202-.142-.4-.289-.592-.444-.096-.078-.19-.162-.283-.244-.118-.102-.232-.208-.346-.314.39-.148.813-.269 1.232-.392a13.81 13.81 0 0 0 1.032 2.053l-.123-.07zm4.44 1.248c-1.23-.524-2.323-1.886-3.127-3.756.998-.175 2.05-.272 3.127-.319v4.075zm0-6.356a26.393 26.393 0 0 0-3.865.436 19.938 19.938 0 0 1-.605-3.861h4.47v3.425zm0-5.69H7.922c.061-1.372.252-2.68.544-3.88 1.249.244 2.574.4 3.944.454v3.426zm0-5.686a24.016 24.016 0 0 1-3.26-.365c.816-2.032 1.963-3.517 3.26-4.07v4.435zm10.55.434a11.275 11.275 0 0 1 1.813 5.252H21.41a22.388 22.388 0 0 0-.598-4.426 16.06 16.06 0 0 0 2.15-.826zm-3.828-3.606c.231.134.464.27.685.42.17.115.333.244.498.37.12.09.243.175.36.27.278.23.549.474.807.734-.418.175-.873.33-1.343.475-.331-.865-.721-1.652-1.157-2.358.05.028.1.06.15.09zm-4.465-1.264c1.297.554 2.445 2.039 3.26 4.071-1.038.19-2.134.315-3.26.365V2.503zm0 6.696c1.37-.055 2.695-.21 3.943-.454.292 1.2.484 2.508.544 3.88h-4.487V9.199zm0 15.472v-4.075c1.077.047 2.129.144 3.127.319-.804 1.87-1.899 3.232-3.127 3.756zm0-6.356V14.89h4.47a19.949 19.949 0 0 1-.605 3.86 26.393 26.393 0 0 0-3.865-.435zm6.235 3.831c-.093.082-.186.166-.283.244-.192.156-.39.302-.592.445-.09.063-.176.128-.266.189a11.264 11.264 0 0 1-.775.469 13.87 13.87 0 0 0 1.03-2.053c.42.123.841.244 1.233.392-.114.106-.228.212-.347.314zm1.905-2.118c-.655-.283-1.35-.53-2.08-.747.356-1.355.59-2.828.673-4.391h3.34a11.288 11.288 0 0 1-1.933 5.138z"/><path id="c" d="M66.564 2.265H38.36V1.132A1.13 1.13 0 0 0 37.231 0H1.128A1.13 1.13 0 0 0 0 1.132v65.673a1.13 1.13 0 0 0 1.128 1.132h36.103a1.13 1.13 0 0 0 1.128-1.132v-1.132h28.205a1.13 1.13 0 0 0 1.129-1.133V3.397a1.13 1.13 0 0 0-1.129-1.132zM36.103 65.673H2.256V2.265h33.847v63.408zm29.333-2.265H38.36V4.53h27.077v58.88z"/><path id="d" d="M23.692 2.265H3.386a1.131 1.131 0 0 1-1.129-1.133V0H0v1.132A3.395 3.395 0 0 0 3.385 4.53h20.307a1.131 1.131 0 0 1 0 2.265h-6.769a3.395 3.395 0 0 0-3.384 3.397v1.132h2.256V10.19c0-.625.507-1.133 1.128-1.133h6.77a3.395 3.395 0 0 0 3.384-3.397 3.395 3.395 0 0 0-3.385-3.396z"/><path id="e" d="M2.256 0H0v2.265h2.256V0z"/><path id="f" d="M3.385 0A3.395 3.395 0 0 0 0 3.397a3.395 3.395 0 0 0 3.385 3.397 3.395 3.395 0 0 0 3.384-3.397A3.395 3.395 0 0 0 3.385 0zm0 4.53a1.131 1.131 0 0 1 0-2.265 1.131 1.131 0 0 1 0 2.264z"/><path id="g" d="M21.436 0H1.128A1.13 1.13 0 0 0 0 1.132V24.91a1.13 1.13 0 0 0 1.128 1.133h20.308a1.13 1.13 0 0 0 1.128-1.133V1.132A1.13 1.13 0 0 0 21.436 0zm-1.128 23.778H2.256v-2.264h18.052v2.264zm-17.071-4.53L5.64 15.63l2.404 3.62H3.237zm8.952 0l3.606-5.789 3.606 5.79h-7.212zm8.119-2.815l-3.556-5.71c-.413-.662-1.5-.662-1.914 0l-4.715 7.571L6.58 12.96c-.419-.63-1.46-.63-1.878 0l-2.446 3.681V2.265h18.052v14.168z"/><path id="h" d="M20.308 0H0v2.265h20.308V0z"/><path id="i" d="M20.308 0H0v2.265h20.308V0z"/><path id="j" d="M20.308 0H0v2.265h20.308V0z"/><path id="k" d="M2.256 0H0v2.265h2.256V0z"/><path id="l" d="M2.256 0H0v2.265h2.256V0z"/><path id="m" d="M13.539 0H0v2.265h13.539V0z"/></defs></svg>