<svg width="75" height="65" viewBox="0 0 75 65" version="1.1" xmlns="http://www.w3.org/2000/svg" xmlns:xlink="http://www.w3.org/1999/xlink">
<title>laptop</title>
<desc>Created using Figma</desc>
<g id="Canvas" transform="translate(-20 -450)">
<g id="laptop">
<g id="Group">
<g id="Group">
<g id="Vector">
<use xlink:href="#path0_fill" transform="translate(28.9278 455.691)" fill="#333333"/>
</g>
</g>
</g>
<g id="Group">
<g id="Group">
<g id="Vector">
<use xlink:href="#path1_fill" transform="translate(28.9278 501.097)" fill="#333333"/>
</g>
</g>
</g>
<g id="Group">
<g id="Group">
<g id="Vector">
<use xlink:href="#path2_fill" transform="translate(20.882 450.646)" fill="#333333"/>
</g>
</g>
</g>
<g id="Group">
<g id="Group">
<g id="Vector">
<use xlink:href="#path3_fill" transform="translate(40.3079 465.095)" fill="#333333"/>
</g>
</g>
</g>
<g id="Group">
<g id="Group">
<g id="Vector">
<use xlink:href="#path4_fill" transform="translate(72.4908 475.872)" fill="#333333"/>
</g>
</g>
</g>
<g id="Group">
<g id="Group">
<g id="Vector">
<use xlink:href="#path5_fill" transform="translate(71.3413 469.565)" fill="#333333"/>
</g>
</g>
</g>
<g id="Group">
<g id="Group">
<g id="Vector">
<use xlink:href="#path6_fill" transform="translate(71.3412 480.916)" fill="#333333"/>
</g>
</g>
</g>
</g>
</g>
<defs>
<path id="path0_fill" d="M 56.2463 -2.01673e-07L 1.07539 -2.01673e-07C 0.481344 -2.01673e-07 -1.48776e-07 0.528201 -1.48776e-07 1.18007C -1.48776e-07 1.83195 0.481344 2.36015 1.07539 2.36015L 56.2462 2.36015C 56.8402 2.36015 57.3216 1.83195 57.3216 1.18007C 57.3216 0.528201 56.8402 -2.01673e-07 56.2463 -2.01673e-07Z"/>
<path id="path1_fill" d="M 56.2463 0L 1.07539 0C 0.481344 0 -1.48776e-07 0.528202 -1.48776e-07 1.18008C -1.48776e-07 1.83195 0.481344 2.36015 1.07539 2.36015L 56.2462 2.36015C 56.8402 2.36015 57.3216 1.83195 57.3216 1.18008C 57.3216 0.528202 56.8402 0 56.2463 0Z"/>
<path id="path2_fill" d="M 71.1883 55.4964L 69.965 55.4964L 69.965 4.96402C 69.965 2.22688 67.9358 -7.2026e-08 65.4414 -7.2026e-08L 7.97179 -7.2026e-08C 5.47746 -7.2026e-08 3.44827 2.22672 3.44827 4.96402L 3.44827 55.4965L 2.22491 55.4965C 0.998105 55.4964 0 56.5916 0 57.9379L 0 60.4604C 0 62.5021 1.51372 64.163 3.37414 64.163L 70.0391 64.163C 71.8997 64.163 73.4132 62.5019 73.4132 60.4604L 73.4132 57.9379C 73.4132 56.5916 72.4151 55.4964 71.1883 55.4964ZM 5.59905 4.96402C 5.59905 3.52827 6.6634 2.36015 7.97179 2.36015L 65.4416 2.36015C 66.75 2.36015 67.8143 3.52827 67.8143 4.96402L 67.8143 55.4965L 5.59905 55.4965L 5.59905 4.96402ZM 71.2627 60.4604C 71.2627 61.2007 70.7137 61.8029 70.0391 61.8029L 3.37414 61.8029C 2.69951 61.8029 2.15078 61.2007 2.15078 60.4604L 2.15078 57.9379C 2.15078 57.893 2.1839 57.8565 2.22491 57.8565L 32.1868 57.8565C 32.1851 57.8834 32.1831 57.9103 32.1831 57.9379C 32.1831 58.5897 32.6644 59.118 33.2585 59.118L 40.155 59.118C 40.7491 59.118 41.2304 58.5897 41.2304 57.9379C 41.2304 57.9105 41.2284 57.8836 41.2267 57.8565L 71.1886 57.8565C 71.2295 57.8565 71.2627 57.8929 71.2627 57.9379L 71.2627 60.4604Z"/>
<path id="path3_fill" d="M 28.0512 8.04986L 25.1386 7.25087L 25.1386 2.44105C 25.1386 1.63702 24.7777 0.884762 24.1734 0.429096C 23.5691 -0.0265705 22.7998 -0.126012 22.1152 0.162871L 8.92142 5.73141L 3.37414 5.73141C 1.51357 5.73141 -6.12607e-07 7.39248 -6.12607e-07 9.43401L -6.12607e-07 14.4791C -6.12607e-07 16.0416 0.887124 17.3803 2.1373 17.9228L 5.54011 29.1251C 5.84323 30.1237 6.6915 30.7945 7.65074 30.7945L 10.9746 30.7945C 11.6878 30.7945 12.3624 30.4156 12.7793 29.7807C 13.1963 29.146 13.3107 28.3237 13.0853 27.5812L 10.4227 18.8153L 22.1153 23.7502C 22.374 23.8592 22.6445 23.9131 22.9139 23.9131C 23.3574 23.9131 23.7973 23.7674 24.1733 23.484C 24.7778 23.0283 25.1386 22.2761 25.1386 21.4714L 25.1386 16.6616L 28.051 15.8626C 29.0432 15.5905 29.7362 14.6166 29.7362 13.4941L 29.7362 10.4185C 29.7362 9.29618 29.0434 8.32238 28.0512 8.04986ZM 2.15063 14.4794L 2.15063 9.43417C 2.15063 8.69387 2.69937 8.09172 3.374 8.09172L 8.04563 8.09172L 8.04563 15.8218L 3.374 15.8218C 2.69937 15.8218 2.15063 15.2198 2.15063 14.4794ZM 11.0448 28.3273C 11.0487 28.3404 11.0567 28.3671 11.0346 28.4007C 11.0126 28.4345 10.9869 28.4345 10.9746 28.4345L 7.65074 28.4345C 7.61877 28.4345 7.59067 28.4121 7.58063 28.3788L 4.48294 18.1817L 7.96304 18.1817L 11.0448 28.3273ZM 22.9878 21.4716C 22.9878 21.4856 22.9878 21.5144 22.9557 21.5386C 22.9236 21.5628 22.8989 21.5526 22.8871 21.5476L 10.1964 16.1913L 10.1964 7.72196L 22.887 2.36568C 22.8986 2.36049 22.9234 2.3501 22.9557 2.37449C 22.9878 2.39872 22.9878 2.42767 22.9878 2.44152L 22.9878 21.4716ZM 27.5854 13.4944C 27.5854 13.5317 27.5625 13.564 27.5294 13.5731L 25.1386 14.2289L 25.1386 9.68403L 27.5292 10.3398C 27.5622 10.349 27.5854 10.3815 27.5854 10.4188L 27.5854 13.4944Z"/>
<path id="path4_fill" d="M 6.82241 -9.79554e-07L 1.07539 -9.79554e-07C 0.481344 -9.79554e-07 -3.50061e-08 0.5282 -3.50061e-08 1.18007C -3.50061e-08 1.83195 0.481344 2.36015 1.07539 2.36015L 6.82241 2.36015C 7.41631 2.36015 7.8978 1.83179 7.8978 1.18007C 7.8978 0.5282 7.41645 -9.79554e-07 6.82241 -9.79554e-07Z"/>
<path id="path5_fill" d="M 4.33627 0.65226C 4.07058 0.0694602 3.42505 -0.166397 2.89338 0.124688L 0.594636 1.38611C 0.0635381 1.67767 -0.151827 2.38634 0.113722 2.96945C 0.30213 3.38295 0.681956 3.62196 1.07641 3.62196C 1.238 3.62196 1.40203 3.58168 1.5566 3.49703L 3.85535 2.2356C 4.38645 1.9442 4.60182 1.23537 4.33627 0.65226Z"/>
<path id="path6_fill" d="M 3.8553 1.38625L 1.55655 0.124987C 1.02546 -0.166727 0.37936 0.0696028 0.113811 0.652717C -0.151882 1.23552 0.0634835 1.94451 0.594725 2.23591L 2.89347 3.49717C 3.04776 3.58198 3.21194 3.6221 3.37353 3.6221C 3.76798 3.6221 4.14781 3.38294 4.33622 2.96944C 4.60191 2.38664 4.38654 1.67765 3.8553 1.38625Z"/>
</defs>
</svg>
