<svg width="65" height="70" viewBox="0 0 65 70" version="1.1" xmlns="http://www.w3.org/2000/svg" xmlns:xlink="http://www.w3.org/1999/xlink">
<title>picture</title>
<desc>Created using Figma</desc>
<g id="Canvas" transform="translate(-554 -755)">
<g id="picture">
<g id="Group">
<g id="Group">
<g id="Group">
<g id="Vector">
<use xlink:href="#path0_fill" transform="translate(576.82 789.449)" fill="#333333"/>
</g>
<g id="Vector">
<use xlink:href="#path1_fill" transform="translate(554.649 755.041)" fill="#333333"/>
</g>
</g>
</g>
</g>
</g>
</g>
<defs>
<path id="path0_fill" d="M 4.07738 0C 1.78386 0 3.24041e-07 1.84632 3.24041e-07 4.02833C 3.24041e-07 6.21035 1.78386 8.05667 4.07738 8.05667C 6.37091 8.05667 8.15477 6.21035 8.15477 4.02833C 8.15477 1.7624 6.28597 0 4.07738 0ZM 4.07738 6.37819C 2.71826 6.37819 1.61396 5.28719 1.61396 3.94441C 1.61396 2.60163 2.71826 1.51062 4.07738 1.51062C 5.43651 1.51062 6.5408 2.60163 6.5408 3.94441C 6.5408 5.28719 5.43651 6.37819 4.07738 6.37819Z"/>
<path id="path1_fill" d="M 63.7941 18.1275C 63.7941 18.0436 63.7091 18.0436 63.7091 17.9597C 63.7091 17.9597 63.7091 17.9597 63.6242 17.9597C 63.5393 17.8757 63.4543 17.8757 63.4543 17.7918C 63.3694 17.7918 63.3694 17.7079 63.2844 17.7079L 34.7427 2.8534L 34.7427 2.76948C 34.7427 1.25885 33.4685 0 31.9395 0C 30.4105 0 29.1363 1.25885 29.1363 2.76948L 29.1363 2.8534L 0.594618 17.624C 0.509673 17.624 0.509673 17.7079 0.424728 17.7079C 0.339782 17.7918 0.254837 17.7918 0.254837 17.8757C 0.169891 17.9597 0.169891 17.9597 0.0849454 18.0436C 0.0849454 18.1275 3.77234e-16 18.1275 3.77234e-16 18.2114C 3.77234e-16 18.2114 3.77234e-16 18.2114 3.77234e-16 18.2953C 3.77234e-16 18.3793 3.77234e-16 18.3793 3.77234e-16 18.4632C 3.77234e-16 18.5471 3.77234e-16 18.5471 3.77234e-16 18.631L 3.77234e-16 68.5656C 3.77234e-16 68.6495 3.77234e-16 68.6495 3.77234e-16 68.7334C 3.77234e-16 68.8174 -8.22762e-08 68.9013 0.0849454 68.9852C 0.0849454 69.0691 0.169891 69.1531 0.169891 69.237C 0.169891 69.3209 0.169891 69.3209 0.254837 69.4048C 0.339782 69.4888 0.424727 69.5727 0.594618 69.6566L 0.679564 69.7405C 0.849455 69.8244 1.01935 69.8244 1.18924 69.8244L 62.6898 69.8244C 62.8597 69.8244 63.0296 69.8244 63.1995 69.7405L 63.2844 69.6566C 63.3694 69.5727 63.5393 69.4888 63.6242 69.4048C 63.6242 69.3209 63.7091 69.3209 63.7091 69.237C 63.7941 69.1531 63.7941 69.0691 63.7941 68.9852C 63.879 68.9852 63.879 68.9013 63.879 68.8174C 63.879 68.7334 63.879 68.7334 63.879 68.6495L 63.879 18.715C 63.879 18.631 63.879 18.631 63.879 18.5471C 63.879 18.4632 63.879 18.3793 63.879 18.3793C 63.879 18.3793 63.879 18.3793 63.879 18.2953C 63.879 18.2114 63.7941 18.1275 63.7941 18.1275ZM 30.3256 4.95149C 30.7503 5.28719 31.3449 5.45504 31.9395 5.45504C 32.5341 5.45504 33.1288 5.28719 33.5535 4.95149L 57.763 17.54L 6.11608 17.54L 30.3256 4.95149ZM 59.292 19.8899L 53.8555 24.3379L 10.0236 24.3379L 4.58706 19.8899L 59.292 19.8899ZM 41.3685 40.1994C 41.1136 39.9476 40.7738 39.7798 40.4341 39.7798C 40.0943 39.7798 39.7545 39.9476 39.4997 40.1994L 29.4761 52.1166L 20.8117 44.2277C 20.302 43.8081 19.5375 43.8081 19.1127 44.3117L 10.873 53.1236L 10.873 26.7716L 53.1759 26.7716L 53.1759 53.1236L 53.091 53.1236L 41.3685 40.1994ZM 53.006 56.7324L 53.006 60.6768L 10.7881 60.6768L 10.7881 56.6484L 20.0471 46.8294L 28.7116 54.7182C 28.9664 54.97 29.3062 55.0539 29.646 55.0539C 29.9858 55.0539 30.3256 54.886 30.4954 54.6343L 40.519 42.885L 52.9211 56.6484L 53.006 56.7324ZM 2.37847 21.2327L 8.32466 26.1002L 8.32466 61.2642L 2.37847 66.1318L 2.37847 21.2327ZM 4.58706 67.4746L 10.0236 63.0266L 53.8555 63.0266L 59.292 67.4746L 4.58706 67.4746ZM 61.4156 66.0479L 55.4694 61.2642L 55.4694 26.1002L 61.4156 21.2327L 61.4156 66.0479Z"/>
</defs>
</svg>
