<svg width="84" height="66" viewBox="0 0 84 66" version="1.1" xmlns="http://www.w3.org/2000/svg" xmlns:xlink="http://www.w3.org/1999/xlink">
<title>car</title>
<desc>Created using Figma</desc>
<g id="Canvas" transform="translate(-816 -449)">
<g id="car">
<g id="Group">
<g id="Group">
<g id="Vector">
<use xlink:href="#path0_fill" transform="translate(861.45 492.609)" fill="#333333"/>
</g>
</g>
</g>
<g id="Group">
<g id="Group">
<g id="Vector">
<use xlink:href="#path1_fill" transform="translate(828.388 502.104)" fill="#333333"/>
</g>
</g>
</g>
<g id="Group">
<g id="Group">
<g id="Vector">
<use xlink:href="#path2_fill" transform="translate(882.719 502.104)" fill="#333333"/>
</g>
</g>
</g>
<g id="Group">
<g id="Group">
<g id="Vector">
<use xlink:href="#path3_fill" transform="translate(816.115 478.236)" fill="#333333"/>
</g>
</g>
</g>
<g id="Group">
<g id="Group">
<g id="Vector">
<use xlink:href="#path4_fill" transform="translate(849.89 455.495)" fill="#333333"/>
</g>
</g>
</g>
<g id="Group">
<g id="Group">
<g id="Vector">
<use xlink:href="#path5_fill" transform="translate(844.937 449.589)" fill="#333333"/>
</g>
</g>
</g>
</g>
</g>
<defs>
<path id="path0_fill" d="M 6.04688 3.98857e-07L 1.27013 3.98857e-07C 0.568639 3.98857e-07 -1.38433e-06 0.573271 -1.38433e-06 1.28083C -1.38433e-06 1.9884 0.568639 2.56167 1.27013 2.56167L 6.04688 2.56167C 6.74836 2.56167 7.31701 1.9884 7.31701 1.28083C 7.31701 0.573271 6.7482 3.98857e-07 6.04688 3.98857e-07Z"/>
<path id="path1_fill" d="M 4.07575 2.27348e-06C 1.8284 2.27348e-06 6.1306e-07 1.84381 6.1306e-07 4.10994C 6.1306e-07 6.37607 1.8284 8.21988 4.07575 8.21988C 6.3231 8.21988 8.15134 6.37607 8.15134 4.10994C 8.15134 1.84381 6.3231 2.27348e-06 4.07575 2.27348e-06ZM 4.07575 5.65837C 3.22911 5.65837 2.54009 4.96388 2.54009 4.10994C 2.54009 3.256 3.22894 2.5615 4.07575 2.5615C 4.92256 2.5615 5.61124 3.256 5.61124 4.10994C 5.61108 4.96388 4.92239 5.65837 4.07575 5.65837Z"/>
<path id="path2_fill" d="M 4.07559 2.27348e-06C 1.82824 2.27348e-06 -1.93806e-06 1.84381 -1.93806e-06 4.10994C -1.93806e-06 6.37607 1.82824 8.21988 4.07559 8.21988C 6.32294 8.21988 8.15119 6.37607 8.15119 4.10994C 8.15119 1.84381 6.32294 2.27348e-06 4.07559 2.27348e-06ZM 4.07559 5.65837C 3.22895 5.65837 2.5401 4.96388 2.5401 4.10994C 2.5401 3.256 3.22879 2.5615 4.07559 2.5615C 4.9224 2.5615 5.61109 3.256 5.61109 4.10994C 5.61093 4.96388 4.92224 5.65837 4.07559 5.65837Z"/>
<path id="path3_fill" d="M 82.851 20.1279C 82.5278 17.5654 81.4036 15.1085 79.6543 13.2178C 77.9835 11.4118 75.7803 10.1258 73.3908 9.57979L 68.343 4.71736C 65.1851 1.67538 61.0408 -2.39314e-07 56.6734 -2.39314e-07L 46.8837 -2.39314e-07C 41.4615 -2.39314e-07 36.0281 1.28835 31.1712 3.72537C 30.5431 4.04067 30.2875 4.8095 30.5998 5.44256C 30.9125 6.07596 31.6749 6.33392 32.3027 6.01878C 36.8102 3.75706 41.8521 2.56151 46.8837 2.56151L 53.3596 2.56151L 54.3831 10.1957L 23.01 11.4233L 27.7733 8.6061C 28.3784 8.24815 28.5812 7.46347 28.2263 6.85328C 27.8715 6.24325 27.0933 6.03838 26.4881 6.39633L 17.6298 11.6357L 13.1576 11.8363C 11.7399 11.8998 10.3732 12.2111 9.10386 12.7304C 9.07 12.7414 9.03614 12.7523 9.00276 12.7662C 6.38507 13.8603 4.26262 15.8061 2.93191 18.263C 2.64921 18.7848 2.40474 19.327 2.19672 19.8835C 1.78166 20.9939 1.47644 22.1571 1.12878 23.2906C 0.840568 24.2305 0.552197 25.1705 0.263988 26.1106C 0.232883 26.2122 0.201616 26.3138 0.170511 26.4154C -0.184769 27.5736 0.020817 28.7974 0.734292 29.773C 1.44777 30.7487 2.54666 31.3082 3.74874 31.3082L 8.61346 31.3082C 9.89947 34.3347 12.8822 36.4603 16.3484 36.4603C 19.8147 36.4603 22.7974 34.3345 24.0834 31.3082C 24.0834 31.3082 28.6745 31.3082 28.6796 31.3082L 62.9439 31.3082C 64.23 34.3347 67.2127 36.4603 70.6788 36.4603C 74.1451 36.4603 77.1278 34.3345 78.4138 31.3082L 81.6773 31.3082C 82.3788 31.3082 82.9474 30.735 82.9474 30.0274L 82.9474 21.6561C 82.9476 21.1447 82.915 20.6343 82.851 20.1279ZM 76.8597 14.0786C 76.8778 14.0936 76.896 14.1086 76.9138 14.1238C 78.5277 15.4824 79.6776 17.3708 80.1539 19.4352C 78.2845 19.1039 76.8597 17.4546 76.8597 15.4759L 76.8597 14.0786ZM 56.6736 2.56183L 56.6736 2.56167C 60.3842 2.56167 63.9055 3.98512 66.5885 6.56983L 69.7295 9.59531L 56.9331 10.096L 55.9232 2.56183L 56.6736 2.56183ZM 4.78315 20.265C 4.83791 20.138 4.89477 20.0122 4.95536 19.8881C 4.95666 19.885 4.95828 19.882 4.95974 19.8791C 5.727 18.3066 6.8928 16.9877 8.30841 16.0364L 8.30841 16.3901C 8.30841 18.4677 6.73743 20.1821 4.7305 20.3891C 4.74783 20.3476 4.76533 20.3063 4.78315 20.265ZM 21.122 31.4192C 20.5224 32.2633 19.7036 32.9436 18.7657 33.3729C 18.0085 33.7196 17.1802 33.8985 16.3488 33.8985C 15.0754 33.8985 13.822 33.4731 12.8078 32.6966C 11.7632 31.8969 10.9995 30.7505 10.6701 29.4695C 10.5454 28.9839 10.4777 28.4798 10.4777 27.9777C 10.4777 24.7132 13.1114 22.0573 16.3486 22.0573C 19.5858 22.0573 22.2197 24.7132 22.2197 27.9817C 22.2189 29.2079 21.8299 30.4231 21.122 31.4192ZM 24.7253 28.7467C 24.7483 28.4912 24.76 28.2344 24.76 27.9781C 24.76 23.3011 20.9867 19.496 16.3488 19.496C 11.7109 19.496 7.93741 23.3011 7.93741 27.9781C 7.93741 27.9807 7.93757 27.9831 7.93757 27.9857C 7.93757 28.2318 7.9494 28.4953 7.97192 28.7466L 3.74907 28.7466C 3.36219 28.7466 3.00854 28.5664 2.77913 28.2524C 2.54957 27.9385 2.48347 27.5446 2.59769 27.172L 3.8905 22.9568C 4.03403 22.9665 4.1779 22.9717 4.32192 22.9717C 7.92072 22.9717 10.8487 20.0192 10.8487 16.3899L 10.8487 14.9185C 10.8487 14.8859 10.847 14.8534 10.8464 14.8209C 11.6222 14.5796 12.4352 14.4326 13.2707 14.3952C 13.2707 14.3952 18.0497 14.1808 18.0502 14.1808L 25.4621 13.8908C 24.9848 16.9232 24.3243 23.5711 26.5573 28.7466L 24.7253 28.7466L 24.7253 28.7467ZM 45.3477 28.7466L 29.389 28.7466C 26.6759 23.9008 27.6118 16.4236 28.0586 13.7892L 54.6634 12.7482C 54.8137 15.4001 54.8152 21.9485 51.6144 25.7921C 50.0721 27.6438 48.0219 28.61 45.3477 28.7466ZM 76.5376 28.3635C 76.3348 31.4151 73.7427 33.8988 70.6793 33.8988C 67.5102 33.8988 64.8082 31.1735 64.8082 27.9782C 64.8082 24.7137 67.442 22.0578 70.6792 22.0578C 73.9164 22.0578 76.5501 24.7137 76.5501 27.9782C 76.5503 28.1075 76.5461 28.2359 76.5376 28.3635ZM 80.4075 28.7466L 79.056 28.7466C 79.4826 24.0176 75.8054 19.7479 71.1116 19.5071C 70.9683 19.4997 70.8243 19.496 70.6793 19.496C 66.0414 19.496 62.2681 23.3009 62.2681 27.9781C 62.2681 28.2315 62.28 28.492 62.3026 28.7466L 52.2701 28.7466C 52.7303 28.3527 53.1631 27.9161 53.5648 27.4331C 57.3428 22.8892 57.3822 15.678 57.2066 12.6489L 72.6642 12.0441C 73.2914 12.1759 73.894 12.3674 74.467 12.6125C 74.3698 13.067 74.3193 13.5321 74.3193 14.0046L 74.3193 15.476C 74.3193 18.9563 77.0123 21.8127 80.4073 22.0411L 80.4073 28.7466L 80.4075 28.7466Z"/>
<path id="path4_fill" d="M 14.4874 0.375061C 13.9914 -0.12502 13.1872 -0.12502 12.6914 0.375061L 3.56078 9.58285L 2.45509 6.6964C 2.20219 6.03687 1.46717 5.70915 0.812667 5.96335C 0.158324 6.21821 -0.167146 6.95976 0.0857453 7.61961L 1.89454 12.3412C 2.04926 12.7451 2.39612 13.0427 2.81652 13.1326C 2.90384 13.1512 2.99197 13.1602 3.07913 13.1602C 3.41238 13.1602 3.73655 13.0279 3.97729 12.7853L 14.4876 2.18636C 14.9835 1.68612 14.9835 0.875305 14.4874 0.375061Z"/>
<path id="path5_fill" d="M 12.382 9.47285e-08C 5.55455 9.47285e-08 -5.53732e-07 5.60137 -5.53732e-07 12.4863C -5.53732e-07 19.3712 5.55471 24.9725 12.382 24.9725C 19.2092 24.9725 24.764 19.3712 24.764 12.4863C 24.764 5.6012 19.2096 9.47285e-08 12.382 9.47285e-08ZM 12.382 22.4105C 6.95525 22.4105 2.54026 17.9583 2.54026 12.486C 2.54026 7.01372 6.95541 2.56134 12.382 2.56134C 17.8085 2.56134 22.2237 7.01355 22.2237 12.486C 22.2239 17.9585 17.8089 22.4105 12.382 22.4105Z"/>
</defs>
</svg>
