<svg width="75" height="78" viewBox="0 0 75 78" version="1.1" xmlns="http://www.w3.org/2000/svg" xmlns:xlink="http://www.w3.org/1999/xlink">
<title>engineer</title>
<desc>Created using Figma</desc>
<g id="Canvas" transform="translate(-19 -750)">
<g id="engineer">
<g id="Group">
<g id="Group">
<g id="Vector">
<use xlink:href="#path0_fill" transform="translate(19.882 750.984)" fill="#333333"/>
</g>
</g>
</g>
</g>
</g>
<defs>
<path id="path0_fill" d="M 69.7426 63.4365C 62.44 59.4048 56.8386 57.1442 51.8521 56.2774L 52.3681 55.5388C 52.6129 55.284 52.7352 54.9018 52.6129 54.5197L 51.4662 49.7447C 54.4989 45.2813 56.2835 39.7013 56.2835 34.3933L 56.2835 29.298L 57.507 29.298L 59.9541 29.298C 60.6882 29.298 61.1776 28.7885 61.1776 28.0242C 61.1776 27.2599 60.6882 26.7505 59.9541 26.7505L 58.7306 26.7505L 58.7306 25.4767C 58.7306 15.4135 52.3681 6.87887 42.8244 4.07639L 42.8244 3.82143C 42.8244 1.78323 41.2338 0 39.1537 0L 34.2595 0C 32.3017 0 30.5889 1.6559 30.5889 3.82143L 30.5889 4.07624C 21.0451 6.87872 14.6826 15.4133 14.6826 25.4765L 14.6826 26.7503L 13.4591 26.7503C 12.725 26.7503 12.2356 27.2598 12.2356 28.0241C 12.2356 28.7883 12.725 29.2978 13.4591 29.2978L 15.9063 29.2978L 17.1297 29.2978L 17.1297 34.3932C 17.1297 39.7011 18.9143 45.2812 21.947 49.7447L 20.8004 54.5197C 20.8004 54.7745 20.8004 55.284 21.0451 55.5388L 21.5612 56.2774C 16.5748 57.1443 10.9732 59.4048 3.67062 63.4365C 1.34594 64.583 0 67.0032 0 69.6782L 0 75.1557C 0 75.92 0.489367 76.4295 1.22349 76.4295L 30.5889 76.4295L 31.0782 76.4295L 42.335 76.4295L 42.8244 76.4295L 72.1897 76.4295C 72.9239 76.4295 73.4132 75.92 73.4132 75.1557L 73.4132 69.6782C 73.4134 67.1306 71.945 64.7104 69.7426 63.4365ZM 35.9729 62.2574L 36.7136 60.5224L 38.5424 64.7111L 39.7384 67.5127L 33.7703 67.5127L 35.9729 62.2574ZM 32.8402 70.0604L 40.5638 70.0604L 41.263 73.8818L 32.1061 73.8818L 32.8402 70.0604ZM 49.5539 52.2268L 50.0433 54.5197L 48.7934 56.3064C 48.7137 56.3743 48.6399 56.4565 48.575 56.5577L 43.4857 63.894L 41.8708 66.2025L 38.5723 58.4757C 42.5152 57.9751 46.0349 55.9144 48.8777 52.953C 48.9092 52.9206 48.9408 52.8884 48.9721 52.8556C 48.9797 52.8476 48.9873 52.8395 48.9949 52.8315C 49.1834 52.6346 49.3698 52.4334 49.5539 52.2268ZM 47.9599 9.31667C 48.0957 9.41076 48.2304 9.50637 48.3637 9.6038C 49.9233 10.8138 51.363 12.2313 52.4906 13.7573L 46.8622 14.9037L 47.9599 9.31667ZM 26.5512 14.9037L 20.9228 13.7573C 22.0504 12.2311 23.4902 10.8137 25.0499 9.60365C 25.1829 9.50637 25.3176 9.41076 25.4535 9.31667L 26.5512 14.9037ZM 17.1297 25.4765C 17.1297 22.0869 17.9494 18.8891 19.433 16.0945L 27.8971 17.8337C 28.0194 17.8337 28.0194 17.8337 28.1419 17.8337C 28.509 17.8337 28.7537 17.7064 29.1208 17.5789C 29.4878 17.3241 29.6101 16.8146 29.4878 16.4324L 27.8081 7.92149C 28.6928 7.47834 29.6212 7.09772 30.589 6.78478L 30.589 10.1907C 30.589 10.955 31.0784 11.4644 31.8125 11.4644C 32.5466 11.4644 33.036 10.955 33.036 10.1907L 33.036 5.09534L 33.036 3.82143C 33.036 3.18447 33.5254 2.54767 34.2595 2.54767L 39.1537 2.54767C 39.7656 2.54767 40.3772 3.05714 40.3772 3.82143L 40.3772 5.09519L 40.3772 10.1905C 40.3772 10.9548 40.8666 11.4643 41.6007 11.4643C 42.3349 11.4643 42.8242 10.9548 42.8242 10.1905L 42.8242 6.78478C 43.8242 7.10804 44.7827 7.50323 45.6938 7.96535L 44.0479 16.3051C 44.0479 16.6873 44.1702 17.1967 44.4149 17.4515C 44.6597 17.7064 44.9043 17.8337 45.2713 17.8337C 45.3937 17.8337 45.3936 17.8337 45.5161 17.8337L 53.9254 15.9905C 55.4438 18.8097 56.2833 22.045 56.2833 25.4765L 56.2833 26.7503L 55.0599 26.7503L 18.3534 26.7503L 17.1299 26.7503L 17.1299 25.4765L 17.1297 25.4765ZM 19.5769 29.298L 53.8364 29.298L 53.8364 34.3933C 53.8364 39.9477 52.0062 44.8836 49.2583 48.6353L 49.1869 48.6601C 49.0646 48.7874 48.9421 48.9149 48.8198 49.0422C 48.2042 49.8968 47.5545 50.676 46.8756 51.3785C 43.9946 54.1728 40.5583 55.8652 37.2472 56.0329C 37.0805 55.9584 36.8936 55.9209 36.7066 55.9209C 36.5186 55.9209 36.349 55.9593 36.197 56.0346C 34.1701 55.9378 32.0957 55.269 30.1294 54.1248C 28.1374 52.9333 26.2634 51.2156 24.5933 49.0422C 24.471 48.9149 24.3485 48.7874 24.2262 48.6601L 24.1548 48.6353C 21.4069 44.8834 19.5767 39.9476 19.5767 34.3933L 19.5767 29.298L 19.5769 29.298ZM 34.841 58.476L 31.5424 66.2028L 29.9275 63.8943L 24.8382 56.558C 24.7993 56.5175 24.7561 56.4773 24.7115 56.4377L 23.3699 54.5198L 23.8593 52.227C 24.0252 52.4129 24.1934 52.5941 24.3633 52.7724C 27.2356 55.8306 30.818 57.9652 34.841 58.476ZM 2.44713 69.6782C 2.44713 68.0223 3.30356 66.4936 4.77195 65.7293C 12.5711 61.4157 18.1854 59.2508 23.1867 58.6041L 30.4883 69.0561L 29.5613 73.8816L 2.44713 73.8816L 2.44713 69.6782ZM 70.9663 73.882L 43.8522 73.882L 42.9252 69.0564L 50.3058 58.4912C 55.2896 59.2742 61.0044 61.4374 68.6414 65.6021C 70.1097 66.4938 70.9663 68.0225 70.9663 69.6784L 70.9663 73.882Z"/>
</defs>
</svg>
