<svg width="86" height="85" viewBox="0 0 86 85" version="1.1" xmlns="http://www.w3.org/2000/svg" xmlns:xlink="http://www.w3.org/1999/xlink">
<title>mortarboard</title>
<desc>Created using Figma</desc>
<g id="Canvas" transform="translate(-818 -754)">
<g id="mortarboard">
<g id="Group">
<g id="Group">
<g id="Group">
<g id="Vector">
<use xlink:href="#path0_fill" transform="translate(874.73 829.133)" fill="#333333"/>
</g>
<g id="Vector">
<use xlink:href="#path1_fill" transform="translate(818.162 776.648)" fill="#333333"/>
</g>
<g id="Vector">
<use xlink:href="#path2_fill" transform="translate(832.304 791.644)" fill="#333333"/>
</g>
<g id="Vector">
<use xlink:href="#path3_fill" transform="translate(880.388 830.634)" fill="#333333"/>
</g>
<g id="Vector">
<use xlink:href="#path4_fill" transform="translate(818.162 754.154)" fill="#333333"/>
</g>
<g id="Vector">
<use xlink:href="#path5_fill" transform="translate(884.63 829.133)" fill="#333333"/>
</g>
</g>
</g>
</g>
</g>
</g>
<defs>
<path id="path0_fill" d="M 3.1712 0.046159C 2.41315 -0.157871 1.64531 0.334011 1.45721 1.13642L 0.0430338 7.13483C -0.147888 7.94005 0.314501 8.75282 1.07255 8.95387C 1.18707 8.98532 1.30308 8.99886 1.41628 8.99886C 2.04987 8.99886 2.62544 8.5444 2.7867 7.8636L 4.20088 1.8652C 4.39031 1.06138 3.92925 0.247201 3.1712 0.046159Z"/>
<path id="path1_fill" d="M 42.427 22.4942C 42.6108 22.4942 42.7948 22.4568 42.9673 22.3803L 58.524 15.5541C 59.2452 15.2376 59.5875 14.3603 59.2891 13.5955C 58.9907 12.8291 58.1605 12.4692 57.4408 12.7827L 42.427 19.3719L 2.82853 1.99742L 2.82853 1.49956C 2.82853 0.671839 2.19494 -1.00825e-06 1.41435 -1.00825e-06C 0.633754 -1.00825e-06 0 0.671839 0 1.49956L 0 2.99911C 0 3.60646 0.345051 4.15387 0.874063 4.38479L 41.8869 22.3802C 42.0593 22.4566 42.2433 22.4942 42.427 22.4942Z"/>
<path id="path2_fill" d="M 45.1082 22.8615C 44.7632 22.1192 43.9174 21.8132 43.2146 22.1807C 40.5289 23.5889 36.0429 25.2264 29.6988 25.4499L 29.6988 11.9968C 29.6988 11.1691 29.0652 10.4972 28.2846 10.4972C 27.504 10.4972 26.8704 11.1691 26.8704 11.9968L 26.8704 25.4364C 9.30992 24.8426 3.64309 13.5624 2.82836 11.6849L 2.82836 1.49956C 2.82836 0.671839 2.19477 -1.07261e-06 1.41418 -1.07261e-06C 0.633587 -1.07261e-06 -1.51731e-07 0.671839 -1.51731e-07 1.49956L -1.51731e-07 11.9968C -1.51731e-07 12.1873 0.0339751 12.3762 0.100433 12.5546C 0.346543 13.2039 6.36555 28.4924 28.2847 28.4924C 35.9456 28.4924 41.3142 26.5219 44.4678 24.8693C 45.1689 24.502 45.4561 23.6038 45.1082 22.8615Z"/>
<path id="path3_fill" d="M 1.41418 -1.54456e-06C 0.632097 -1.54456e-06 1.73985e-06 0.671842 1.73985e-06 1.49956L 1.73985e-06 5.9984C 1.73985e-06 6.82612 0.632097 7.49796 1.41418 7.49796C 2.19626 7.49796 2.82836 6.82612 2.82836 5.9984L 2.82836 1.49956C 2.82836 0.671842 2.19626 -1.54456e-06 1.41418 -1.54456e-06Z"/>
<path id="path4_fill" d="M 83.4399 22.494C 82.6578 22.494 82.0257 23.1658 82.0257 23.9935L 82.0257 24.4884L 65.0549 31.895L 65.0549 29.1851L 83.9802 20.8802C 84.509 20.6493 84.8543 20.1018 84.8543 19.4945C 84.8543 18.8872 84.5092 18.3413 83.9817 18.1088L 42.9673 0.113614C 42.6208 -0.037871 42.2333 -0.037871 41.8869 0.113614L 0.874063 18.109C 0.345051 18.3415 0 18.8873 0 19.4947C 0 20.102 0.345051 20.6494 0.874063 20.8804L 41.8869 38.8757C 42.0595 38.9522 42.2433 38.9898 42.4272 38.9898C 42.6112 38.9898 42.795 38.9524 42.9675 38.8757L 57.7972 32.3689C 58.52 32.054 58.8622 31.1767 58.5637 30.4103C 58.2653 29.6455 57.4379 29.2841 56.7167 29.599L 42.427 35.8675L 5.11246 19.4947L 42.427 3.12186L 79.7416 19.4947L 63.5048 26.6194L 47.9525 20.4619C 48.0345 20.15 48.0841 19.8291 48.0841 19.4947C 48.0841 16.9723 45.5993 14.9958 42.4272 14.9958C 39.2551 14.9958 36.7703 16.9723 36.7703 19.4947C 36.7703 22.017 39.2551 23.9935 42.4272 23.9935C 43.8429 23.9935 45.1058 23.5841 46.0872 22.9243L 62.2264 29.3143L 62.2264 34.1191L 62.2264 34.1207L 62.2264 66.2589C 60.5845 66.8812 59.3979 68.5293 59.3979 70.4819C 59.3979 72.9622 61.3014 74.9807 63.6406 74.9807C 65.9797 74.9807 67.8833 72.9622 67.8833 70.4819C 67.8833 68.5294 66.6968 66.8814 65.0547 66.2589L 65.0547 57.7472C 69.115 54.4974 70.5703 50.1696 70.6339 49.9777C 70.6848 49.8202 70.7116 49.6538 70.7116 49.4874L 70.7116 38.9901C 70.7116 38.1624 70.0795 37.4906 69.2975 37.4906C 68.5154 37.4906 67.8833 38.1624 67.8833 38.9901L 67.8833 49.2101C 67.6387 49.8459 66.7886 51.8059 65.0547 53.7404L 65.0547 35.1387L 83.9787 26.8803C 84.509 26.6494 84.8541 26.1006 84.8541 25.4932L 84.8541 23.9937C 84.8541 23.1658 84.222 22.494 83.4399 22.494ZM 42.427 20.9942C 40.7003 20.9942 39.5985 20.1064 39.5985 19.4947C 39.5985 18.8828 40.7001 17.9951 42.427 17.9951C 44.154 17.9951 45.2556 18.8829 45.2556 19.4947C 45.2556 20.1066 44.1538 20.9942 42.427 20.9942ZM 63.6406 71.9813C 62.86 71.9813 62.2264 71.308 62.2264 70.4817C 62.2264 69.6554 62.86 68.9821 63.6406 68.9821C 64.4212 68.9821 65.0547 69.6554 65.0547 70.4817C 65.0547 71.3078 64.4212 71.9813 63.6406 71.9813Z"/>
<path id="path5_fill" d="M 2.78611 1.13589C 2.59668 0.333656 1.82719 -0.15682 1.07212 0.0456283C 0.314067 0.246495 -0.146997 1.06085 0.042599 1.86467L 1.45678 7.86307C 1.61804 8.54387 2.19362 8.99833 2.82721 8.99833C 2.94041 8.99833 3.05625 8.9848 3.17094 8.95334C 3.92899 8.75247 4.39006 7.93952 4.20046 7.1343L 2.78611 1.13589Z"/>
</defs>
</svg>
