<svg width="51" height="70" viewBox="0 0 51 70" version="1.1" xmlns="http://www.w3.org/2000/svg" xmlns:xlink="http://www.w3.org/1999/xlink">
<title>light-bulb</title>
<desc>Created using Figma</desc>
<g id="Canvas" transform="translate(250 -759)">
<g id="light-bulb">
<g id="Group">
<g id="Group">
<g id="Group">
<g id="Vector">
<use xlink:href="#path0_fill" transform="translate(-250 759)" fill="#333333"/>
</g>
<g id="Vector">
<use xlink:href="#path1_fill" transform="translate(-220.003 765.983)" fill="#333333"/>
</g>
<g id="Vector">
<use xlink:href="#path2_fill" transform="translate(-226.445 764.879)" fill="#333333"/>
</g>
</g>
</g>
</g>
</g>
</g>
<defs>
<path id="path0_fill" d="M 43.0653 6.82703C 38.251 2.37872 31.8565 -0.0486295 25.0768 0.000738485C 11.2181 0.0951105 -0.0311436 10.6687 6.45001e-05 23.5711C 0.0145697 29.5632 2.45159 35.2655 6.86219 39.6279C 11.6017 44.3156 14.2118 50.3387 14.2118 56.5961C 14.2118 56.644 14.2196 60.6416 14.2196 60.6416C 14.2196 62.4632 15.8118 63.9452 17.7688 63.9452L 18.9493 63.9452L 18.9493 66.5209C 18.9493 68.3425 20.5415 69.8245 22.4985 69.8245L 28.0329 69.8245C 29.9899 69.8245 31.5821 68.3425 31.5821 66.5209L 31.5821 63.9452L 32.7626 63.9452C 34.7196 63.9452 36.3118 62.4632 36.3118 60.6416C 36.3118 60.6416 36.3195 56.6342 36.3195 56.5867C 36.3195 50.2822 38.8922 44.2964 43.5633 39.7319C 48.0565 35.3413 50.5312 29.5827 50.5312 23.5168C 50.531 17.2028 47.8797 11.2756 43.0653 6.82703ZM 28.4236 66.5209C 28.4236 66.7215 28.2484 66.8849 28.0326 66.8849L 22.4982 66.8849C 22.2827 66.8849 22.1072 66.7218 22.1072 66.5209L 22.1072 63.9453L 28.4235 63.9453L 28.4235 66.5209L 28.4236 66.5209ZM 32.7625 61.0057L 17.7686 61.0057C 17.5531 61.0057 17.3776 60.8426 17.3776 60.6417L 17.3776 58.066L 33.1532 58.066L 33.1532 60.6417L 33.1534 60.6417C 33.1534 60.8423 32.9781 61.0057 32.7625 61.0057ZM 23.3055 44.6909L 18.6061 28.218C 19.1548 28.4581 19.875 28.6701 20.9089 28.6701C 22.4226 28.6701 23.2645 28.2157 23.8793 27.8837C 24.3445 27.6325 24.6007 27.4942 25.265 27.4942C 25.9295 27.4942 26.1857 27.6325 26.6512 27.8837C 27.266 28.2157 28.1078 28.6701 29.6219 28.6701C 30.6563 28.6701 31.3767 28.4579 31.9254 28.2177L 27.2257 44.6909L 23.3055 44.6909ZM 26.8446 47.6305L 26.8446 55.1266L 23.6865 55.1266L 23.6865 47.6305L 26.8446 47.6305ZM 41.2763 37.7046C 36.4069 42.4626 33.5731 48.5987 33.2026 55.1264L 30.0027 55.1264L 30.0027 46.4101L 35.6269 26.6958C 35.7318 26.3285 35.6758 25.9574 35.5019 25.6446C 35.3217 25.0174 34.7086 24.5549 33.9781 24.5549C 32.4643 24.5549 31.6223 25.0093 31.0075 25.3413C 30.5421 25.5925 30.2857 25.7308 29.6213 25.7308C 28.957 25.7308 28.7006 25.5925 28.2351 25.3413C 27.6203 25.0093 26.7786 24.5549 25.2645 24.5549C 23.7508 24.5549 22.9089 25.0093 22.2941 25.3413C 21.8289 25.5925 21.5727 25.7308 20.9083 25.7308C 20.2442 25.7308 19.9879 25.5925 19.5229 25.3413C 18.9081 25.0093 18.0664 24.5549 16.5525 24.5549C 15.8219 24.5549 15.2088 25.0175 15.0288 25.6446C 14.8548 25.9575 14.799 26.3285 14.9039 26.6958L 20.528 46.4101L 20.528 55.1264L 17.3273 55.1264C 16.9515 48.654 14.0855 42.4834 9.16178 37.6135C 5.30281 33.7966 3.1707 28.8073 3.15795 23.5646C 3.13099 12.2747 12.974 3.02269 25.1001 2.94018C 31.0438 2.90131 36.6282 5.021 40.8404 8.91317C 45.053 12.8056 47.3731 17.9921 47.3731 23.5168C 47.3729 28.8243 45.2078 33.8628 41.2763 37.7046Z"/>
<path id="path1_fill" d="M 10.8305 6.47901C 8.6664 3.58553 5.66646 1.38047 2.15474 0.101398C 1.34274 -0.194264 0.426568 0.178587 0.108919 0.934654C -0.20873 1.69058 0.191996 2.54321 1.00414 2.83887C 7.01896 5.02934 11.0602 10.5328 11.0602 16.5337C 11.0602 17.3454 11.7671 18.0036 12.6394 18.0036C 13.5116 18.0036 14.2185 17.3456 14.2185 16.5337C 14.2181 12.9192 13.0467 9.44232 10.8305 6.47901Z"/>
<path id="path2_fill" d="M 1.71045 8.32372e-09C 1.70855 8.32372e-09 1.70665 8.32372e-09 1.70474 8.32372e-09L 1.57361 0.000408911C 0.701534 0.00340918 -0.00292065 0.663741 9.69926e-06 1.47531C 0.00323309 2.28539 0.709448 2.93999 1.57888 2.93999C 1.58079 2.93999 1.58269 2.93999 1.5846 2.93999L 1.71573 2.93958C 2.5878 2.93658 3.29226 2.27625 3.28933 1.46468C 3.2864 0.654604 2.58004 8.32372e-09 1.71045 8.32372e-09Z"/>
</defs>
</svg>
