<svg width="162" height="29" viewBox="0 0 162 29" version="1.1" xmlns="http://www.w3.org/2000/svg" xmlns:xlink="http://www.w3.org/1999/xlink">
<title>Group 9</title>
<desc>Created using Figma</desc>
<g id="Canvas" transform="translate(281 569)">
<g id="Group 9">
<g id="Intertrade INC">
<use xlink:href="#path0_fill" transform="translate(-255 -567)"/>
</g>
<g id="Vector">
<use xlink:href="#path1_fill" transform="translate(-273.96 -569)" fill="#2F79A8"/>
</g>
<g id="Vector">
<use xlink:href="#path2_fill" transform="matrix(1 0 -0 -1 -281 -540)" fill="#44A0AB"/>
</g>
</g>
</g>
<defs>
<path id="path0_fill" d="M 1.48 19L 1.48 4.8L 4.24 4.8L 4.24 19L 1.48 19ZM 16.6827 19L 14.0027 19L 14.0027 13.12C 14.0027 12.28 13.856 11.6667 13.5627 11.28C 13.2693 10.8933 12.8627 10.7 12.3427 10.7C 12.076 10.7 11.8027 10.7533 11.5227 10.86C 11.2427 10.9667 10.976 11.12 10.7227 11.32C 10.4827 11.5067 10.2627 11.7333 10.0627 12C 9.86266 12.2667 9.71599 12.56 9.62266 12.88L 9.62266 19L 6.94266 19L 6.94266 8.52L 9.36266 8.52L 9.36266 10.46C 9.74932 9.79333 10.3093 9.27333 11.0427 8.9C 11.776 8.52667 12.6027 8.34 13.5227 8.34C 14.176 8.34 14.7093 8.46 15.1227 8.7C 15.536 8.94 15.856 9.25333 16.0827 9.64C 16.3093 10.0267 16.4627 10.4667 16.5427 10.96C 16.636 11.4533 16.6827 11.9533 16.6827 12.46L 16.6827 19ZM 25.1953 18.46C 24.8353 18.62 24.3953 18.78 23.8753 18.94C 23.3553 19.1 22.8086 19.18 22.2353 19.18C 21.862 19.18 21.5086 19.1333 21.1753 19.04C 20.8553 18.9467 20.5686 18.8 20.3153 18.6C 20.0753 18.3867 19.882 18.12 19.7353 17.8C 19.5886 17.4667 19.5153 17.0667 19.5153 16.6L 19.5153 10.58L 18.1353 10.58L 18.1353 8.52L 19.5153 8.52L 19.5153 5.12L 22.1953 5.12L 22.1953 8.52L 24.3953 8.52L 24.3953 10.58L 22.1953 10.58L 22.1953 15.7C 22.1953 16.0733 22.2886 16.34 22.4753 16.5C 22.6753 16.6467 22.9153 16.72 23.1953 16.72C 23.4753 16.72 23.7486 16.6733 24.0153 16.58C 24.282 16.4867 24.4953 16.4067 24.6553 16.34L 25.1953 18.46ZM 31.1972 19.2C 30.3572 19.2 29.5972 19.06 28.9172 18.78C 28.2372 18.4867 27.6572 18.0933 27.1772 17.6C 26.6972 17.1067 26.3239 16.5333 26.0572 15.88C 25.8039 15.2267 25.6772 14.54 25.6772 13.82C 25.6772 13.0733 25.8039 12.3733 26.0572 11.72C 26.3105 11.0533 26.6772 10.4733 27.1572 9.98C 27.6372 9.47333 28.2172 9.07333 28.8972 8.78C 29.5905 8.48667 30.3639 8.34 31.2172 8.34C 32.0705 8.34 32.8305 8.48667 33.4972 8.78C 34.1772 9.07333 34.7505 9.46667 35.2172 9.96C 35.6972 10.4533 36.0572 11.0267 36.2972 11.68C 36.5505 12.3333 36.6772 13.0133 36.6772 13.72C 36.6772 13.8933 36.6705 14.06 36.6572 14.22C 36.6572 14.38 36.6439 14.5133 36.6172 14.62L 28.5172 14.62C 28.5572 15.0333 28.6572 15.4 28.8172 15.72C 28.9772 16.04 29.1839 16.3133 29.4372 16.54C 29.6905 16.7667 29.9772 16.94 30.2972 17.06C 30.6172 17.18 30.9505 17.24 31.2972 17.24C 31.8305 17.24 32.3305 17.1133 32.7972 16.86C 33.2772 16.5933 33.6039 16.2467 33.7772 15.82L 36.0772 16.46C 35.6905 17.26 35.0705 17.92 34.2172 18.44C 33.3772 18.9467 32.3705 19.2 31.1972 19.2ZM 33.9172 12.88C 33.8505 12.0933 33.5572 11.4667 33.0372 11C 32.5305 10.52 31.9105 10.28 31.1772 10.28C 30.8172 10.28 30.4772 10.3467 30.1572 10.48C 29.8505 10.6 29.5772 10.7733 29.3372 11C 29.0972 11.2267 28.8972 11.5 28.7372 11.82C 28.5905 12.14 28.5039 12.4933 28.4772 12.88L 33.9172 12.88ZM 44.5498 10.84C 43.7365 10.8533 43.0098 11.0133 42.3698 11.32C 41.7298 11.6133 41.2698 12.06 40.9898 12.66L 40.9898 19L 38.3098 19L 38.3098 8.52L 40.7698 8.52L 40.7698 10.76C 40.9565 10.4 41.1765 10.08 41.4298 9.8C 41.6832 9.50667 41.9565 9.25333 42.2498 9.04C 42.5432 8.82667 42.8365 8.66667 43.1298 8.56C 43.4365 8.44 43.7298 8.38 44.0098 8.38C 44.1565 8.38 44.2632 8.38 44.3298 8.38C 44.4098 8.38 44.4832 8.38667 44.5498 8.4L 44.5498 10.84ZM 52.3242 18.46C 51.9642 18.62 51.5242 18.78 51.0042 18.94C 50.4842 19.1 49.9376 19.18 49.3642 19.18C 48.9909 19.18 48.6376 19.1333 48.3042 19.04C 47.9842 18.9467 47.6976 18.8 47.4442 18.6C 47.2042 18.3867 47.0109 18.12 46.8642 17.8C 46.7176 17.4667 46.6442 17.0667 46.6442 16.6L 46.6442 10.58L 45.2642 10.58L 45.2642 8.52L 46.6442 8.52L 46.6442 5.12L 49.3242 5.12L 49.3242 8.52L 51.5242 8.52L 51.5242 10.58L 49.3242 10.58L 49.3242 15.7C 49.3242 16.0733 49.4176 16.34 49.6042 16.5C 49.8042 16.6467 50.0442 16.72 50.3242 16.72C 50.6042 16.72 50.8776 16.6733 51.1442 16.58C 51.4109 16.4867 51.6242 16.4067 51.7842 16.34L 52.3242 18.46ZM 59.96 10.84C 59.1467 10.8533 58.42 11.0133 57.78 11.32C 57.14 11.6133 56.68 12.06 56.4 12.66L 56.4 19L 53.72 19L 53.72 8.52L 56.18 8.52L 56.18 10.76C 56.3667 10.4 56.5867 10.08 56.84 9.8C 57.0933 9.50667 57.3667 9.25333 57.66 9.04C 57.9533 8.82667 58.2467 8.66667 58.54 8.56C 58.8467 8.44 59.14 8.38 59.42 8.38C 59.5667 8.38 59.6733 8.38 59.74 8.38C 59.82 8.38 59.8933 8.38667 59.96 8.4L 59.96 10.84ZM 64.1777 19.2C 63.671 19.2 63.1977 19.12 62.7577 18.96C 62.3177 18.7867 61.9377 18.5533 61.6177 18.26C 61.2977 17.9533 61.0443 17.6 60.8577 17.2C 60.6843 16.8 60.5977 16.36 60.5977 15.88C 60.5977 15.3867 60.7043 14.9333 60.9177 14.52C 61.1443 14.0933 61.451 13.7333 61.8377 13.44C 62.2377 13.1467 62.711 12.92 63.2577 12.76C 63.8043 12.5867 64.4043 12.5 65.0577 12.5C 65.5243 12.5 65.9777 12.54 66.4177 12.62C 66.871 12.7 67.271 12.8133 67.6177 12.96L 67.6177 12.36C 67.6177 11.6667 67.4177 11.1333 67.0177 10.76C 66.631 10.3867 66.051 10.2 65.2777 10.2C 64.7177 10.2 64.171 10.3 63.6377 10.5C 63.1043 10.7 62.5577 10.9933 61.9977 11.38L 61.1777 9.68C 62.5243 8.78667 63.9777 8.34 65.5377 8.34C 67.0443 8.34 68.211 8.71333 69.0377 9.46C 69.8777 10.1933 70.2977 11.26 70.2977 12.66L 70.2977 15.92C 70.2977 16.2 70.3443 16.4 70.4377 16.52C 70.5443 16.64 70.711 16.7067 70.9377 16.72L 70.9377 19C 70.4843 19.0933 70.091 19.14 69.7577 19.14C 69.251 19.14 68.8577 19.0267 68.5777 18.8C 68.311 18.5733 68.1443 18.2733 68.0777 17.9L 68.0177 17.32C 67.551 17.9333 66.9843 18.4 66.3177 18.72C 65.651 19.04 64.9377 19.2 64.1777 19.2ZM 64.9377 17.24C 65.391 17.24 65.8177 17.16 66.2177 17C 66.631 16.84 66.951 16.6267 67.1777 16.36C 67.471 16.1333 67.6177 15.88 67.6177 15.6L 67.6177 14.4C 67.2977 14.28 66.951 14.1867 66.5777 14.12C 66.2043 14.04 65.8443 14 65.4977 14C 64.8043 14 64.2377 14.16 63.7977 14.48C 63.3577 14.7867 63.1377 15.18 63.1377 15.66C 63.1377 16.1133 63.311 16.4933 63.6577 16.8C 64.0043 17.0933 64.431 17.24 64.9377 17.24ZM 77.142 19.2C 76.422 19.2 75.7554 19.06 75.142 18.78C 74.5287 18.5 74.002 18.1133 73.562 17.62C 73.122 17.1267 72.7754 16.5533 72.522 15.9C 72.282 15.2333 72.162 14.52 72.162 13.76C 72.162 13 72.2754 12.2933 72.502 11.64C 72.742 10.9867 73.0687 10.4133 73.482 9.92C 73.8954 9.42667 74.3887 9.04 74.962 8.76C 75.5354 8.48 76.162 8.34 76.842 8.34C 77.6154 8.34 78.3087 8.52667 78.922 8.9C 79.5487 9.27333 80.0354 9.76 80.382 10.36L 80.382 4.4L 83.062 4.4L 83.062 15.92C 83.062 16.2 83.1087 16.4 83.202 16.52C 83.2954 16.64 83.4554 16.7067 83.682 16.72L 83.682 19C 83.2154 19.0933 82.8354 19.14 82.542 19.14C 82.062 19.14 81.6687 19.02 81.362 18.78C 81.0554 18.54 80.882 18.2267 80.842 17.84L 80.782 17.18C 80.3954 17.8467 79.8687 18.3533 79.202 18.7C 78.5487 19.0333 77.862 19.2 77.142 19.2ZM 77.842 16.92C 78.0954 16.92 78.3554 16.88 78.622 16.8C 78.8887 16.7067 79.1354 16.58 79.362 16.42C 79.5887 16.26 79.7887 16.0733 79.962 15.86C 80.1487 15.6467 80.2887 15.4133 80.382 15.16L 80.382 12.66C 80.2754 12.3667 80.122 12.1 79.922 11.86C 79.7354 11.6067 79.5154 11.3933 79.262 11.22C 79.022 11.0333 78.762 10.8867 78.482 10.78C 78.2154 10.6733 77.9487 10.62 77.682 10.62C 77.282 10.62 76.9087 10.7067 76.562 10.88C 76.2287 11.0533 75.942 11.2933 75.702 11.6C 75.462 11.8933 75.2754 12.2333 75.142 12.62C 75.0087 13.0067 74.942 13.4067 74.942 13.82C 74.942 14.26 75.0154 14.6667 75.162 15.04C 75.3087 15.4133 75.5087 15.74 75.762 16.02C 76.0154 16.3 76.3154 16.52 76.662 16.68C 77.022 16.84 77.4154 16.92 77.842 16.92ZM 90.5527 19.2C 89.7127 19.2 88.9527 19.06 88.2727 18.78C 87.5927 18.4867 87.0127 18.0933 86.5327 17.6C 86.0527 17.1067 85.6793 16.5333 85.4127 15.88C 85.1593 15.2267 85.0327 14.54 85.0327 13.82C 85.0327 13.0733 85.1593 12.3733 85.4127 11.72C 85.666 11.0533 86.0327 10.4733 86.5127 9.98C 86.9927 9.47333 87.5727 9.07333 88.2527 8.78C 88.946 8.48667 89.7193 8.34 90.5727 8.34C 91.426 8.34 92.186 8.48667 92.8527 8.78C 93.5327 9.07333 94.106 9.46667 94.5727 9.96C 95.0527 10.4533 95.4127 11.0267 95.6527 11.68C 95.906 12.3333 96.0327 13.0133 96.0327 13.72C 96.0327 13.8933 96.026 14.06 96.0127 14.22C 96.0127 14.38 95.9993 14.5133 95.9727 14.62L 87.8727 14.62C 87.9127 15.0333 88.0127 15.4 88.1727 15.72C 88.3327 16.04 88.5393 16.3133 88.7927 16.54C 89.046 16.7667 89.3327 16.94 89.6527 17.06C 89.9727 17.18 90.306 17.24 90.6527 17.24C 91.186 17.24 91.686 17.1133 92.1527 16.86C 92.6327 16.5933 92.9593 16.2467 93.1327 15.82L 95.4327 16.46C 95.046 17.26 94.426 17.92 93.5727 18.44C 92.7327 18.9467 91.726 19.2 90.5527 19.2ZM 93.2727 12.88C 93.206 12.0933 92.9127 11.4667 92.3927 11C 91.886 10.52 91.266 10.28 90.5327 10.28C 90.1727 10.28 89.8327 10.3467 89.5127 10.48C 89.206 10.6 88.9327 10.7733 88.6927 11C 88.4527 11.2267 88.2527 11.5 88.0927 11.82C 87.946 12.14 87.8593 12.4933 87.8327 12.88L 93.2727 12.88ZM 102.73 19L 102.73 4.8L 105.49 4.8L 105.49 19L 102.73 19ZM 111.213 9.9L 111.213 19L 108.453 19L 108.453 4.8L 110.593 4.8L 117.993 14.12L 117.993 4.82L 120.753 4.82L 120.753 19L 118.513 19L 111.213 9.9ZM 122.847 11.8C 122.847 10.9333 123 10.08 123.307 9.24C 123.627 8.38667 124.087 7.62667 124.687 6.96C 125.287 6.29333 126.02 5.75333 126.887 5.34C 127.753 4.92667 128.74 4.72 129.847 4.72C 131.153 4.72 132.28 5.00667 133.227 5.58C 134.187 6.15333 134.9 6.9 135.367 7.82L 133.247 9.28C 133.06 8.88 132.833 8.54667 132.567 8.28C 132.3 8 132.013 7.78 131.707 7.62C 131.4 7.46 131.08 7.34667 130.747 7.28C 130.413 7.2 130.087 7.16 129.767 7.16C 129.073 7.16 128.467 7.3 127.947 7.58C 127.44 7.86 127.013 8.22667 126.667 8.68C 126.333 9.12 126.08 9.62667 125.907 10.2C 125.733 10.76 125.647 11.32 125.647 11.88C 125.647 12.5067 125.747 13.1133 125.947 13.7C 126.147 14.2733 126.427 14.78 126.787 15.22C 127.16 15.66 127.6 16.0133 128.107 16.28C 128.627 16.5467 129.193 16.68 129.807 16.68C 130.127 16.68 130.46 16.64 130.807 16.56C 131.153 16.48 131.48 16.3533 131.787 16.18C 132.107 16.0067 132.4 15.7867 132.667 15.52C 132.933 15.24 133.147 14.9067 133.307 14.52L 135.567 15.82C 135.34 16.3533 135.013 16.8267 134.587 17.24C 134.173 17.64 133.7 17.98 133.167 18.26C 132.647 18.54 132.087 18.7533 131.487 18.9C 130.887 19.0467 130.3 19.12 129.727 19.12C 128.713 19.12 127.787 18.9067 126.947 18.48C 126.107 18.0533 125.38 17.5 124.767 16.82C 124.167 16.1267 123.693 15.3467 123.347 14.48C 123.013 13.6 122.847 12.7067 122.847 11.8Z"/>
<path id="path1_fill" d="M 6.4 21.4348L 1.92 18.2826L 1.92 5.04348L 0 3.78261L 5.12 0L 8.96 8.82609L 6.4 7.56522L 6.4 21.4348Z"/>
<path id="path2_fill" d="M 5.76 21.4348L 1.28 18.2826L 1.28 5.04348L 0 3.78261L 4.48 0L 8.32 8.82609L 5.76 7.56522L 5.76 21.4348Z"/>
</defs>
</svg>
