<svg width="71" height="60" viewBox="0 0 71 60" version="1.1" xmlns="http://www.w3.org/2000/svg" xmlns:xlink="http://www.w3.org/1999/xlink">
<title>money</title>
<desc>Created using Figma</desc>
<g id="Canvas" transform="translate(-286 -764)">
<g id="money">
<g id="Group">
<g id="Group">
<g id="Vector">
<use xlink:href="#path0_fill" transform="translate(334.243 783.192)" fill="#333333"/>
</g>
</g>
</g>
<g id="Group">
<g id="Group">
<g id="Vector">
<use xlink:href="#path1_fill" transform="translate(302.607 783.192)" fill="#333333"/>
</g>
</g>
</g>
<g id="Group">
<g id="Group">
<g id="Vector">
<use xlink:href="#path2_fill" transform="translate(286.789 764.42)" fill="#333333"/>
</g>
</g>
</g>
<g id="Group">
<g id="Group">
<g id="Vector">
<use xlink:href="#path3_fill" transform="translate(286.789 809.786)" fill="#333333"/>
</g>
</g>
</g>
<g id="Group">
<g id="Group">
<g id="Vector">
<use xlink:href="#path4_fill" transform="translate(286.789 817.608)" fill="#333333"/>
</g>
</g>
</g>
<g id="Group">
<g id="Group">
<g id="Vector">
<use xlink:href="#path5_fill" transform="translate(293.116 770.677)" fill="#333333"/>
</g>
</g>
</g>
<g id="Group">
<g id="Group">
<g id="Vector">
<use xlink:href="#path6_fill" transform="translate(312.098 776.935)" fill="#333333"/>
</g>
</g>
</g>
</g>
</g>
<defs>
<path id="path0_fill" d="M 3.16366 6.25745C 4.91089 6.25745 6.32731 4.85667 6.32731 3.12873C 6.32731 1.40078 4.91089 0 3.16366 0C 1.41642 0 0 1.40078 0 3.12873C 0 4.85667 1.41642 6.25745 3.16366 6.25745Z"/>
<path id="path1_fill" d="M 3.16365 6.25745C 4.91089 6.25745 6.3273 4.85667 6.3273 3.12873C 6.3273 1.40078 4.91089 0 3.16365 0C 1.41642 0 0 1.40078 0 3.12873C 0 4.85667 1.41642 6.25745 3.16365 6.25745Z"/>
<path id="path2_fill" d="M 64.8541 5.33346e-08L 34.7998 5.33346e-08L 4.74541 5.33346e-08C 2.05631 5.33346e-08 0 2.03361 0 4.69302L 0 39.1086C 0 41.768 2.05631 43.8016 4.74541 43.8016L 34.7998 43.8016L 64.8541 43.8016C 67.5432 43.8016 69.5995 41.768 69.5995 39.1086L 69.5995 4.69302C 69.5995 2.03361 67.5432 5.33346e-08 64.8541 5.33346e-08ZM 66.4359 39.1086C 66.4359 40.0473 65.8031 40.6729 64.8541 40.6729L 34.7998 40.6729L 4.74541 40.6729C 3.7963 40.6729 3.16365 40.0471 3.16365 39.1086L 3.16365 4.69302C 3.16365 3.75439 3.79644 3.12873 4.74541 3.12873L 34.7998 3.12873L 64.8541 3.12873C 65.8032 3.12873 66.4359 3.75453 66.4359 4.69302L 66.4359 39.1086Z"/>
<path id="path3_fill" d="M 68.0178 1.83799e-06C 67.0687 1.83799e-06 66.436 0.625799 66.436 1.5643C 66.436 2.50279 65.8032 3.12859 64.8543 3.12859L 34.7998 3.12859L 4.74541 3.12859C 3.7963 3.12859 3.16365 2.50279 3.16365 1.5643C 3.16365 0.625799 2.53087 1.83799e-06 1.58189 1.83799e-06C 0.632921 1.83799e-06 0 0.625664 0 1.5643C 0 4.22371 2.05631 6.25732 4.74541 6.25732L 34.7998 6.25732L 64.8541 6.25732C 67.5432 6.25732 69.5995 4.22371 69.5995 1.5643C 69.5995 0.625664 68.9668 1.83799e-06 68.0178 1.83799e-06Z"/>
<path id="path4_fill" d="M 68.0178 1.80517e-06C 67.0687 1.80517e-06 66.436 0.625798 66.436 1.56429C 66.436 2.50279 65.8032 3.12859 64.8543 3.12859L 34.7998 3.12859L 4.74541 3.12859C 3.7963 3.12859 3.16365 2.50279 3.16365 1.56429C 3.16365 0.625798 2.53087 1.80517e-06 1.58189 1.80517e-06C 0.632921 1.80517e-06 0 0.625799 0 1.56443C 0 4.22384 2.05631 6.25745 4.74541 6.25745L 34.7998 6.25745L 64.8541 6.25745C 67.5432 6.25745 69.5995 4.22384 69.5995 1.56443C 69.5995 0.625799 68.9668 1.80517e-06 68.0178 1.80517e-06Z"/>
<path id="path5_fill" d="M 55.363 3.12859C 54.4139 3.12859 53.7813 2.50279 53.7813 1.5643C 53.7813 0.625665 53.1485 2.4616e-07 52.1995 2.4616e-07L 4.74528 2.4616e-07C 3.79617 2.4616e-07 3.16352 0.6258 3.16352 1.5643C 3.16352 2.50293 2.53073 3.12859 1.58176 3.12859C 0.632785 3.12859 1.20305e-07 3.75439 1.20305e-07 4.69289L 1.20305e-07 26.5937C 1.20305e-07 27.5323 0.632785 28.158 1.58176 28.158C 2.53073 28.158 3.16352 28.7838 3.16352 29.7223C 3.16352 30.6608 3.7963 31.2866 4.74528 31.2866L 52.1995 31.2866C 53.1486 31.2866 53.7813 30.6608 53.7813 29.7223C 53.7813 28.7838 54.4141 28.158 55.363 28.158C 56.312 28.158 56.9448 27.5322 56.9448 26.5937L 56.9448 4.69302C 56.9449 3.75439 56.3122 3.12859 55.363 3.12859ZM 53.6231 25.3424C 52.3576 25.8117 51.4085 26.7503 50.934 28.1581L 6.01071 28.1581C 5.53615 26.7502 4.42895 25.8116 3.16352 25.3424L 3.16352 5.94449C 4.58718 5.47517 5.53629 4.38019 6.01071 3.12873L 50.7759 3.12873C 51.2504 4.53667 52.3576 5.47531 53.6231 5.94449L 53.6231 25.3424Z"/>
<path id="path6_fill" d="M 9.49082 0C 4.27086 0 9.29254e-07 4.22371 9.29254e-07 9.38605C 9.29254e-07 14.5484 4.27086 18.7721 9.49082 18.7721C 14.7108 18.7721 18.9816 14.5484 18.9816 9.38605C 18.9816 4.22371 14.7108 0 9.49082 0ZM 9.49082 15.6435C 6.01085 15.6435 3.16365 12.8277 3.16365 9.38618C 3.16365 5.94462 6.01085 3.12886 9.49082 3.12886C 12.9708 3.12886 15.818 5.94462 15.818 9.38618C 15.818 12.8276 12.9708 15.6435 9.49082 15.6435Z"/>
</defs>
</svg>
