<svg width="65" height="66" viewBox="0 0 65 66" version="1.1" xmlns="http://www.w3.org/2000/svg" xmlns:xlink="http://www.w3.org/1999/xlink">
<title>Group</title>
<desc>Created using Figma</desc>
<g id="Canvas" transform="translate(-555 -451)">
<g id="Group">
<g id="Group">
<g id="Vector">
<use xlink:href="#path0_fill" transform="translate(563.055 478.661)" fill="#333333"/>
</g>
<g id="Vector">
<use xlink:href="#path1_fill" transform="translate(591.786 469.871)" fill="#333333"/>
</g>
<g id="Vector">
<use xlink:href="#path2_fill" transform="translate(568.378 487.342)" fill="#333333"/>
</g>
<g id="Vector">
<use xlink:href="#path3_fill" transform="translate(568.378 492.767)" fill="#333333"/>
</g>
<g id="Vector">
<use xlink:href="#path4_fill" transform="translate(568.378 498.193)" fill="#333333"/>
</g>
<g id="Vector">
<use xlink:href="#path5_fill" transform="translate(555.603 451.533)" fill="#333333"/>
</g>
<g id="Vector">
<use xlink:href="#path6_fill" transform="translate(591.801 492.767)" fill="#333333"/>
</g>
<g id="Vector">
<use xlink:href="#path7_fill" transform="translate(589.671 498.193)" fill="#333333"/>
</g>
</g>
</g>
</g>
<defs>
<path id="path0_fill" d="M 12.0306 0.976599C 11.4982 0.325533 10.6466 -9.4688e-07 9.79483 -9.4688e-07L 3.19395 -9.4688e-07C 1.384 -9.4688e-07 2.13219e-07 1.4106 2.13219e-07 3.25533L 2.13219e-07 26.0426C 2.13219e-07 27.8874 1.384 29.298 3.19395 29.298L 13.8404 29.298C 15.6504 29.298 17.0344 27.8874 17.0344 26.0426L 17.0344 7.37879C 17.0344 6.51066 16.715 5.75112 16.0762 5.10006L 12.0306 0.976599ZM 14.9052 26.0426C 14.9052 26.6937 14.4793 27.1277 13.8405 27.1277L 3.19395 27.1277C 2.55516 27.1277 2.12934 26.6937 2.12934 26.0426L 2.12934 3.25533C 2.12934 2.60426 2.55516 2.17026 3.19395 2.17026L 9.79483 2.17026C 10.1142 2.17026 10.3272 2.27873 10.54 2.4958L 14.5858 6.61925C 14.7987 6.83632 14.9052 7.05325 14.9052 7.37879L 14.9052 26.0426Z"/>
<path id="path1_fill" d="M 5.01876 18.447C 5.55113 18.5555 5.97695 18.5555 6.40277 18.5555C 7.89332 18.5555 9.27733 18.0129 10.3419 17.0363C 11.8325 15.7342 12.6841 13.8895 12.6841 11.9363C 12.6841 10.9597 12.3647 9.98306 11.8324 9.11493L 11.3 8.2468C 10.5548 7.05313 9.80944 5.8596 9.17065 4.55746L 7.25428 0.651066C 7.04131 0.217065 6.72191 7.14041e-07 6.29609 7.14041e-07C 5.87027 7.14041e-07 5.55088 0.325533 5.33791 0.651066L 3.84735 3.79793C 3.10214 5.42559 2.25038 7.16173 1.07922 8.68093C 0.440426 9.54906 0.121032 10.5257 0.0146088 11.6107C -0.197989 14.8662 1.93123 17.796 5.01876 18.447ZM 2.25063 11.8279C 2.25063 11.1768 2.4636 10.6343 2.88942 10.0918C 4.06058 8.35565 5.01876 6.51092 5.8704 4.77478L 6.40277 3.58112L 7.36095 5.53432C 7.99974 6.94492 8.85151 8.13858 9.59672 9.44071L 10.2355 10.4173C 10.6613 10.9599 10.7679 11.5024 10.7679 12.1534C 10.7679 13.4556 10.1291 14.6492 9.1709 15.5172C 8.10629 16.3854 6.82871 16.7109 5.55113 16.3854C 3.52821 15.9512 2.1442 13.9981 2.25063 11.8279Z"/>
<path id="path2_fill" d="M 4.25856 7.76131e-07L 1.06461 7.76131e-07C 0.425819 7.76131e-07 1.90375e-07 0.434001 1.90375e-07 1.08507C 1.90375e-07 1.73613 0.425819 2.17013 1.06461 2.17013L 4.25856 2.17013C 4.89736 2.17013 5.32317 1.73613 5.32317 1.08507C 5.32317 0.434001 4.89736 7.76131e-07 4.25856 7.76131e-07Z"/>
<path id="path3_fill" d="M 4.25856 -2.17317e-07L 1.06461 -2.17317e-07C 0.425819 -2.17317e-07 1.90375e-07 0.434 1.90375e-07 1.08507C 1.90375e-07 1.73613 0.425819 2.17014 1.06461 2.17014L 4.25856 2.17014C 4.89736 2.17014 5.32317 1.73613 5.32317 1.08507C 5.3233 0.434 4.89736 -2.17317e-07 4.25856 -2.17317e-07Z"/>
<path id="path4_fill" d="M 4.25856 1.76958e-06L 1.06461 1.76958e-06C 0.425819 1.76958e-06 1.90375e-07 0.434002 1.90375e-07 1.08507C 1.90375e-07 1.73613 0.425819 2.17013 1.06461 2.17013L 4.25856 2.17013C 4.89736 2.17013 5.32317 1.73613 5.32317 1.08507C 5.32317 0.434002 4.89736 1.76958e-06 4.25856 1.76958e-06Z"/>
<path id="path5_fill" d="M 62.2821 16.4937L 54.0842 8.13832C 53.126 7.05326 51.742 6.51066 50.3579 6.51066L 37.2627 6.51066L 37.2627 3.25533C 37.2627 1.4106 35.8787 0 34.0687 0L 29.8102 0C 28.0002 0 26.6162 1.4106 26.6162 3.25533L 26.6162 6.51066C 23.6352 6.51066 21.2929 8.89786 21.2929 11.9363L 21.2929 18.7699C 20.7145 18.555 20.0989 18.4469 19.483 18.4469L 10.6465 18.4469L 10.6465 15.1916C 10.6465 13.3469 9.26246 11.9363 7.45251 11.9363L 5.32329 11.9363C 3.51335 11.9363 2.12934 13.3469 2.12934 15.1916L 2.12934 18.664C 0.851762 19.098 0 20.2915 0 21.7022L 0 61.8513C 0 63.696 1.384 65.1066 3.19395 65.1066L 28.7456 65.1066L 58.5557 65.1066C 61.5368 65.1066 63.879 62.7194 63.879 59.681L 63.879 20.2915C 63.879 18.8809 63.2402 17.4703 62.2821 16.4937ZM 29.8102 26.2597L 29.8102 16.2766C 29.8102 15.6256 30.236 15.1916 30.8748 15.1916L 47.8027 15.1916C 48.6545 15.1916 49.3997 15.5171 50.0385 16.1682L 54.4036 20.6172C 55.0424 21.1598 55.3618 22.0278 55.3618 22.8959L 55.3618 55.3406C 55.3618 55.9917 54.936 56.4257 54.2972 56.4257L 33.0041 56.4257C 32.3653 56.4257 31.9395 55.9917 31.9395 55.3406L 31.9395 31.1427L 31.9395 31.0342L 31.9395 30.1661C 31.9395 29.298 31.6201 28.5384 30.9813 27.8874L 30.3425 27.2363L 30.1296 27.0192C 29.9167 26.8022 29.8102 26.5852 29.8102 26.2597ZM 2.12934 61.8513L 2.12934 21.7022C 2.12934 21.0512 2.55516 20.6172 3.19395 20.6172C 3.83274 20.6172 4.25856 20.1832 4.25856 19.5321L 4.25856 15.1917C 4.25856 14.5406 4.68438 14.1066 5.32317 14.1066L 7.45251 14.1066C 8.0913 14.1066 8.51712 14.5406 8.51712 15.1917L 8.51712 19.532C 8.51712 20.183 8.94294 20.617 9.58173 20.617L 19.483 20.617C 20.3347 20.617 21.08 20.9426 21.7187 21.5936L 28.8519 28.8638C 29.4907 29.4064 29.8101 30.2744 29.8101 31.1426L 29.8101 55.3406L 29.8101 61.8513C 29.8101 62.5023 29.3842 62.9363 28.7454 62.9363L 3.19395 62.9363C 2.55516 62.9363 2.12934 62.5023 2.12934 61.8513ZM 61.7497 59.681C 61.7497 61.5257 60.3657 62.9363 58.5557 62.9363L 31.7678 62.9363C 31.8789 62.5991 31.9395 62.2348 31.9395 61.8513L 31.9395 58.421C 32.2704 58.5341 32.6278 58.5959 33.0041 58.5959L 54.2972 58.5959C 56.1071 58.5959 57.4911 57.1853 57.4911 55.3406L 57.4911 22.8958C 57.4911 21.4852 56.8523 20.0744 55.8942 19.0979L 51.529 14.649C 50.5709 13.5639 49.1869 13.0213 47.8027 13.0213L 30.8748 13.0213C 29.0648 13.0213 27.6808 14.4319 27.6808 16.2766L 27.6808 24.5234L 23.4223 20.183L 23.4223 11.9363C 23.4223 10.0915 24.8063 8.68092 26.6162 8.68092L 27.6808 8.68092C 28.3196 8.68092 28.7454 8.24692 28.7454 7.59585L 28.7454 3.25533C 28.7454 2.60426 29.1713 2.17026 29.8101 2.17026L 34.0686 2.17026C 34.7074 2.17026 35.1332 2.60426 35.1332 3.25533L 35.1332 7.59573C 35.1332 8.24679 35.559 8.68079 36.1978 8.68079L 50.3576 8.68079C 51.2094 8.68079 52.061 9.00633 52.5934 9.65739L 60.7913 18.0128C 61.43 18.5554 61.7494 19.4234 61.7494 20.2915L 61.7494 59.681L 61.7497 59.681Z"/>
<path id="path6_fill" d="M 11.7111 -2.17317e-07L 1.06461 -2.17317e-07C 0.425818 -2.17317e-07 3.35059e-07 0.434 3.35059e-07 1.08507C 3.35059e-07 1.73613 0.425818 2.17014 1.06461 2.17014L 11.7111 2.17014C 12.3499 2.17014 12.7757 1.73613 12.7757 1.08507C 12.7757 0.434 12.3499 -2.17317e-07 11.7111 -2.17317e-07Z"/>
<path id="path7_fill" d="M 1.06461 2.17013L 15.9698 2.17013C 16.6086 2.17013 17.0344 1.73613 17.0344 1.08507C 17.0344 0.434001 16.6086 -1.21076e-06 15.9698 -1.21076e-06L 1.06461 -1.21076e-06C 0.42582 -1.21076e-06 -1.73622e-06 0.434001 -1.73622e-06 1.08507C -1.73622e-06 1.73613 0.42582 2.17013 1.06461 2.17013Z"/>
</defs>
</svg>
