<svg width="78" height="65" viewBox="0 0 78 65" version="1.1" xmlns="http://www.w3.org/2000/svg" xmlns:xlink="http://www.w3.org/1999/xlink">
<title>apartment</title>
<desc>Created using Figma</desc>
<g id="Canvas" transform="translate(250 -452)">
<g id="apartment">
<g id="Group">
<g id="Group">
<g id="Group">
<g id="Vector">
<use xlink:href="#path0_fill" transform="translate(-249.025 452.533)" fill="#333333"/>
</g>
<g id="Vector">
<use xlink:href="#path1_fill" transform="translate(-208.346 480.337)" fill="#333333"/>
</g>
<g id="Vector">
<use xlink:href="#path2_fill" transform="translate(-208.346 499.586)" fill="#333333"/>
</g>
<g id="Vector">
<use xlink:href="#path3_fill" transform="translate(-208.346 486.753)" fill="#333333"/>
</g>
<g id="Vector">
<use xlink:href="#path4_fill" transform="translate(-208.346 493.169)" fill="#333333"/>
</g>
<g id="Vector">
<use xlink:href="#path5_fill" transform="translate(-208.346 473.921)" fill="#333333"/>
</g>
<g id="Vector">
<use xlink:href="#path6_fill" transform="translate(-200.718 480.337)" fill="#333333"/>
</g>
<g id="Vector">
<use xlink:href="#path7_fill" transform="translate(-200.718 473.921)" fill="#333333"/>
</g>
<g id="Vector">
<use xlink:href="#path8_fill" transform="translate(-200.718 486.753)" fill="#333333"/>
</g>
<g id="Vector">
<use xlink:href="#path9_fill" transform="translate(-200.718 493.169)" fill="#333333"/>
</g>
<g id="Vector">
<use xlink:href="#path10_fill" transform="translate(-200.718 499.586)" fill="#333333"/>
</g>
<g id="Vector">
<use xlink:href="#path11_fill" transform="translate(-193.091 486.753)" fill="#333333"/>
</g>
<g id="Vector">
<use xlink:href="#path12_fill" transform="translate(-193.091 480.337)" fill="#333333"/>
</g>
<g id="Vector">
<use xlink:href="#path13_fill" transform="translate(-193.091 499.586)" fill="#333333"/>
</g>
<g id="Vector">
<use xlink:href="#path14_fill" transform="translate(-193.091 493.169)" fill="#333333"/>
</g>
<g id="Vector">
<use xlink:href="#path15_fill" transform="translate(-193.091 473.921)" fill="#333333"/>
</g>
<g id="Vector">
<use xlink:href="#path16_fill" transform="translate(-236.312 488.892)" fill="#333333"/>
</g>
<g id="Vector">
<use xlink:href="#path17_fill" transform="translate(-236.312 495.308)" fill="#333333"/>
</g>
<g id="Vector">
<use xlink:href="#path18_fill" transform="translate(-236.312 501.725)" fill="#333333"/>
</g>
<g id="Vector">
<use xlink:href="#path19_fill" transform="translate(-236.312 456.81)" fill="#333333"/>
</g>
<g id="Vector">
<use xlink:href="#path20_fill" transform="translate(-236.312 463.227)" fill="#333333"/>
</g>
<g id="Vector">
<use xlink:href="#path21_fill" transform="translate(-236.312 469.643)" fill="#333333"/>
</g>
<g id="Vector">
<use xlink:href="#path22_fill" transform="translate(-236.312 476.059)" fill="#333333"/>
</g>
<g id="Vector">
<use xlink:href="#path23_fill" transform="translate(-236.312 482.476)" fill="#333333"/>
</g>
<g id="Vector">
<use xlink:href="#path24_fill" transform="translate(-228.685 463.227)" fill="#333333"/>
</g>
<g id="Vector">
<use xlink:href="#path25_fill" transform="translate(-228.685 456.81)" fill="#333333"/>
</g>
<g id="Vector">
<use xlink:href="#path26_fill" transform="translate(-228.685 476.059)" fill="#333333"/>
</g>
<g id="Vector">
<use xlink:href="#path27_fill" transform="translate(-228.685 469.643)" fill="#333333"/>
</g>
<g id="Vector">
<use xlink:href="#path28_fill" transform="translate(-228.685 482.476)" fill="#333333"/>
</g>
<g id="Vector">
<use xlink:href="#path29_fill" transform="translate(-228.685 488.892)" fill="#333333"/>
</g>
<g id="Vector">
<use xlink:href="#path30_fill" transform="translate(-228.685 495.308)" fill="#333333"/>
</g>
<g id="Vector">
<use xlink:href="#path31_fill" transform="translate(-221.058 469.643)" fill="#333333"/>
</g>
<g id="Vector">
<use xlink:href="#path32_fill" transform="translate(-221.058 463.227)" fill="#333333"/>
</g>
<g id="Vector">
<use xlink:href="#path33_fill" transform="translate(-221.058 456.81)" fill="#333333"/>
</g>
<g id="Vector">
<use xlink:href="#path34_fill" transform="translate(-221.058 495.308)" fill="#333333"/>
</g>
<g id="Vector">
<use xlink:href="#path35_fill" transform="translate(-221.058 488.892)" fill="#333333"/>
</g>
<g id="Vector">
<use xlink:href="#path36_fill" transform="translate(-221.058 482.476)" fill="#333333"/>
</g>
<g id="Vector">
<use xlink:href="#path37_fill" transform="translate(-221.058 476.059)" fill="#333333"/>
</g>
<g id="Vector">
<use xlink:href="#path38_fill" transform="translate(-213.43 463.227)" fill="#333333"/>
</g>
<g id="Vector">
<use xlink:href="#path39_fill" transform="translate(-213.43 456.81)" fill="#333333"/>
</g>
</g>
</g>
</g>
</g>
</g>
<defs>
<path id="path0_fill" d="M 75.0023 62.0242L 69.8388 62.0242C 69.893 61.6728 69.9175 61.314 69.9175 60.9549C 69.9175 57.9364 67.8526 55.3671 64.8326 54.1774L 64.8326 18.1795C 64.8326 17.5378 64.3242 17.1101 63.5614 17.1101L 44.4931 17.1101L 44.4931 1.06934C 44.4931 0.427713 43.9846 2.59177e-08 43.2219 2.59177e-08L 8.89882 2.59177e-08C 8.13579 -0.000125293 7.62735 0.427587 7.62735 1.06922L 7.62735 62.0242L 1.27118 62.0242C 0.50844 62.0242 -1.32313e-16 62.4519 -1.32313e-16 63.0935C -1.32313e-16 63.7352 0.50844 64.163 1.27118 64.163L 8.89852 64.163L 12.7122 64.163L 43.2216 64.163L 68.2648 64.163L 75.0023 64.163C 75.765 64.163 76.2735 63.7353 76.2735 63.0937C 76.2735 62.452 75.765 62.0242 75.0023 62.0242ZM 62.29 53.5446C 61.8751 53.4959 61.4511 53.4691 61.0188 53.4691C 60.0591 53.4691 59.1178 53.6065 58.2284 53.8636C 58.0069 53.6152 57.6498 53.4691 57.2051 53.4691C 56.4424 53.4691 55.9339 53.8968 55.9339 54.5384L 55.9339 54.8661C 55.4522 55.1581 55.0042 55.4912 54.5977 55.8615C 54.5335 55.9187 54.4703 55.9766 54.4085 56.0355C 53.3551 54.9278 51.9983 54.1265 50.4641 53.7364C 50.2438 53.5663 49.9401 53.4689 49.5778 53.4689C 49.4361 53.4689 49.3032 53.4839 49.1806 53.5121C 48.8935 53.4839 48.602 53.4689 48.3066 53.4689C 47.5099 53.4689 46.6128 53.5559 45.8859 53.8042C 45.796 53.8297 45.7066 53.8561 45.6181 53.8843C 44.7396 53.2835 43.7122 52.851 42.6294 52.613C 42.618 52.6104 42.6062 52.6085 42.5949 52.6059C 42.5004 52.5855 42.4057 52.566 42.3105 52.5486C 42.2333 52.5343 42.1553 52.5219 42.0773 52.5096C 42.0435 52.5044 42.0097 52.4987 41.9757 52.4938C 41.894 52.4819 41.8119 52.4714 41.7292 52.4618C 41.6922 52.4574 41.6553 52.4535 41.6182 52.4496C 41.5424 52.4417 41.4663 52.4343 41.3897 52.4284C 41.3338 52.424 41.2778 52.4208 41.2218 52.4174C 41.1619 52.4139 41.1022 52.4098 41.0418 52.4074C 40.921 52.4025 40.8002 52.3995 40.6792 52.3995C 40.5857 52.3995 40.4929 52.4011 40.4005 52.404C 40.34 52.4057 40.2797 52.4089 40.2194 52.4118C 40.1952 52.413 40.1708 52.4139 40.1467 52.4153C 38.9886 52.4799 37.8507 52.7549 36.8654 53.2419L 36.8654 19.2488L 43.2216 19.2488L 62.29 19.2488L 62.29 53.5446ZM 10.1698 2.13869L 41.9504 2.13869L 41.9504 17.1101L 35.5942 17.1101C 34.8315 17.1101 34.3231 17.5378 34.3231 18.1795L 34.3231 51.4374C 33.6734 50.8909 32.9245 50.4286 32.1092 50.0668C 32.0372 50.0345 31.9645 50.0031 31.8916 49.9726C 31.8628 49.9607 31.8343 49.9482 31.8054 49.9366C 30.8982 49.5664 29.911 49.3235 28.8793 49.2327C 28.8649 49.2314 28.8503 49.2304 28.8357 49.2292C 28.7159 49.2191 28.5956 49.2112 28.4746 49.2054C 28.4426 49.2037 28.4105 49.2021 28.3784 49.2007C 28.2417 49.1953 28.1047 49.1917 27.9669 49.1917C 26.075 49.1917 24.3222 49.7152 22.882 50.5949L 22.882 50.2612C 22.882 49.6195 22.3736 49.1918 21.6109 49.1918C 20.8481 49.1918 20.3397 49.6195 20.3397 50.2612L 20.3397 52.4C 20.3397 52.5604 20.3714 52.7074 20.431 52.8377C 19.8068 53.703 19.3767 54.6785 19.1956 55.7152C 17.7321 55.8559 16.3939 56.2989 15.2548 56.9612L 15.2548 56.6776C 15.2548 56.036 14.7464 55.6083 13.9837 55.6083C 13.2209 55.6083 12.7125 56.036 12.7125 56.6776L 12.7125 58.8164C 12.7125 58.9412 12.7323 59.0577 12.769 59.1647C 12.1387 60.0222 11.7098 60.9926 11.5331 62.0245L 10.1701 62.0245L 10.1701 2.13869L 10.1698 2.13869ZM 19.7611 57.7689C 19.7863 57.767 19.8117 57.7657 19.8371 57.7641C 19.9041 57.7597 19.9711 57.7555 20.0388 57.7528C 20.1384 57.7491 20.2387 57.7466 20.3397 57.7466C 21.1024 57.7466 21.6109 57.3189 21.6109 56.6772C 21.6109 53.683 24.4075 51.3303 27.967 51.3303C 31.1451 51.3303 33.8146 53.2552 34.196 55.9286C 34.282 56.2178 34.486 56.4562 34.7652 56.6146C 34.7828 56.625 34.8008 56.6347 34.8191 56.6444C 34.8388 56.6545 34.8583 56.6648 34.8787 56.6741C 34.9257 56.6959 34.9745 56.7158 35.0255 56.733C 35.0274 56.7336 35.0292 56.7342 35.0311 56.735C 35.0894 56.7546 35.1502 56.771 35.2129 56.7841C 35.213 56.7841 35.213 56.7841 35.2132 56.7843C 35.2888 56.8054 35.3748 56.8136 35.4657 56.8112C 35.8835 56.8163 36.2722 56.6241 36.4842 56.3568C 36.4842 56.3567 36.4843 56.3567 36.4845 56.3565L 36.6116 56.2496C 37.6286 55.1803 39.0268 54.5387 40.6795 54.5387C 41.5379 54.5387 42.3958 54.7409 43.1659 55.1191C 41.6495 56.3186 40.7896 57.8822 40.6897 59.5552C 40.683 59.6646 40.6795 59.7749 40.6795 59.8856C 40.6795 60.6293 40.8266 61.342 41.1175 62.0245L 14.1106 62.0245C 14.7056 59.722 16.9714 57.982 19.7611 57.7689ZM 44.1185 62.0242C 43.6329 61.3332 43.3488 60.5162 43.3488 59.7785C 43.3488 58.596 43.903 57.5307 44.8555 56.7519C 45.0376 56.6099 45.2317 56.4789 45.4367 56.3602C 45.6352 56.3614 45.835 56.3266 46.0184 56.2495C 48.815 54.9663 52.1203 56.1426 53.1373 58.4952C 53.2644 58.816 53.6457 59.1369 54.2814 59.1369C 54.4021 59.1369 54.5355 59.1045 54.6696 59.0471C 54.9886 59.0031 55.2408 58.8061 55.4255 58.4952C 55.9181 57.6146 56.6809 56.9116 57.6093 56.4187C 57.8096 56.3717 57.9817 56.2885 58.1186 56.1756C 58.9917 55.8064 59.9815 55.6079 61.0189 55.6079C 64.5783 55.6079 67.3751 57.9605 67.3751 60.9549C 67.3751 61.2757 67.3751 61.7034 67.248 62.0242L 44.1185 62.0242Z"/>
<path id="path1_fill" d="M 1.27118 5.50718e-07C 0.508441 5.50718e-07 -2.07309e-06 0.427713 -2.07309e-06 1.06934L -2.07309e-06 3.20816C -2.07309e-06 3.84979 0.508441 4.27751 1.27118 4.27751C 2.03391 4.27751 2.54235 3.84979 2.54235 3.20816L 2.54235 1.06934C 2.54235 0.427713 2.03391 5.50718e-07 1.27118 5.50718e-07Z"/>
<path id="path2_fill" d="M 1.27118 1.3156e-06C 0.508441 1.3156e-06 -2.07309e-06 0.427713 -2.07309e-06 1.06934L -2.07309e-06 3.20816C -2.07309e-06 3.84979 0.508441 4.2775 1.27118 4.2775C 2.03391 4.2775 2.54235 3.84979 2.54235 3.20816L 2.54235 1.06934C 2.54235 0.427713 2.03391 1.3156e-06 1.27118 1.3156e-06Z"/>
<path id="path3_fill" d="M 1.27118 -1.74393e-06C 0.508441 -1.74393e-06 -2.07309e-06 0.427713 -2.07309e-06 1.06934L -2.07309e-06 3.20815C -2.07309e-06 3.84978 0.508441 4.2775 1.27118 4.2775C 2.03391 4.2775 2.54235 3.84978 2.54235 3.20815L 2.54235 1.06934C 2.54235 0.427713 2.03391 -1.74393e-06 1.27118 -1.74393e-06Z"/>
<path id="path4_fill" d="M 1.27118 -2.14167e-07C 0.508441 -2.14167e-07 -2.07309e-06 0.42771 -2.07309e-06 1.06934L -2.07309e-06 3.20815C -2.07309e-06 3.84978 0.508441 4.27749 1.27118 4.27749C 2.03391 4.27749 2.54235 3.84978 2.54235 3.20815L 2.54235 1.06934C 2.54235 0.42771 2.03391 -2.14167e-07 1.27118 -2.14167e-07Z"/>
<path id="path5_fill" d="M 1.27118 9.33159e-07C 0.508441 9.33159e-07 -2.07309e-06 0.427712 -2.07309e-06 1.06934L -2.07309e-06 3.20816C -2.07309e-06 3.84979 0.508441 4.2775 1.27118 4.2775C 2.03391 4.2775 2.54235 3.84979 2.54235 3.20816L 2.54235 1.06934C 2.54235 0.427712 2.03391 9.33159e-07 1.27118 9.33159e-07Z"/>
<path id="path6_fill" d="M 1.27117 4.27751C 2.03391 4.27751 2.54235 3.84979 2.54235 3.20816L 2.54235 1.06934C 2.54235 0.427713 2.03391 5.50718e-07 1.27117 5.50718e-07C 0.508439 5.50718e-07 -2.5459e-07 0.427713 -2.5459e-07 1.06934L -2.5459e-07 3.20816C -2.5459e-07 3.84979 0.508439 4.27751 1.27117 4.27751Z"/>
<path id="path7_fill" d="M 1.27117 4.2775C 2.03391 4.2775 2.54235 3.84979 2.54235 3.20816L 2.54235 1.06934C 2.54235 0.427712 2.03391 9.33159e-07 1.27117 9.33159e-07C 0.508439 9.33159e-07 -2.5459e-07 0.427712 -2.5459e-07 1.06934L -2.5459e-07 3.20816C -2.5459e-07 3.84979 0.508439 4.2775 1.27117 4.2775Z"/>
<path id="path8_fill" d="M 1.27117 4.2775C 2.03391 4.2775 2.54235 3.84978 2.54235 3.20815L 2.54235 1.06934C 2.54235 0.427713 2.03391 -1.74393e-06 1.27117 -1.74393e-06C 0.508439 -1.74393e-06 -2.5459e-07 0.427713 -2.5459e-07 1.06934L -2.5459e-07 3.20815C -2.5459e-07 3.84978 0.508439 4.2775 1.27117 4.2775Z"/>
<path id="path9_fill" d="M 1.27117 4.27749C 2.03391 4.27749 2.54235 3.84978 2.54235 3.20815L 2.54235 1.06934C 2.54235 0.42771 2.03391 -2.14167e-07 1.27117 -2.14167e-07C 0.508439 -2.14167e-07 -2.5459e-07 0.42771 -2.5459e-07 1.06934L -2.5459e-07 3.20815C -2.5459e-07 3.84978 0.508439 4.27749 1.27117 4.27749Z"/>
<path id="path10_fill" d="M 1.27117 4.2775C 2.03391 4.2775 2.54235 3.84979 2.54235 3.20816L 2.54235 1.06934C 2.54235 0.427713 2.03391 1.3156e-06 1.27117 1.3156e-06C 0.508439 1.3156e-06 -2.5459e-07 0.427713 -2.5459e-07 1.06934L -2.5459e-07 3.20816C -2.5459e-07 3.84979 0.508439 4.2775 1.27117 4.2775Z"/>
<path id="path11_fill" d="M 1.27117 4.2775C 2.0339 4.2775 2.54234 3.84978 2.54234 3.20815L 2.54234 1.06934C 2.54234 0.427713 2.0339 -1.74393e-06 1.27117 -1.74393e-06C 0.508439 -1.74393e-06 1.56391e-06 0.427713 1.56391e-06 1.06934L 1.56391e-06 3.20815C 1.56391e-06 3.84978 0.508439 4.2775 1.27117 4.2775Z"/>
<path id="path12_fill" d="M 1.27117 4.27751C 2.0339 4.27751 2.54234 3.84979 2.54234 3.20816L 2.54234 1.06934C 2.54234 0.427713 2.0339 5.50718e-07 1.27117 5.50718e-07C 0.508439 5.50718e-07 1.56391e-06 0.427713 1.56391e-06 1.06934L 1.56391e-06 3.20816C 1.56391e-06 3.84979 0.508439 4.27751 1.27117 4.27751Z"/>
<path id="path13_fill" d="M 1.27117 4.2775C 2.0339 4.2775 2.54234 3.84979 2.54234 3.20816L 2.54234 1.06934C 2.54234 0.427713 2.0339 1.3156e-06 1.27117 1.3156e-06C 0.508439 1.3156e-06 1.56391e-06 0.427713 1.56391e-06 1.06934L 1.56391e-06 3.20816C 1.56391e-06 3.84979 0.508439 4.2775 1.27117 4.2775Z"/>
<path id="path14_fill" d="M 1.27117 4.27749C 2.0339 4.27749 2.54234 3.84978 2.54234 3.20815L 2.54234 1.06934C 2.54234 0.42771 2.0339 -2.14167e-07 1.27117 -2.14167e-07C 0.508439 -2.14167e-07 1.56391e-06 0.42771 1.56391e-06 1.06934L 1.56391e-06 3.20815C 1.56391e-06 3.84978 0.508439 4.27749 1.27117 4.27749Z"/>
<path id="path15_fill" d="M 1.27117 4.2775C 2.0339 4.2775 2.54234 3.84979 2.54234 3.20816L 2.54234 1.06934C 2.54234 0.427712 2.0339 9.33159e-07 1.27117 9.33159e-07C 0.508439 9.33159e-07 1.56391e-06 0.427712 1.56391e-06 1.06934L 1.56391e-06 3.20816C 1.56391e-06 3.84979 0.508439 4.2775 1.27117 4.2775Z"/>
<path id="path16_fill" d="M 1.27117 4.2775C 2.03391 4.2775 2.54235 3.84979 2.54235 3.20816L 2.54235 1.06934C 2.54235 0.427712 2.03391 3.36549e-07 1.27117 3.36549e-07C 0.508439 3.36549e-07 -2.18372e-08 0.427712 -2.18372e-08 1.06934L -2.18372e-08 3.20816C -0.000148993 3.84967 0.508439 4.2775 1.27117 4.2775Z"/>
<path id="path17_fill" d="M 1.27117 4.2775C 2.03391 4.2775 2.54235 3.84978 2.54235 3.20815L 2.54235 1.06934C 2.54235 0.427713 2.03391 1.86632e-06 1.27117 1.86632e-06C 0.508439 1.86632e-06 -2.18372e-08 0.427713 -2.18372e-08 1.06934L -2.18372e-08 3.20815C -0.000148993 3.84966 0.508439 4.2775 1.27117 4.2775Z"/>
<path id="path18_fill" d="M 1.27117 4.27752C 2.03391 4.27752 2.54235 3.84981 2.54235 3.20817L 2.54235 1.06935C 2.54235 0.427713 2.03391 -4.28337e-07 1.27117 -4.28337e-07C 0.508439 -4.28337e-07 -2.18372e-08 0.427713 -2.18372e-08 1.06935L -2.18372e-08 3.20817C -0.000148993 3.84968 0.508439 4.27752 1.27117 4.27752Z"/>
<path id="path19_fill" d="M 1.27117 4.2775C 2.03391 4.2775 2.54235 3.84979 2.54235 3.20816L 2.54235 1.06934C 2.54235 0.427712 2.03391 -1.41504e-07 1.27117 -1.41504e-07C 0.508439 -1.41504e-07 -2.18372e-08 0.427712 -2.18372e-08 1.06934L -2.18372e-08 3.20816C -0.000148993 3.84966 0.508439 4.2775 1.27117 4.2775Z"/>
<path id="path20_fill" d="M 1.27117 4.2775C 2.03391 4.2775 2.54235 3.84979 2.54235 3.20816L 2.54235 1.06934C 2.54235 0.427712 2.03391 -4.5893e-08 1.27117 -4.5893e-08C 0.508439 -4.5893e-08 -2.18372e-08 0.427712 -2.18372e-08 1.06934L -2.18372e-08 3.20816C -0.000148993 3.84966 0.508439 4.2775 1.27117 4.2775Z"/>
<path id="path21_fill" d="M 1.27117 4.2775C 2.03391 4.2775 2.54235 3.84979 2.54235 3.20816L 2.54235 1.06934C 2.54235 0.427713 2.03391 -4.28335e-07 1.27117 -4.28335e-07C 0.508439 -4.28335e-07 -2.18372e-08 0.427713 -2.18372e-08 1.06934L -2.18372e-08 3.20816C -0.000148993 3.84966 0.508439 4.2775 1.27117 4.2775Z"/>
<path id="path22_fill" d="M 1.27117 4.2775C 2.03391 4.2775 2.54235 3.84978 2.54235 3.20815L 2.54235 1.06934C 2.54235 0.427712 2.03391 -8.10776e-07 1.27117 -8.10776e-07C 0.508439 -8.10776e-07 -2.18372e-08 0.427712 -2.18372e-08 1.06934L -2.18372e-08 3.20815C -0.000148993 3.84966 0.508439 4.2775 1.27117 4.2775Z"/>
<path id="path23_fill" d="M 1.27117 4.2775C 2.03391 4.2775 2.54235 3.84979 2.54235 3.20816L 2.54235 1.06934C 2.54235 0.427712 2.03391 7.18991e-07 1.27117 7.18991e-07C 0.508439 7.18991e-07 -2.18372e-08 0.427712 -2.18372e-08 1.06934L -2.18372e-08 3.20816C -0.000148993 3.84966 0.508439 4.2775 1.27117 4.2775Z"/>
<path id="path24_fill" d="M 1.27118 4.2775C 2.03391 4.2775 2.54235 3.84979 2.54235 3.20816L 2.54235 1.06934C 2.54235 0.427712 2.03391 -4.5893e-08 1.27118 -4.5893e-08C 0.508441 -4.5893e-08 -4.76463e-07 0.427712 -4.76463e-07 1.06934L -4.76463e-07 3.20816C -0.000149448 3.84966 0.508441 4.2775 1.27118 4.2775Z"/>
<path id="path25_fill" d="M 1.27118 4.2775C 2.03391 4.2775 2.54235 3.84979 2.54235 3.20816L 2.54235 1.06934C 2.54235 0.427712 2.03391 -1.41504e-07 1.27118 -1.41504e-07C 0.508441 -1.41504e-07 -4.76463e-07 0.427712 -4.76463e-07 1.06934L -4.76463e-07 3.20816C -0.000149448 3.84966 0.508441 4.2775 1.27118 4.2775Z"/>
<path id="path26_fill" d="M 1.27118 4.2775C 2.03391 4.2775 2.54235 3.84978 2.54235 3.20815L 2.54235 1.06934C 2.54235 0.427712 2.03391 -8.10776e-07 1.27118 -8.10776e-07C 0.508441 -8.10776e-07 -4.76463e-07 0.427712 -4.76463e-07 1.06934L -4.76463e-07 3.20815C -0.000149448 3.84966 0.508441 4.2775 1.27118 4.2775Z"/>
<path id="path27_fill" d="M 1.27118 4.2775C 2.03391 4.2775 2.54235 3.84979 2.54235 3.20816L 2.54235 1.06934C 2.54235 0.427713 2.03391 -4.28335e-07 1.27118 -4.28335e-07C 0.508441 -4.28335e-07 -4.76463e-07 0.427713 -4.76463e-07 1.06934L -4.76463e-07 3.20816C -0.000149448 3.84966 0.508441 4.2775 1.27118 4.2775Z"/>
<path id="path28_fill" d="M 1.27118 4.2775C 2.03391 4.2775 2.54235 3.84979 2.54235 3.20816L 2.54235 1.06934C 2.54235 0.427712 2.03391 7.18991e-07 1.27118 7.18991e-07C 0.508441 7.18991e-07 -4.76463e-07 0.427712 -4.76463e-07 1.06934L -4.76463e-07 3.20816C -0.000149448 3.84966 0.508441 4.2775 1.27118 4.2775Z"/>
<path id="path29_fill" d="M 1.27118 4.2775C 2.03391 4.2775 2.54235 3.84979 2.54235 3.20816L 2.54235 1.06934C 2.54235 0.427712 2.03391 3.36549e-07 1.27118 3.36549e-07C 0.508441 3.36549e-07 -4.76463e-07 0.427712 -4.76463e-07 1.06934L -4.76463e-07 3.20816C -0.000149448 3.84967 0.508441 4.2775 1.27118 4.2775Z"/>
<path id="path30_fill" d="M 1.27118 4.2775C 2.03391 4.2775 2.54235 3.84978 2.54235 3.20815L 2.54235 1.06934C 2.54235 0.427713 2.03391 1.86632e-06 1.27118 1.86632e-06C 0.508441 1.86632e-06 -4.76463e-07 0.427713 -4.76463e-07 1.06934L -4.76463e-07 3.20815C -0.000149448 3.84966 0.508441 4.2775 1.27118 4.2775Z"/>
<path id="path31_fill" d="M 1.27117 4.2775C 2.03391 4.2775 2.54235 3.84979 2.54235 3.20816L 2.54235 1.06934C 2.54235 0.427713 2.03391 -4.28335e-07 1.27117 -4.28335e-07C 0.508439 -4.28335e-07 -9.31087e-07 0.427713 -9.31087e-07 1.06934L -9.31087e-07 3.20816C -0.000149903 3.84966 0.508439 4.2775 1.27117 4.2775Z"/>
<path id="path32_fill" d="M 1.27117 4.2775C 2.03391 4.2775 2.54235 3.84979 2.54235 3.20816L 2.54235 1.06934C 2.54235 0.427712 2.03391 -4.5893e-08 1.27117 -4.5893e-08C 0.508439 -4.5893e-08 -9.31087e-07 0.427712 -9.31087e-07 1.06934L -9.31087e-07 3.20816C -0.000149903 3.84966 0.508439 4.2775 1.27117 4.2775Z"/>
<path id="path33_fill" d="M 1.27117 4.2775C 2.03391 4.2775 2.54235 3.84979 2.54235 3.20816L 2.54235 1.06934C 2.54235 0.427712 2.03391 -1.41504e-07 1.27117 -1.41504e-07C 0.508439 -1.41504e-07 -9.31087e-07 0.427712 -9.31087e-07 1.06934L -9.31087e-07 3.20816C -0.000149903 3.84966 0.508439 4.2775 1.27117 4.2775Z"/>
<path id="path34_fill" d="M 1.27117 4.2775C 2.03391 4.2775 2.54235 3.84978 2.54235 3.20815L 2.54235 1.06934C 2.54235 0.427713 2.03391 1.86632e-06 1.27117 1.86632e-06C 0.508439 1.86632e-06 -9.31087e-07 0.427713 -9.31087e-07 1.06934L -9.31087e-07 3.20815C -0.000149903 3.84966 0.508439 4.2775 1.27117 4.2775Z"/>
<path id="path35_fill" d="M 1.27117 4.2775C 2.03391 4.2775 2.54235 3.84979 2.54235 3.20816L 2.54235 1.06934C 2.54235 0.427712 2.03391 3.36549e-07 1.27117 3.36549e-07C 0.508439 3.36549e-07 -9.31087e-07 0.427712 -9.31087e-07 1.06934L -9.31087e-07 3.20816C -0.000149903 3.84967 0.508439 4.2775 1.27117 4.2775Z"/>
<path id="path36_fill" d="M 1.27117 4.2775C 2.03391 4.2775 2.54235 3.84979 2.54235 3.20816L 2.54235 1.06934C 2.54235 0.427712 2.03391 7.18991e-07 1.27117 7.18991e-07C 0.508439 7.18991e-07 -9.31087e-07 0.427712 -9.31087e-07 1.06934L -9.31087e-07 3.20816C -0.000149903 3.84966 0.508439 4.2775 1.27117 4.2775Z"/>
<path id="path37_fill" d="M 1.27117 4.2775C 2.03391 4.2775 2.54235 3.84978 2.54235 3.20815L 2.54235 1.06934C 2.54235 0.427712 2.03391 -8.10776e-07 1.27117 -8.10776e-07C 0.508439 -8.10776e-07 -9.31087e-07 0.427712 -9.31087e-07 1.06934L -9.31087e-07 3.20815C -0.000149903 3.84966 0.508439 4.2775 1.27117 4.2775Z"/>
<path id="path38_fill" d="M 1.27117 4.2775C 2.0339 4.2775 2.54234 3.84979 2.54234 3.20816L 2.54234 1.06934C 2.54234 0.427712 2.0339 -4.5893e-08 1.27117 -4.5893e-08C 0.508438 -4.5893e-08 8.87411e-07 0.427712 8.87411e-07 1.06934L 8.87411e-07 3.20816C -0.000148084 3.84966 0.508438 4.2775 1.27117 4.2775Z"/>
<path id="path39_fill" d="M 1.27117 4.2775C 2.0339 4.2775 2.54234 3.84979 2.54234 3.20816L 2.54234 1.06934C 2.54234 0.427712 2.0339 -1.41504e-07 1.27117 -1.41504e-07C 0.508438 -1.41504e-07 8.87411e-07 0.427712 8.87411e-07 1.06934L 8.87411e-07 3.20816C -0.000148084 3.84966 0.508438 4.2775 1.27117 4.2775Z"/>
</defs>
</svg>
