<svg width="69" height="69" viewBox="0 0 69 69" version="1.1" xmlns="http://www.w3.org/2000/svg" xmlns:xlink="http://www.w3.org/1999/xlink">
<title>travel</title>
<desc>Created using Figma</desc>
<g id="Canvas" transform="translate(-287 -450)">
<g id="travel">
<g id="Group">
<g id="Group">
<g id="Vector">
<use xlink:href="#path0_fill" transform="translate(293.384 455.345)" fill="#333333"/>
</g>
</g>
</g>
<g id="Group">
<g id="Group">
<g id="Vector">
<use xlink:href="#path1_fill" transform="translate(293.383 486.879)" fill="#333333"/>
</g>
</g>
</g>
<g id="Group">
<g id="Group">
<g id="Vector">
<use xlink:href="#path2_fill" transform="translate(287.742 450.646)" fill="#333333"/>
</g>
</g>
</g>
<g id="Group">
<g id="Group">
<g id="Vector">
<use xlink:href="#path3_fill" transform="translate(292.255 473.292)" fill="#333333"/>
</g>
</g>
</g>
<g id="Group">
<g id="Group">
<g id="Vector">
<use xlink:href="#path4_fill" transform="translate(292.255 468.762)" fill="#333333"/>
</g>
</g>
</g>
<g id="Group">
<g id="Group">
<g id="Vector">
<use xlink:href="#path5_fill" transform="translate(335.127 461.969)" fill="#333333"/>
</g>
</g>
</g>
<g id="Group">
<g id="Group">
<g id="Vector">
<use xlink:href="#path6_fill" transform="translate(328.358 457.439)" fill="#333333"/>
</g>
</g>
</g>
<g id="Group">
<g id="Group">
<g id="Vector">
<use xlink:href="#path7_fill" transform="translate(329.486 492.54)" fill="#333333"/>
</g>
</g>
</g>
<g id="Group">
<g id="Group">
<g id="Vector">
<use xlink:href="#path8_fill" transform="translate(329.622 498.202)" fill="#333333"/>
</g>
</g>
</g>
<g id="Group">
<g id="Group">
<g id="Vector">
<use xlink:href="#path9_fill" transform="translate(329.486 503.863)" fill="#333333"/>
</g>
</g>
</g>
<g id="Group">
<g id="Group">
<g id="Vector">
<use xlink:href="#path10_fill" transform="translate(333.999 509.525)" fill="#333333"/>
</g>
</g>
</g>
<g id="Group">
<g id="Group">
<g id="Vector">
<use xlink:href="#path10_fill" transform="translate(338.512 509.525)" fill="#333333"/>
</g>
</g>
</g>
<g id="Group">
<g id="Group">
<g id="Vector">
<use xlink:href="#path11_fill" transform="translate(343.025 509.525)" fill="#333333"/>
</g>
</g>
</g>
<g id="Group">
<g id="Group">
<g id="Vector">
<use xlink:href="#path12_fill" transform="translate(332.871 486.879)" fill="#333333"/>
</g>
</g>
</g>
</g>
</g>
<defs>
<path id="path0_fill" d="M 26.8517 2.53724L 24.7397 1.38005C 24.1056 1.0313 23.3373 1.01092 22.6841 1.32343L 17.8565 3.64009L 11.992 0.158306C 11.7416 0.00997656 11.4415 -0.0375795 11.1617 0.0303578L 6.64882 1.08792C 6.25056 1.18076 5.93354 1.48308 5.82071 1.87712C 5.70789 2.27116 5.8162 2.69577 6.10277 2.98676L 10.3189 7.25662L 7.12041 8.79201L 1.52223 6.69501C 1.08674 6.53083 0.598221 6.65198 0.289091 6.99959C -0.0211673 7.34494 -0.0877318 7.84654 0.118731 8.26209L 3.50224 15.0558C 3.69403 15.4397 4.0844 15.682 4.51199 15.682L 7.89662 15.682C 8.08955 15.682 8.27909 15.6322 8.44719 15.5382L 12.669 13.1672L 12.4117 16.7316C 12.3824 17.137 12.5731 17.5276 12.9093 17.7541C 13.0988 17.882 13.3177 17.9466 13.5377 17.9466C 13.7103 17.9466 13.8829 17.9069 14.042 17.8277L 18.5548 15.5631C 18.8414 15.4193 19.0546 15.1589 19.1393 14.8475L 20.5428 9.67519L 26.7795 6.55121C 27.5343 6.17189 28.0115 5.41099 28.0273 4.56517C 28.042 3.71935 27.5918 2.94147 26.8517 2.53724ZM 9.1275 2.83164L 11.2339 2.33796L 15.4071 4.81428L 12.4772 6.22058L 9.1275 2.83164ZM 19.0817 7.87712C 18.794 8.02092 18.5819 8.28134 18.4973 8.59272L 17.0938 13.765L 14.8047 14.9143L 15.0698 11.2366C 15.0991 10.8211 14.9006 10.4225 14.5497 10.1994C 14.3658 10.0805 14.1559 10.0205 13.945 10.0205C 13.7554 10.0205 13.5659 10.0681 13.3944 10.1643L 7.60216 13.4174L 5.20922 13.4174L 3.41762 9.82239L 6.78195 11.0815C 7.06739 11.1902 7.38667 11.1732 7.66308 11.043L 12.7242 8.61424L 12.7254 8.61424L 18.2875 5.94543C 18.2886 5.94543 18.2886 5.9443 18.2886 5.9443L 23.6566 3.36834L 25.7698 4.52668L 19.0817 7.87712Z"/>
<path id="path1_fill" d="M 24.2092 5.25495C 24.2013 5.24476 24.2013 5.23117 24.1934 5.22211C 24.1742 5.19834 24.1528 5.17795 24.1336 5.15418C 23.8403 4.78392 23.5322 4.42725 23.2028 4.08983C 23.1859 4.07284 23.1712 4.05359 23.1554 4.03661C 22.8158 3.69239 22.4571 3.36629 22.0825 3.05944C 21.9539 2.95414 21.8174 2.86129 21.6854 2.76165C 21.4473 2.58048 21.2081 2.40045 20.9577 2.23514C 20.7704 2.11058 20.5763 1.99849 20.3823 1.88413C 20.1724 1.75958 19.9615 1.63842 19.7448 1.52519C 19.5361 1.41649 19.324 1.31459 19.1097 1.21721C 18.8908 1.11757 18.6685 1.02472 18.4429 0.936402C 18.2285 0.852613 18.0142 0.771089 17.7964 0.698623C 17.5493 0.615966 17.2966 0.545764 17.0428 0.477827C 16.8386 0.423477 16.6366 0.364599 16.429 0.319307C 16.13 0.253634 15.8243 0.207211 15.5174 0.161919C 15.3471 0.137009 15.179 0.101907 15.0075 0.0837908C 14.5235 0.0305733 14.035 0 13.5385 0C 13.0421 0 12.5536 0.0305733 12.0707 0.0837908C 11.8993 0.101907 11.7311 0.137009 11.5608 0.161919C 11.2539 0.207211 10.9493 0.253634 10.6492 0.319307C 10.4416 0.364599 10.2397 0.423477 10.0354 0.477827C 9.7816 0.545764 9.53001 0.615966 9.2818 0.698623C 9.06293 0.771089 8.84857 0.852613 8.63534 0.936402C 8.40969 1.02472 8.18744 1.11757 7.96856 1.21721C 7.7542 1.31459 7.5421 1.41649 7.33338 1.52519C 7.11676 1.63842 6.90579 1.75958 6.69594 1.88413C 6.50302 1.99849 6.30896 2.11058 6.12055 2.23514C 5.87009 2.40045 5.63091 2.58048 5.39285 2.76165C 5.26085 2.86242 5.12434 2.95414 4.99572 3.05944C 4.62116 3.36629 4.26351 3.69239 3.92279 4.03661C 3.90587 4.05359 3.8912 4.07284 3.87541 4.08983C 3.54597 4.42725 3.23797 4.78392 2.94463 5.15418C 2.92545 5.17795 2.90402 5.19834 2.88484 5.22211C 2.87694 5.23231 2.87581 5.24476 2.86904 5.25495C 1.07744 7.55802 0 10.4465 0 13.5875C 0 16.8201 1.13498 19.789 3.0191 22.1238C 3.02587 22.1328 3.02699 22.1453 3.03376 22.1544C 3.0473 22.1713 3.0631 22.1849 3.07663 22.2019C 3.36546 22.5552 3.67233 22.8937 3.995 23.2153C 4.15069 23.3716 4.3188 23.5108 4.48013 23.658C 4.66177 23.8222 4.84003 23.9887 5.02957 24.1438C 5.22362 24.3023 5.4267 24.4472 5.62865 24.5933C 5.8024 24.719 5.97501 24.8447 6.1544 24.9624C 6.3665 25.1017 6.58199 25.2308 6.80086 25.3565C 6.98815 25.4652 7.17769 25.5693 7.37061 25.669C 7.58835 25.7811 7.80723 25.8886 8.02948 25.9883C 8.24272 26.0845 8.46046 26.1706 8.67934 26.2555C 8.89257 26.3382 9.10354 26.4208 9.32129 26.4922C 9.57175 26.5748 9.82673 26.6427 10.0828 26.7107C 10.2803 26.7628 10.4743 26.8205 10.6751 26.8635C 10.9786 26.9292 11.29 26.9756 11.6003 27.0198C 11.7616 27.0436 11.9207 27.0764 12.0843 27.0945C 12.5638 27.1455 13.0478 27.1749 13.5385 27.1749C 14.0293 27.1749 14.5133 27.1455 14.9917 27.0934C 15.1541 27.0764 15.3132 27.0424 15.4757 27.0187C 15.7871 26.9734 16.0973 26.9281 16.4008 26.8624C 16.6005 26.8194 16.7957 26.7616 16.9931 26.7096C 17.2492 26.6416 17.5053 26.5737 17.7547 26.491C 17.9713 26.4197 18.1834 26.337 18.3966 26.2544C 18.6155 26.1695 18.8332 26.0834 19.0465 25.9872C 19.2699 25.8875 19.4887 25.7799 19.7054 25.6678C 19.8983 25.5682 20.0878 25.464 20.2751 25.3553C 20.494 25.2285 20.7095 25.0994 20.9216 24.9613C 21.101 24.8435 21.2736 24.7179 21.4473 24.5922C 21.6493 24.445 21.8512 24.3012 22.0464 24.1427C 22.2359 23.9887 22.4142 23.8211 22.5958 23.6569C 22.7583 23.5097 22.9253 23.3704 23.081 23.2142C 23.4036 22.8915 23.7105 22.5541 23.9993 22.2008C 24.0129 22.1838 24.0287 22.1702 24.0422 22.1532C 24.049 22.1442 24.0501 22.1317 24.0569 22.1227C 25.9421 19.789 27.0771 16.8201 27.0771 13.5875C 27.0771 10.4465 25.9996 7.55802 24.2092 5.25495ZM 6.40373 4.82695C 6.51881 4.7307 6.64291 4.64691 6.7625 4.55633C 6.92722 4.43064 7.08969 4.30156 7.26005 4.18607C 7.4823 4.03661 7.71359 3.90073 7.946 3.76712C 7.99677 3.73768 8.04528 3.70485 8.09605 3.67767C 7.66056 4.38422 7.2702 5.17116 6.93963 6.03623C 6.46917 5.8913 6.01563 5.73504 5.59593 5.56067C 5.85429 5.30137 6.12393 5.05793 6.40373 4.82695ZM 4.11797 7.3746C 4.77572 7.68711 5.49891 7.96112 6.26722 8.20003C 5.93327 9.56671 5.73019 11.0579 5.66927 12.6262L 2.30494 12.6262C 2.4674 10.6979 3.11048 8.90658 4.11797 7.3746ZM 4.27141 20.0279C 3.23797 18.5344 2.55427 16.7839 2.33766 14.8896L 5.67829 14.8896C 5.76065 16.4533 5.99532 17.9264 6.35071 19.2806C 5.62188 19.4969 4.92465 19.7448 4.27141 20.0279ZM 7.96969 23.4225C 7.74743 23.2946 7.52856 23.1644 7.31645 23.024C 7.2262 22.9639 7.1382 22.8983 7.0502 22.8349C 6.84825 22.6922 6.64968 22.545 6.45789 22.3899C 6.36199 22.3117 6.26835 22.228 6.1747 22.1464C 6.05737 22.0445 5.94342 21.9381 5.82947 21.8317C 6.21983 21.6845 6.64178 21.5633 7.06148 21.4399C 7.36384 22.1861 7.7102 22.8711 8.09267 23.4927C 8.05092 23.4701 8.01031 23.4452 7.96969 23.4225ZM 12.4103 24.6714C 11.1806 24.1472 10.0873 22.785 9.28293 20.9145C 10.2814 20.7401 11.3329 20.6428 12.4103 20.5963L 12.4103 24.6714ZM 12.4103 18.3148C 11.0757 18.368 9.77934 18.5163 8.54508 18.7507C 8.23256 17.5629 8.02272 16.2608 7.94036 14.8896L 12.4103 14.8896L 12.4103 18.3148ZM 12.4103 12.625L 7.92231 12.625C 7.98323 11.2527 8.1739 9.94489 8.4661 8.74466C 9.71503 8.98924 11.0396 9.14436 12.4103 9.19871L 12.4103 12.625ZM 12.4103 6.93866C 11.2844 6.88884 10.1878 6.76429 9.15093 6.57407C 9.9655 4.54161 11.1129 3.05718 12.4103 2.50349L 12.4103 6.93866ZM 22.9602 7.37346C 23.9677 8.90658 24.6097 10.6967 24.7733 12.625L 21.409 12.625C 21.348 11.0568 21.145 9.56558 20.811 8.1989C 21.5793 7.96112 22.3014 7.68711 22.9602 7.37346ZM 19.1322 3.76712C 19.3635 3.90073 19.5959 4.03661 19.817 4.18607C 19.9874 4.30156 20.1499 4.43064 20.3146 4.55633C 20.4342 4.64691 20.5583 4.73183 20.6745 4.82695C 20.9532 5.05793 21.2239 5.30137 21.4823 5.56067C 21.0637 5.73617 20.6091 5.8913 20.1386 6.03623C 19.808 5.17116 19.4177 4.38422 18.9822 3.67767C 19.0329 3.70598 19.0815 3.73882 19.1322 3.76712ZM 14.6668 2.50349C 15.9642 3.05718 17.1116 4.54161 17.9262 6.57407C 16.8893 6.76316 15.7927 6.88884 14.6668 6.93866L 14.6668 2.50349ZM 14.6668 9.19871C 16.0375 9.14436 17.3621 8.98924 18.6099 8.74466C 18.9021 9.94489 19.0939 11.2527 19.1537 12.625L 14.6668 12.625L 14.6668 9.19871ZM 14.6668 24.6714L 14.6668 20.5963C 15.7442 20.6428 16.7957 20.7401 17.7942 20.9145C 16.9897 22.785 15.8954 24.1472 14.6668 24.6714ZM 14.6668 18.3148L 14.6668 14.8896L 19.1367 14.8896C 19.0544 16.2597 18.8445 17.5629 18.532 18.7507C 17.2977 18.5163 16.0014 18.368 14.6668 18.3148ZM 20.9024 22.1464C 20.8087 22.228 20.7162 22.3117 20.6192 22.3899C 20.4274 22.5461 20.2288 22.6922 20.0269 22.8349C 19.9378 22.8983 19.8509 22.9628 19.7606 23.024C 19.5485 23.1655 19.3297 23.2957 19.1085 23.4225C 19.0679 23.4463 19.0262 23.4701 18.9856 23.4927C 19.368 22.8711 19.7144 22.1849 20.0167 21.4399C 20.4364 21.5633 20.8573 21.6845 21.2487 21.8317C 21.1348 21.9381 21.0208 22.0445 20.9024 22.1464ZM 22.8068 20.0279C 22.1524 19.7448 21.4563 19.498 20.7275 19.2806C 21.0829 17.9264 21.3176 16.4533 21.3999 14.8896L 24.7406 14.8896C 24.5228 16.7839 23.8391 18.5344 22.8068 20.0279Z"/>
<path id="path2_fill" d="M 66.5645 2.26458L 38.3592 2.26458L 38.3592 1.13229C 38.3592 0.506133 37.8538 0 37.231 0L 1.12821 0C 0.505439 0 0 0.506133 0 1.13229L 0 66.805C 0 67.4312 0.505439 67.9373 1.12821 67.9373L 37.231 67.9373C 37.8538 67.9373 38.3592 67.4312 38.3592 66.805L 38.3592 65.6727L 66.5645 65.6727C 67.1873 65.6727 67.6927 65.1666 67.6927 64.5404L 67.6927 3.39687C 67.6927 2.77071 67.1873 2.26458 66.5645 2.26458ZM 36.1028 65.6727L 2.25642 65.6727L 2.25642 2.26458L 36.1028 2.26458L 36.1028 65.6727ZM 65.4363 63.4082L 38.3592 63.4082L 38.3592 4.52915L 65.4363 4.52915L 65.4363 63.4082Z"/>
<path id="path3_fill" d="M 23.6925 2.26458L 3.38464 2.26458C 2.76299 2.26458 2.25642 1.75731 2.25642 1.13229L 2.25642 0L 0 0L 0 1.13229C 0 3.00509 1.51857 4.52915 3.38464 4.52915L 23.6925 4.52915C 24.3141 4.52915 24.8207 5.03642 24.8207 5.66144C 24.8207 6.28646 24.3141 6.79373 23.6925 6.79373L 16.9232 6.79373C 15.0571 6.79373 13.5385 8.31779 13.5385 10.1906L 13.5385 11.3229L 15.795 11.3229L 15.795 10.1906C 15.795 9.56557 16.3015 9.05831 16.9232 9.05831L 23.6925 9.05831C 25.5585 9.05831 27.0771 7.53425 27.0771 5.66144C 27.0771 3.78864 25.5585 2.26458 23.6925 2.26458Z"/>
<path id="path4_fill" d="M 2.25642 0L 0 0L 0 2.26457L 2.25642 2.26457L 2.25642 0Z"/>
<path id="path5_fill" d="M 3.38464 0C 1.51858 0 0 1.52406 0 3.39686C 0 5.26967 1.51858 6.79373 3.38464 6.79373C 5.25071 6.79373 6.76929 5.26967 6.76929 3.39686C 6.76929 1.52406 5.25071 0 3.38464 0ZM 3.38464 4.52915C 2.763 4.52915 2.25643 4.02189 2.25643 3.39686C 2.25643 2.77184 2.763 2.26458 3.38464 2.26458C 4.00629 2.26458 4.51286 2.77184 4.51286 3.39686C 4.51286 4.02189 4.00629 4.52915 3.38464 4.52915Z"/>
<path id="path6_fill" d="M 21.436 0L 1.12821 0C 0.505439 0 0 0.506133 0 1.13229L 0 24.9103C 0 25.5365 0.505439 26.0426 1.12821 26.0426L 21.436 26.0426C 22.0588 26.0426 22.5642 25.5365 22.5642 24.9103L 22.5642 1.13229C 22.5642 0.506133 22.0588 0 21.436 0ZM 20.3078 23.7781L 2.25642 23.7781L 2.25642 21.5135L 10.1539 21.5135L 20.3078 21.5135L 20.3078 23.7781ZM 3.23684 19.2489L 5.64106 15.629L 8.04528 19.2489L 3.23684 19.2489ZM 12.1892 19.2489L 15.795 13.4595L 19.4007 19.2489L 12.1892 19.2489ZM 20.3078 16.4329L 16.7517 10.7228C 16.3388 10.0615 15.2512 10.0615 14.8382 10.7228L 10.1234 18.2944L 6.57973 12.9602C 6.16117 12.3295 5.12095 12.3295 4.70239 12.9602L 2.25642 16.6412L 2.25642 2.26458L 20.3078 2.26458L 20.3078 16.4329Z"/>
<path id="path7_fill" d="M 20.3078 0L 0 0L 0 2.26458L 20.3078 2.26458L 20.3078 0Z"/>
<path id="path8_fill" d="M 20.3078 0L 0 0L 0 2.26459L 20.3078 2.26459L 20.3078 0Z"/>
<path id="path9_fill" d="M 20.3078 0L 0 0L 0 2.26457L 20.3078 2.26457L 20.3078 0Z"/>
<path id="path10_fill" d="M 2.25642 0L 0 0L 0 2.26457L 2.25642 2.26457L 2.25642 0Z"/>
<path id="path11_fill" d="M 2.25641 0L 0 0L 0 2.26457L 2.25641 2.26457L 2.25641 0Z"/>
<path id="path12_fill" d="M 13.5385 0L 0 0L 0 2.26458L 13.5385 2.26458L 13.5385 0Z"/>
</defs>
</svg>
